<?xml version="1.0" encoding="utf-8" standalone="no"?>
<!DOCTYPE svg PUBLIC "-//W3C//DTD SVG 1.1//EN"
  "http://www.w3.org/Graphics/SVG/1.1/DTD/svg11.dtd">
<svg xmlns:xlink="http://www.w3.org/1999/xlink" width="1080pt" height="360pt" viewBox="0 0 1080 360" xmlns="http://www.w3.org/2000/svg" version="1.1">
 <metadata>
  <rdf:RDF xmlns:dc="http://purl.org/dc/elements/1.1/" xmlns:cc="http://creativecommons.org/ns#" xmlns:rdf="http://www.w3.org/1999/02/22-rdf-syntax-ns#">
   <cc:Work>
    <dc:type rdf:resource="http://purl.org/dc/dcmitype/StillImage"/>
    <dc:date>2025-11-30T23:07:23.421389</dc:date>
    <dc:format>image/svg+xml</dc:format>
    <dc:creator>
     <cc:Agent>
      <dc:title>Matplotlib v3.10.0, https://matplotlib.org/</dc:title>
     </cc:Agent>
    </dc:creator>
   </cc:Work>
  </rdf:RDF>
 </metadata>
 <defs>
  <style type="text/css">*{stroke-linejoin: round; stroke-linecap: butt}</style>
 </defs>
 <g id="figure_1">
  <g id="patch_1">
   <path d="M 0 360 
L 1080 360 
L 1080 0 
L 0 0 
z
" style="fill: #ffffff"/>
  </g>
  <g id="axes_1">
   <g id="patch_2">
    <path d="M 10.8 332.12 
L 356.4 332.12 
L 356.4 26.88 
L 10.8 26.88 
z
" style="fill: #ffffff"/>
   </g>
   <g id="patch_3">
    <path d="M 26.509091 332.12 
L 32.792727 332.12 
L 32.792727 238.332529 
L 26.509091 238.332529 
z
" clip-path="url(#pe275d62c01)" style="fill: #1f77b4"/>
   </g>
   <g id="patch_4">
    <path d="M 32.792727 332.12 
L 39.076364 332.12 
L 39.076364 269.271475 
L 32.792727 269.271475 
z
" clip-path="url(#pe275d62c01)" style="fill: #1f77b4"/>
   </g>
   <g id="patch_5">
    <path d="M 39.076364 332.12 
L 45.36 332.12 
L 45.36 183.127743 
L 39.076364 183.127743 
z
" clip-path="url(#pe275d62c01)" style="fill: #1f77b4"/>
   </g>
   <g id="patch_6">
    <path d="M 45.36 332.12 
L 51.643636 332.12 
L 51.643636 250.465449 
L 45.36 250.465449 
z
" clip-path="url(#pe275d62c01)" style="fill: #1f77b4"/>
   </g>
   <g id="patch_7">
    <path d="M 51.643636 332.12 
L 57.927273 332.12 
L 57.927273 154.251394 
L 51.643636 154.251394 
z
" clip-path="url(#pe275d62c01)" style="fill: #1f77b4"/>
   </g>
   <g id="patch_8">
    <path d="M 57.927273 332.12 
L 64.210909 332.12 
L 64.210909 236.512591 
L 57.927273 236.512591 
z
" clip-path="url(#pe275d62c01)" style="fill: #1f77b4"/>
   </g>
   <g id="patch_9">
    <path d="M 64.210909 332.12 
L 70.494545 332.12 
L 70.494545 232.508727 
L 64.210909 232.508727 
z
" clip-path="url(#pe275d62c01)" style="fill: #1f77b4"/>
   </g>
   <g id="patch_10">
    <path d="M 70.494545 332.12 
L 76.778182 332.12 
L 76.778182 124.404411 
L 70.494545 124.404411 
z
" clip-path="url(#pe275d62c01)" style="fill: #1f77b4"/>
   </g>
   <g id="patch_11">
    <path d="M 76.778182 332.12 
L 83.061818 332.12 
L 83.061818 223.773025 
L 76.778182 223.773025 
z
" clip-path="url(#pe275d62c01)" style="fill: #1f77b4"/>
   </g>
   <g id="patch_12">
    <path d="M 83.061818 332.12 
L 89.345455 332.12 
L 89.345455 107.175664 
L 83.061818 107.175664 
z
" clip-path="url(#pe275d62c01)" style="fill: #1f77b4"/>
   </g>
   <g id="patch_13">
    <path d="M 89.345455 332.12 
L 95.629091 332.12 
L 95.629091 214.915993 
L 89.345455 214.915993 
z
" clip-path="url(#pe275d62c01)" style="fill: #1f77b4"/>
   </g>
   <g id="patch_14">
    <path d="M 95.629091 332.12 
L 101.912727 332.12 
L 101.912727 91.888185 
L 95.629091 91.888185 
z
" clip-path="url(#pe275d62c01)" style="fill: #1f77b4"/>
   </g>
   <g id="patch_15">
    <path d="M 101.912727 332.12 
L 108.196364 332.12 
L 108.196364 209.577509 
L 101.912727 209.577509 
z
" clip-path="url(#pe275d62c01)" style="fill: #1f77b4"/>
   </g>
   <g id="patch_16">
    <path d="M 108.196364 332.12 
L 114.48 332.12 
L 114.48 208.000229 
L 108.196364 208.000229 
z
" clip-path="url(#pe275d62c01)" style="fill: #1f77b4"/>
   </g>
   <g id="patch_17">
    <path d="M 114.48 332.12 
L 120.763636 332.12 
L 120.763636 80.968557 
L 114.48 80.968557 
z
" clip-path="url(#pe275d62c01)" style="fill: #1f77b4"/>
   </g>
   <g id="patch_18">
    <path d="M 120.763636 332.12 
L 127.047273 332.12 
L 127.047273 205.330987 
L 120.763636 205.330987 
z
" clip-path="url(#pe275d62c01)" style="fill: #1f77b4"/>
   </g>
   <g id="patch_19">
    <path d="M 127.047273 332.12 
L 133.330909 332.12 
L 133.330909 73.203488 
L 127.047273 73.203488 
z
" clip-path="url(#pe275d62c01)" style="fill: #1f77b4"/>
   </g>
   <g id="patch_20">
    <path d="M 133.330909 332.12 
L 139.614545 332.12 
L 139.614545 200.599148 
L 133.330909 200.599148 
z
" clip-path="url(#pe275d62c01)" style="fill: #1f77b4"/>
   </g>
   <g id="patch_21">
    <path d="M 139.614545 332.12 
L 145.898182 332.12 
L 145.898182 199.749843 
L 139.614545 199.749843 
z
" clip-path="url(#pe275d62c01)" style="fill: #1f77b4"/>
   </g>
   <g id="patch_22">
    <path d="M 145.898182 332.12 
L 152.181818 332.12 
L 152.181818 65.681078 
L 145.898182 65.681078 
z
" clip-path="url(#pe275d62c01)" style="fill: #1f77b4"/>
   </g>
   <g id="patch_23">
    <path d="M 152.181818 332.12 
L 158.465455 332.12 
L 158.465455 197.323259 
L 152.181818 197.323259 
z
" clip-path="url(#pe275d62c01)" style="fill: #1f77b4"/>
   </g>
   <g id="patch_24">
    <path d="M 158.465455 332.12 
L 164.749091 332.12 
L 164.749091 59.735947 
L 158.465455 59.735947 
z
" clip-path="url(#pe275d62c01)" style="fill: #1f77b4"/>
   </g>
   <g id="patch_25">
    <path d="M 164.749091 332.12 
L 171.032727 332.12 
L 171.032727 194.290029 
L 164.749091 194.290029 
z
" clip-path="url(#pe275d62c01)" style="fill: #1f77b4"/>
   </g>
   <g id="patch_26">
    <path d="M 171.032727 332.12 
L 177.316364 332.12 
L 177.316364 54.276133 
L 171.032727 54.276133 
z
" clip-path="url(#pe275d62c01)" style="fill: #1f77b4"/>
   </g>
   <g id="patch_27">
    <path d="M 177.316364 332.12 
L 183.6 332.12 
L 183.6 192.106104 
L 177.316364 192.106104 
z
" clip-path="url(#pe275d62c01)" style="fill: #1f77b4"/>
   </g>
   <g id="patch_28">
    <path d="M 183.6 332.12 
L 189.883636 332.12 
L 189.883636 191.378129 
L 183.6 191.378129 
z
" clip-path="url(#pe275d62c01)" style="fill: #1f77b4"/>
   </g>
   <g id="patch_29">
    <path d="M 189.883636 332.12 
L 196.167273 332.12 
L 196.167273 49.908282 
L 189.883636 49.908282 
z
" clip-path="url(#pe275d62c01)" style="fill: #1f77b4"/>
   </g>
   <g id="patch_30">
    <path d="M 196.167273 332.12 
L 202.450909 332.12 
L 202.450909 190.407495 
L 196.167273 190.407495 
z
" clip-path="url(#pe275d62c01)" style="fill: #1f77b4"/>
   </g>
   <g id="patch_31">
    <path d="M 202.450909 332.12 
L 208.734545 332.12 
L 208.734545 47.481698 
L 202.450909 47.481698 
z
" clip-path="url(#pe275d62c01)" style="fill: #1f77b4"/>
   </g>
   <g id="patch_32">
    <path d="M 208.734545 332.12 
L 215.018182 332.12 
L 215.018182 188.830215 
L 208.734545 188.830215 
z
" clip-path="url(#pe275d62c01)" style="fill: #1f77b4"/>
   </g>
   <g id="patch_33">
    <path d="M 215.018182 332.12 
L 221.301818 332.12 
L 221.301818 45.055114 
L 215.018182 45.055114 
z
" clip-path="url(#pe275d62c01)" style="fill: #1f77b4"/>
   </g>
   <g id="patch_34">
    <path d="M 221.301818 332.12 
L 227.585455 332.12 
L 227.585455 188.466228 
L 221.301818 188.466228 
z
" clip-path="url(#pe275d62c01)" style="fill: #1f77b4"/>
   </g>
   <g id="patch_35">
    <path d="M 227.585455 332.12 
L 233.869091 332.12 
L 233.869091 188.223569 
L 227.585455 188.223569 
z
" clip-path="url(#pe275d62c01)" style="fill: #1f77b4"/>
   </g>
   <g id="patch_36">
    <path d="M 233.869091 332.12 
L 240.152727 332.12 
L 240.152727 43.720493 
L 233.869091 43.720493 
z
" clip-path="url(#pe275d62c01)" style="fill: #1f77b4"/>
   </g>
   <g id="patch_37">
    <path d="M 240.152727 332.12 
L 246.436364 332.12 
L 246.436364 187.738253 
L 240.152727 187.738253 
z
" clip-path="url(#pe275d62c01)" style="fill: #1f77b4"/>
   </g>
   <g id="patch_38">
    <path d="M 246.436364 332.12 
L 252.72 332.12 
L 252.72 42.749859 
L 246.436364 42.749859 
z
" clip-path="url(#pe275d62c01)" style="fill: #1f77b4"/>
   </g>
   <g id="patch_39">
    <path d="M 252.72 332.12 
L 259.003636 332.12 
L 259.003636 187.131607 
L 252.72 187.131607 
z
" clip-path="url(#pe275d62c01)" style="fill: #1f77b4"/>
   </g>
   <g id="patch_40">
    <path d="M 259.003636 332.12 
L 265.287273 332.12 
L 265.287273 186.888948 
L 259.003636 186.888948 
z
" clip-path="url(#pe275d62c01)" style="fill: #1f77b4"/>
   </g>
   <g id="patch_41">
    <path d="M 265.287273 332.12 
L 271.570909 332.12 
L 271.570909 41.536567 
L 265.287273 41.536567 
z
" clip-path="url(#pe275d62c01)" style="fill: #1f77b4"/>
   </g>
   <g id="patch_42">
    <path d="M 271.570909 332.12 
L 277.854545 332.12 
L 277.854545 186.767619 
L 271.570909 186.767619 
z
" clip-path="url(#pe275d62c01)" style="fill: #1f77b4"/>
   </g>
   <g id="patch_43">
    <path d="M 277.854545 332.12 
L 284.138182 332.12 
L 284.138182 41.415238 
L 277.854545 41.415238 
z
" clip-path="url(#pe275d62c01)" style="fill: #1f77b4"/>
   </g>
   <g id="patch_44">
    <path d="M 284.138182 332.12 
L 290.421818 332.12 
L 290.421818 186.767619 
L 284.138182 186.767619 
z
" clip-path="url(#pe275d62c01)" style="fill: #1f77b4"/>
   </g>
   <g id="patch_45">
    <path d="M 290.421818 332.12 
L 296.705455 332.12 
L 296.705455 41.415238 
L 290.421818 41.415238 
z
" clip-path="url(#pe275d62c01)" style="fill: #1f77b4"/>
   </g>
   <g id="patch_46">
    <path d="M 296.705455 332.12 
L 302.989091 332.12 
L 302.989091 186.767619 
L 296.705455 186.767619 
z
" clip-path="url(#pe275d62c01)" style="fill: #1f77b4"/>
   </g>
   <g id="patch_47">
    <path d="M 302.989091 332.12 
L 309.272727 332.12 
L 309.272727 186.64629 
L 302.989091 186.64629 
z
" clip-path="url(#pe275d62c01)" style="fill: #1f77b4"/>
   </g>
   <g id="patch_48">
    <path d="M 309.272727 332.12 
L 315.556364 332.12 
L 315.556364 331.877342 
L 309.272727 331.877342 
z
" clip-path="url(#pe275d62c01)" style="fill: #1f77b4"/>
   </g>
   <g id="patch_49">
    <path d="M 315.556364 332.12 
L 321.84 332.12 
L 321.84 331.998671 
L 315.556364 331.998671 
z
" clip-path="url(#pe275d62c01)" style="fill: #1f77b4"/>
   </g>
   <g id="patch_50">
    <path d="M 321.84 332.12 
L 328.123636 332.12 
L 328.123636 331.877342 
L 321.84 331.877342 
z
" clip-path="url(#pe275d62c01)" style="fill: #1f77b4"/>
   </g>
   <g id="patch_51">
    <path d="M 328.123636 332.12 
L 334.407273 332.12 
L 334.407273 331.998671 
L 328.123636 331.998671 
z
" clip-path="url(#pe275d62c01)" style="fill: #1f77b4"/>
   </g>
   <g id="patch_52">
    <path d="M 334.407273 332.12 
L 340.690909 332.12 
L 340.690909 331.877342 
L 334.407273 331.877342 
z
" clip-path="url(#pe275d62c01)" style="fill: #1f77b4"/>
   </g>
   <g id="matplotlib.axis_1">
    <g id="xtick_1">
     <g id="line2d_1">
      <defs>
       <path id="ma50063c358" d="M 0 0 
L 0 3.5 
" style="stroke: #000000; stroke-width: 0.8"/>
      </defs>
      <g>
       <use xlink:href="#ma50063c358" x="22.083995" y="332.12" style="stroke: #000000; stroke-width: 0.8"/>
      </g>
     </g>
     <g id="text_1">
      <!-- 0 -->
      <g transform="translate(18.902745 346.718437) scale(0.1 -0.1)">
       <defs>
        <path id="DejaVuSans-30" d="M 2034 4250 
Q 1547 4250 1301 3770 
Q 1056 3291 1056 2328 
Q 1056 1369 1301 889 
Q 1547 409 2034 409 
Q 2525 409 2770 889 
Q 3016 1369 3016 2328 
Q 3016 3291 2770 3770 
Q 2525 4250 2034 4250 
z
M 2034 4750 
Q 2819 4750 3233 4129 
Q 3647 3509 3647 2328 
Q 3647 1150 3233 529 
Q 2819 -91 2034 -91 
Q 1250 -91 836 529 
Q 422 1150 422 2328 
Q 422 3509 836 4129 
Q 1250 4750 2034 4750 
z
" transform="scale(0.015625)"/>
       </defs>
       <use xlink:href="#DejaVuSans-30"/>
      </g>
     </g>
    </g>
    <g id="xtick_2">
     <g id="line2d_2">
      <g>
       <use xlink:href="#ma50063c358" x="66.334955" y="332.12" style="stroke: #000000; stroke-width: 0.8"/>
      </g>
     </g>
     <g id="text_2">
      <!-- 10 -->
      <g transform="translate(59.972455 346.718437) scale(0.1 -0.1)">
       <defs>
        <path id="DejaVuSans-31" d="M 794 531 
L 1825 531 
L 1825 4091 
L 703 3866 
L 703 4441 
L 1819 4666 
L 2450 4666 
L 2450 531 
L 3481 531 
L 3481 0 
L 794 0 
L 794 531 
z
" transform="scale(0.015625)"/>
       </defs>
       <use xlink:href="#DejaVuSans-31"/>
       <use xlink:href="#DejaVuSans-30" transform="translate(63.623047 0)"/>
      </g>
     </g>
    </g>
    <g id="xtick_3">
     <g id="line2d_3">
      <g>
       <use xlink:href="#ma50063c358" x="110.585915" y="332.12" style="stroke: #000000; stroke-width: 0.8"/>
      </g>
     </g>
     <g id="text_3">
      <!-- 20 -->
      <g transform="translate(104.223415 346.718437) scale(0.1 -0.1)">
       <defs>
        <path id="DejaVuSans-32" d="M 1228 531 
L 3431 531 
L 3431 0 
L 469 0 
L 469 531 
Q 828 903 1448 1529 
Q 2069 2156 2228 2338 
Q 2531 2678 2651 2914 
Q 2772 3150 2772 3378 
Q 2772 3750 2511 3984 
Q 2250 4219 1831 4219 
Q 1534 4219 1204 4116 
Q 875 4013 500 3803 
L 500 4441 
Q 881 4594 1212 4672 
Q 1544 4750 1819 4750 
Q 2544 4750 2975 4387 
Q 3406 4025 3406 3419 
Q 3406 3131 3298 2873 
Q 3191 2616 2906 2266 
Q 2828 2175 2409 1742 
Q 1991 1309 1228 531 
z
" transform="scale(0.015625)"/>
       </defs>
       <use xlink:href="#DejaVuSans-32"/>
       <use xlink:href="#DejaVuSans-30" transform="translate(63.623047 0)"/>
      </g>
     </g>
    </g>
    <g id="xtick_4">
     <g id="line2d_4">
      <g>
       <use xlink:href="#ma50063c358" x="154.836876" y="332.12" style="stroke: #000000; stroke-width: 0.8"/>
      </g>
     </g>
     <g id="text_4">
      <!-- 30 -->
      <g transform="translate(148.474376 346.718437) scale(0.1 -0.1)">
       <defs>
        <path id="DejaVuSans-33" d="M 2597 2516 
Q 3050 2419 3304 2112 
Q 3559 1806 3559 1356 
Q 3559 666 3084 287 
Q 2609 -91 1734 -91 
Q 1441 -91 1130 -33 
Q 819 25 488 141 
L 488 750 
Q 750 597 1062 519 
Q 1375 441 1716 441 
Q 2309 441 2620 675 
Q 2931 909 2931 1356 
Q 2931 1769 2642 2001 
Q 2353 2234 1838 2234 
L 1294 2234 
L 1294 2753 
L 1863 2753 
Q 2328 2753 2575 2939 
Q 2822 3125 2822 3475 
Q 2822 3834 2567 4026 
Q 2313 4219 1838 4219 
Q 1578 4219 1281 4162 
Q 984 4106 628 3988 
L 628 4550 
Q 988 4650 1302 4700 
Q 1616 4750 1894 4750 
Q 2613 4750 3031 4423 
Q 3450 4097 3450 3541 
Q 3450 3153 3228 2886 
Q 3006 2619 2597 2516 
z
" transform="scale(0.015625)"/>
       </defs>
       <use xlink:href="#DejaVuSans-33"/>
       <use xlink:href="#DejaVuSans-30" transform="translate(63.623047 0)"/>
      </g>
     </g>
    </g>
    <g id="xtick_5">
     <g id="line2d_5">
      <g>
       <use xlink:href="#ma50063c358" x="199.087836" y="332.12" style="stroke: #000000; stroke-width: 0.8"/>
      </g>
     </g>
     <g id="text_5">
      <!-- 40 -->
      <g transform="translate(192.725336 346.718437) scale(0.1 -0.1)">
       <defs>
        <path id="DejaVuSans-34" d="M 2419 4116 
L 825 1625 
L 2419 1625 
L 2419 4116 
z
M 2253 4666 
L 3047 4666 
L 3047 1625 
L 3713 1625 
L 3713 1100 
L 3047 1100 
L 3047 0 
L 2419 0 
L 2419 1100 
L 313 1100 
L 313 1709 
L 2253 4666 
z
" transform="scale(0.015625)"/>
       </defs>
       <use xlink:href="#DejaVuSans-34"/>
       <use xlink:href="#DejaVuSans-30" transform="translate(63.623047 0)"/>
      </g>
     </g>
    </g>
    <g id="xtick_6">
     <g id="line2d_6">
      <g>
       <use xlink:href="#ma50063c358" x="243.338796" y="332.12" style="stroke: #000000; stroke-width: 0.8"/>
      </g>
     </g>
     <g id="text_6">
      <!-- 50 -->
      <g transform="translate(236.976296 346.718437) scale(0.1 -0.1)">
       <defs>
        <path id="DejaVuSans-35" d="M 691 4666 
L 3169 4666 
L 3169 4134 
L 1269 4134 
L 1269 2991 
Q 1406 3038 1543 3061 
Q 1681 3084 1819 3084 
Q 2600 3084 3056 2656 
Q 3513 2228 3513 1497 
Q 3513 744 3044 326 
Q 2575 -91 1722 -91 
Q 1428 -91 1123 -41 
Q 819 9 494 109 
L 494 744 
Q 775 591 1075 516 
Q 1375 441 1709 441 
Q 2250 441 2565 725 
Q 2881 1009 2881 1497 
Q 2881 1984 2565 2268 
Q 2250 2553 1709 2553 
Q 1456 2553 1204 2497 
Q 953 2441 691 2322 
L 691 4666 
z
" transform="scale(0.015625)"/>
       </defs>
       <use xlink:href="#DejaVuSans-35"/>
       <use xlink:href="#DejaVuSans-30" transform="translate(63.623047 0)"/>
      </g>
     </g>
    </g>
    <g id="xtick_7">
     <g id="line2d_7">
      <g>
       <use xlink:href="#ma50063c358" x="287.589757" y="332.12" style="stroke: #000000; stroke-width: 0.8"/>
      </g>
     </g>
     <g id="text_7">
      <!-- 60 -->
      <g transform="translate(281.227257 346.718437) scale(0.1 -0.1)">
       <defs>
        <path id="DejaVuSans-36" d="M 2113 2584 
Q 1688 2584 1439 2293 
Q 1191 2003 1191 1497 
Q 1191 994 1439 701 
Q 1688 409 2113 409 
Q 2538 409 2786 701 
Q 3034 994 3034 1497 
Q 3034 2003 2786 2293 
Q 2538 2584 2113 2584 
z
M 3366 4563 
L 3366 3988 
Q 3128 4100 2886 4159 
Q 2644 4219 2406 4219 
Q 1781 4219 1451 3797 
Q 1122 3375 1075 2522 
Q 1259 2794 1537 2939 
Q 1816 3084 2150 3084 
Q 2853 3084 3261 2657 
Q 3669 2231 3669 1497 
Q 3669 778 3244 343 
Q 2819 -91 2113 -91 
Q 1303 -91 875 529 
Q 447 1150 447 2328 
Q 447 3434 972 4092 
Q 1497 4750 2381 4750 
Q 2619 4750 2861 4703 
Q 3103 4656 3366 4563 
z
" transform="scale(0.015625)"/>
       </defs>
       <use xlink:href="#DejaVuSans-36"/>
       <use xlink:href="#DejaVuSans-30" transform="translate(63.623047 0)"/>
      </g>
     </g>
    </g>
    <g id="xtick_8">
     <g id="line2d_8">
      <g>
       <use xlink:href="#ma50063c358" x="331.840717" y="332.12" style="stroke: #000000; stroke-width: 0.8"/>
      </g>
     </g>
     <g id="text_8">
      <!-- 70 -->
      <g transform="translate(325.478217 346.718437) scale(0.1 -0.1)">
       <defs>
        <path id="DejaVuSans-37" d="M 525 4666 
L 3525 4666 
L 3525 4397 
L 1831 0 
L 1172 0 
L 2766 4134 
L 525 4134 
L 525 4666 
z
" transform="scale(0.015625)"/>
       </defs>
       <use xlink:href="#DejaVuSans-37"/>
       <use xlink:href="#DejaVuSans-30" transform="translate(63.623047 0)"/>
      </g>
     </g>
    </g>
   </g>
   <g id="matplotlib.axis_2"/>
   <g id="patch_53">
    <path d="M 10.8 332.12 
L 10.8 26.88 
" style="fill: none; stroke: #000000; stroke-width: 0.8; stroke-linejoin: miter; stroke-linecap: square"/>
   </g>
   <g id="patch_54">
    <path d="M 356.4 332.12 
L 356.4 26.88 
" style="fill: none; stroke: #000000; stroke-width: 0.8; stroke-linejoin: miter; stroke-linecap: square"/>
   </g>
   <g id="patch_55">
    <path d="M 10.8 332.12 
L 356.4 332.12 
" style="fill: none; stroke: #000000; stroke-width: 0.8; stroke-linejoin: miter; stroke-linecap: square"/>
   </g>
   <g id="patch_56">
    <path d="M 10.8 26.88 
L 356.4 26.88 
" style="fill: none; stroke: #000000; stroke-width: 0.8; stroke-linejoin: miter; stroke-linecap: square"/>
   </g>
   <g id="text_9">
    <!-- numeric__tenure -->
    <g transform="translate(133.35375 20.88) scale(0.12 -0.12)">
     <defs>
      <path id="DejaVuSans-6e" d="M 3513 2113 
L 3513 0 
L 2938 0 
L 2938 2094 
Q 2938 2591 2744 2837 
Q 2550 3084 2163 3084 
Q 1697 3084 1428 2787 
Q 1159 2491 1159 1978 
L 1159 0 
L 581 0 
L 581 3500 
L 1159 3500 
L 1159 2956 
Q 1366 3272 1645 3428 
Q 1925 3584 2291 3584 
Q 2894 3584 3203 3211 
Q 3513 2838 3513 2113 
z
" transform="scale(0.015625)"/>
      <path id="DejaVuSans-75" d="M 544 1381 
L 544 3500 
L 1119 3500 
L 1119 1403 
Q 1119 906 1312 657 
Q 1506 409 1894 409 
Q 2359 409 2629 706 
Q 2900 1003 2900 1516 
L 2900 3500 
L 3475 3500 
L 3475 0 
L 2900 0 
L 2900 538 
Q 2691 219 2414 64 
Q 2138 -91 1772 -91 
Q 1169 -91 856 284 
Q 544 659 544 1381 
z
M 1991 3584 
L 1991 3584 
z
" transform="scale(0.015625)"/>
      <path id="DejaVuSans-6d" d="M 3328 2828 
Q 3544 3216 3844 3400 
Q 4144 3584 4550 3584 
Q 5097 3584 5394 3201 
Q 5691 2819 5691 2113 
L 5691 0 
L 5113 0 
L 5113 2094 
Q 5113 2597 4934 2840 
Q 4756 3084 4391 3084 
Q 3944 3084 3684 2787 
Q 3425 2491 3425 1978 
L 3425 0 
L 2847 0 
L 2847 2094 
Q 2847 2600 2669 2842 
Q 2491 3084 2119 3084 
Q 1678 3084 1418 2786 
Q 1159 2488 1159 1978 
L 1159 0 
L 581 0 
L 581 3500 
L 1159 3500 
L 1159 2956 
Q 1356 3278 1631 3431 
Q 1906 3584 2284 3584 
Q 2666 3584 2933 3390 
Q 3200 3197 3328 2828 
z
" transform="scale(0.015625)"/>
      <path id="DejaVuSans-65" d="M 3597 1894 
L 3597 1613 
L 953 1613 
Q 991 1019 1311 708 
Q 1631 397 2203 397 
Q 2534 397 2845 478 
Q 3156 559 3463 722 
L 3463 178 
Q 3153 47 2828 -22 
Q 2503 -91 2169 -91 
Q 1331 -91 842 396 
Q 353 884 353 1716 
Q 353 2575 817 3079 
Q 1281 3584 2069 3584 
Q 2775 3584 3186 3129 
Q 3597 2675 3597 1894 
z
M 3022 2063 
Q 3016 2534 2758 2815 
Q 2500 3097 2075 3097 
Q 1594 3097 1305 2825 
Q 1016 2553 972 2059 
L 3022 2063 
z
" transform="scale(0.015625)"/>
      <path id="DejaVuSans-72" d="M 2631 2963 
Q 2534 3019 2420 3045 
Q 2306 3072 2169 3072 
Q 1681 3072 1420 2755 
Q 1159 2438 1159 1844 
L 1159 0 
L 581 0 
L 581 3500 
L 1159 3500 
L 1159 2956 
Q 1341 3275 1631 3429 
Q 1922 3584 2338 3584 
Q 2397 3584 2469 3576 
Q 2541 3569 2628 3553 
L 2631 2963 
z
" transform="scale(0.015625)"/>
      <path id="DejaVuSans-69" d="M 603 3500 
L 1178 3500 
L 1178 0 
L 603 0 
L 603 3500 
z
M 603 4863 
L 1178 4863 
L 1178 4134 
L 603 4134 
L 603 4863 
z
" transform="scale(0.015625)"/>
      <path id="DejaVuSans-63" d="M 3122 3366 
L 3122 2828 
Q 2878 2963 2633 3030 
Q 2388 3097 2138 3097 
Q 1578 3097 1268 2742 
Q 959 2388 959 1747 
Q 959 1106 1268 751 
Q 1578 397 2138 397 
Q 2388 397 2633 464 
Q 2878 531 3122 666 
L 3122 134 
Q 2881 22 2623 -34 
Q 2366 -91 2075 -91 
Q 1284 -91 818 406 
Q 353 903 353 1747 
Q 353 2603 823 3093 
Q 1294 3584 2113 3584 
Q 2378 3584 2631 3529 
Q 2884 3475 3122 3366 
z
" transform="scale(0.015625)"/>
      <path id="DejaVuSans-5f" d="M 3263 -1063 
L 3263 -1509 
L -63 -1509 
L -63 -1063 
L 3263 -1063 
z
" transform="scale(0.015625)"/>
      <path id="DejaVuSans-74" d="M 1172 4494 
L 1172 3500 
L 2356 3500 
L 2356 3053 
L 1172 3053 
L 1172 1153 
Q 1172 725 1289 603 
Q 1406 481 1766 481 
L 2356 481 
L 2356 0 
L 1766 0 
Q 1100 0 847 248 
Q 594 497 594 1153 
L 594 3053 
L 172 3053 
L 172 3500 
L 594 3500 
L 594 4494 
L 1172 4494 
z
" transform="scale(0.015625)"/>
     </defs>
     <use xlink:href="#DejaVuSans-6e"/>
     <use xlink:href="#DejaVuSans-75" transform="translate(63.378906 0)"/>
     <use xlink:href="#DejaVuSans-6d" transform="translate(126.757812 0)"/>
     <use xlink:href="#DejaVuSans-65" transform="translate(224.169922 0)"/>
     <use xlink:href="#DejaVuSans-72" transform="translate(285.693359 0)"/>
     <use xlink:href="#DejaVuSans-69" transform="translate(326.806641 0)"/>
     <use xlink:href="#DejaVuSans-63" transform="translate(354.589844 0)"/>
     <use xlink:href="#DejaVuSans-5f" transform="translate(409.570312 0)"/>
     <use xlink:href="#DejaVuSans-5f" transform="translate(459.570312 0)"/>
     <use xlink:href="#DejaVuSans-74" transform="translate(509.570312 0)"/>
     <use xlink:href="#DejaVuSans-65" transform="translate(548.779297 0)"/>
     <use xlink:href="#DejaVuSans-6e" transform="translate(610.302734 0)"/>
     <use xlink:href="#DejaVuSans-75" transform="translate(673.681641 0)"/>
     <use xlink:href="#DejaVuSans-72" transform="translate(737.060547 0)"/>
     <use xlink:href="#DejaVuSans-65" transform="translate(775.923828 0)"/>
    </g>
   </g>
  </g>
  <g id="axes_2">
   <g id="patch_57">
    <path d="M 367.2 332.12 
L 712.8 332.12 
L 712.8 26.88 
L 367.2 26.88 
z
" style="fill: #ffffff"/>
   </g>
   <g id="patch_58">
    <path d="M 382.909091 332.12 
L 389.192727 332.12 
L 389.192727 326.785968 
L 382.909091 326.785968 
z
" clip-path="url(#pc33f12a8a6)" style="fill: #1f77b4"/>
   </g>
   <g id="patch_59">
    <path d="M 389.192727 332.12 
L 395.476364 332.12 
L 395.476364 312.602291 
L 389.192727 312.602291 
z
" clip-path="url(#pc33f12a8a6)" style="fill: #1f77b4"/>
   </g>
   <g id="patch_60">
    <path d="M 395.476364 332.12 
L 401.76 332.12 
L 401.76 312.117379 
L 395.476364 312.117379 
z
" clip-path="url(#pc33f12a8a6)" style="fill: #1f77b4"/>
   </g>
   <g id="patch_61">
    <path d="M 401.76 332.12 
L 408.043636 332.12 
L 408.043636 305.207382 
L 401.76 305.207382 
z
" clip-path="url(#pc33f12a8a6)" style="fill: #1f77b4"/>
   </g>
   <g id="patch_62">
    <path d="M 408.043636 332.12 
L 414.327273 332.12 
L 414.327273 303.267734 
L 408.043636 303.267734 
z
" clip-path="url(#pc33f12a8a6)" style="fill: #1f77b4"/>
   </g>
   <g id="patch_63">
    <path d="M 414.327273 332.12 
L 420.610909 332.12 
L 420.610909 317.572639 
L 414.327273 317.572639 
z
" clip-path="url(#pc33f12a8a6)" style="fill: #1f77b4"/>
   </g>
   <g id="patch_64">
    <path d="M 420.610909 332.12 
L 426.894545 332.12 
L 426.894545 299.145982 
L 420.610909 299.145982 
z
" clip-path="url(#pc33f12a8a6)" style="fill: #1f77b4"/>
   </g>
   <g id="patch_65">
    <path d="M 426.894545 332.12 
L 433.178182 332.12 
L 433.178182 297.691246 
L 426.894545 297.691246 
z
" clip-path="url(#pc33f12a8a6)" style="fill: #1f77b4"/>
   </g>
   <g id="patch_66">
    <path d="M 433.178182 332.12 
L 439.461818 332.12 
L 439.461818 296.23651 
L 433.178182 296.23651 
z
" clip-path="url(#pc33f12a8a6)" style="fill: #1f77b4"/>
   </g>
   <g id="patch_67">
    <path d="M 439.461818 332.12 
L 445.745455 332.12 
L 445.745455 292.357214 
L 439.461818 292.357214 
z
" clip-path="url(#pc33f12a8a6)" style="fill: #1f77b4"/>
   </g>
   <g id="patch_68">
    <path d="M 445.745455 332.12 
L 452.029091 332.12 
L 452.029091 291.872302 
L 445.745455 291.872302 
z
" clip-path="url(#pc33f12a8a6)" style="fill: #1f77b4"/>
   </g>
   <g id="patch_69">
    <path d="M 452.029091 332.12 
L 458.312727 332.12 
L 458.312727 311.390011 
L 452.029091 311.390011 
z
" clip-path="url(#pc33f12a8a6)" style="fill: #1f77b4"/>
   </g>
   <g id="patch_70">
    <path d="M 458.312727 332.12 
L 464.596364 332.12 
L 464.596364 288.235461 
L 458.312727 288.235461 
z
" clip-path="url(#pc33f12a8a6)" style="fill: #1f77b4"/>
   </g>
   <g id="patch_71">
    <path d="M 464.596364 332.12 
L 470.88 332.12 
L 470.88 287.144409 
L 464.596364 287.144409 
z
" clip-path="url(#pc33f12a8a6)" style="fill: #1f77b4"/>
   </g>
   <g id="patch_72">
    <path d="M 470.88 332.12 
L 477.163636 332.12 
L 477.163636 275.748977 
L 470.88 275.748977 
z
" clip-path="url(#pc33f12a8a6)" style="fill: #1f77b4"/>
   </g>
   <g id="patch_73">
    <path d="M 477.163636 332.12 
L 483.447273 332.12 
L 483.447273 268.475296 
L 477.163636 268.475296 
z
" clip-path="url(#pc33f12a8a6)" style="fill: #1f77b4"/>
   </g>
   <g id="patch_74">
    <path d="M 483.447273 332.12 
L 489.730909 332.12 
L 489.730909 298.903526 
L 483.447273 298.903526 
z
" clip-path="url(#pc33f12a8a6)" style="fill: #1f77b4"/>
   </g>
   <g id="patch_75">
    <path d="M 489.730909 332.12 
L 496.014545 332.12 
L 496.014545 258.049687 
L 489.730909 258.049687 
z
" clip-path="url(#pc33f12a8a6)" style="fill: #1f77b4"/>
   </g>
   <g id="patch_76">
    <path d="M 496.014545 332.12 
L 502.298182 332.12 
L 502.298182 252.958111 
L 496.014545 252.958111 
z
" clip-path="url(#pc33f12a8a6)" style="fill: #1f77b4"/>
   </g>
   <g id="patch_77">
    <path d="M 502.298182 332.12 
L 508.581818 332.12 
L 508.581818 249.684955 
L 502.298182 249.684955 
z
" clip-path="url(#pc33f12a8a6)" style="fill: #1f77b4"/>
   </g>
   <g id="patch_78">
    <path d="M 508.581818 332.12 
L 514.865455 332.12 
L 514.865455 243.259871 
L 508.581818 243.259871 
z
" clip-path="url(#pc33f12a8a6)" style="fill: #1f77b4"/>
   </g>
   <g id="patch_79">
    <path d="M 514.865455 332.12 
L 521.149091 332.12 
L 521.149091 242.04759 
L 514.865455 242.04759 
z
" clip-path="url(#pc33f12a8a6)" style="fill: #1f77b4"/>
   </g>
   <g id="patch_80">
    <path d="M 521.149091 332.12 
L 527.432727 332.12 
L 527.432727 286.538269 
L 521.149091 286.538269 
z
" clip-path="url(#pc33f12a8a6)" style="fill: #1f77b4"/>
   </g>
   <g id="patch_81">
    <path d="M 527.432727 332.12 
L 533.716364 332.12 
L 533.716364 239.62303 
L 527.432727 239.62303 
z
" clip-path="url(#pc33f12a8a6)" style="fill: #1f77b4"/>
   </g>
   <g id="patch_82">
    <path d="M 533.716364 332.12 
L 540 332.12 
L 540 239.138118 
L 533.716364 239.138118 
z
" clip-path="url(#pc33f12a8a6)" style="fill: #1f77b4"/>
   </g>
   <g id="patch_83">
    <path d="M 540 332.12 
L 546.283636 332.12 
L 546.283636 238.168294 
L 540 238.168294 
z
" clip-path="url(#pc33f12a8a6)" style="fill: #1f77b4"/>
   </g>
   <g id="patch_84">
    <path d="M 546.283636 332.12 
L 552.567273 332.12 
L 552.567273 237.19847 
L 546.283636 237.19847 
z
" clip-path="url(#pc33f12a8a6)" style="fill: #1f77b4"/>
   </g>
   <g id="patch_85">
    <path d="M 552.567273 332.12 
L 558.850909 332.12 
L 558.850909 283.992481 
L 552.567273 283.992481 
z
" clip-path="url(#pc33f12a8a6)" style="fill: #1f77b4"/>
   </g>
   <g id="patch_86">
    <path d="M 558.850909 332.12 
L 565.134545 332.12 
L 565.134545 215.983569 
L 558.850909 215.983569 
z
" clip-path="url(#pc33f12a8a6)" style="fill: #1f77b4"/>
   </g>
   <g id="patch_87">
    <path d="M 565.134545 332.12 
L 571.418182 332.12 
L 571.418182 206.527784 
L 565.134545 206.527784 
z
" clip-path="url(#pc33f12a8a6)" style="fill: #1f77b4"/>
   </g>
   <g id="patch_88">
    <path d="M 571.418182 332.12 
L 577.701818 332.12 
L 577.701818 193.313931 
L 571.418182 193.313931 
z
" clip-path="url(#pc33f12a8a6)" style="fill: #1f77b4"/>
   </g>
   <g id="patch_89">
    <path d="M 577.701818 332.12 
L 583.985455 332.12 
L 583.985455 173.796222 
L 577.701818 173.796222 
z
" clip-path="url(#pc33f12a8a6)" style="fill: #1f77b4"/>
   </g>
   <g id="patch_90">
    <path d="M 583.985455 332.12 
L 590.269091 332.12 
L 590.269091 168.098506 
L 583.985455 168.098506 
z
" clip-path="url(#pc33f12a8a6)" style="fill: #1f77b4"/>
   </g>
   <g id="patch_91">
    <path d="M 590.269091 332.12 
L 596.552727 332.12 
L 596.552727 243.017415 
L 590.269091 243.017415 
z
" clip-path="url(#pc33f12a8a6)" style="fill: #1f77b4"/>
   </g>
   <g id="patch_92">
    <path d="M 596.552727 332.12 
L 602.836364 332.12 
L 602.836364 140.700976 
L 596.552727 140.700976 
z
" clip-path="url(#pc33f12a8a6)" style="fill: #1f77b4"/>
   </g>
   <g id="patch_93">
    <path d="M 602.836364 332.12 
L 609.12 332.12 
L 609.12 134.518348 
L 602.836364 134.518348 
z
" clip-path="url(#pc33f12a8a6)" style="fill: #1f77b4"/>
   </g>
   <g id="patch_94">
    <path d="M 609.12 332.12 
L 615.403636 332.12 
L 615.403636 117.425199 
L 609.12 117.425199 
z
" clip-path="url(#pc33f12a8a6)" style="fill: #1f77b4"/>
   </g>
   <g id="patch_95">
    <path d="M 615.403636 332.12 
L 621.687273 332.12 
L 621.687273 106.757134 
L 615.403636 106.757134 
z
" clip-path="url(#pc33f12a8a6)" style="fill: #1f77b4"/>
   </g>
   <g id="patch_96">
    <path d="M 621.687273 332.12 
L 627.970909 332.12 
L 627.970909 217.680761 
L 621.687273 217.680761 
z
" clip-path="url(#pc33f12a8a6)" style="fill: #1f77b4"/>
   </g>
   <g id="patch_97">
    <path d="M 627.970909 332.12 
L 634.254545 332.12 
L 634.254545 91.239949 
L 627.970909 91.239949 
z
" clip-path="url(#pc33f12a8a6)" style="fill: #1f77b4"/>
   </g>
   <g id="patch_98">
    <path d="M 634.254545 332.12 
L 640.538182 332.12 
L 640.538182 84.208725 
L 634.254545 84.208725 
z
" clip-path="url(#pc33f12a8a6)" style="fill: #1f77b4"/>
   </g>
   <g id="patch_99">
    <path d="M 640.538182 332.12 
L 646.821818 332.12 
L 646.821818 74.874168 
L 640.538182 74.874168 
z
" clip-path="url(#pc33f12a8a6)" style="fill: #1f77b4"/>
   </g>
   <g id="patch_100">
    <path d="M 646.821818 332.12 
L 653.105455 332.12 
L 653.105455 61.781543 
L 646.821818 61.781543 
z
" clip-path="url(#pc33f12a8a6)" style="fill: #1f77b4"/>
   </g>
   <g id="patch_101">
    <path d="M 653.105455 332.12 
L 659.389091 332.12 
L 659.389091 57.538563 
L 653.105455 57.538563 
z
" clip-path="url(#pc33f12a8a6)" style="fill: #1f77b4"/>
   </g>
   <g id="patch_102">
    <path d="M 659.389091 332.12 
L 665.672727 332.12 
L 665.672727 191.859195 
L 659.389091 191.859195 
z
" clip-path="url(#pc33f12a8a6)" style="fill: #1f77b4"/>
   </g>
   <g id="patch_103">
    <path d="M 665.672727 332.12 
L 671.956364 332.12 
L 671.956364 47.234182 
L 665.672727 47.234182 
z
" clip-path="url(#pc33f12a8a6)" style="fill: #1f77b4"/>
   </g>
   <g id="patch_104">
    <path d="M 671.956364 332.12 
L 678.24 332.12 
L 678.24 43.71857 
L 671.956364 43.71857 
z
" clip-path="url(#pc33f12a8a6)" style="fill: #1f77b4"/>
   </g>
   <g id="patch_105">
    <path d="M 678.24 332.12 
L 684.523636 332.12 
L 684.523636 41.657694 
L 678.24 41.657694 
z
" clip-path="url(#pc33f12a8a6)" style="fill: #1f77b4"/>
   </g>
   <g id="patch_106">
    <path d="M 684.523636 332.12 
L 690.807273 332.12 
L 690.807273 41.415238 
L 684.523636 41.415238 
z
" clip-path="url(#pc33f12a8a6)" style="fill: #1f77b4"/>
   </g>
   <g id="patch_107">
    <path d="M 690.807273 332.12 
L 697.090909 332.12 
L 697.090909 41.415238 
L 690.807273 41.415238 
z
" clip-path="url(#pc33f12a8a6)" style="fill: #1f77b4"/>
   </g>
   <g id="matplotlib.axis_3">
    <g id="xtick_9">
     <g id="line2d_9">
      <g>
       <use xlink:href="#ma50063c358" x="389.814186" y="332.12" style="stroke: #000000; stroke-width: 0.8"/>
      </g>
     </g>
     <g id="text_10">
      <!-- 20 -->
      <g transform="translate(383.451686 346.718437) scale(0.1 -0.1)">
       <use xlink:href="#DejaVuSans-32"/>
       <use xlink:href="#DejaVuSans-30" transform="translate(63.623047 0)"/>
      </g>
     </g>
    </g>
    <g id="xtick_10">
     <g id="line2d_10">
      <g>
       <use xlink:href="#ma50063c358" x="458.865135" y="332.12" style="stroke: #000000; stroke-width: 0.8"/>
      </g>
     </g>
     <g id="text_11">
      <!-- 40 -->
      <g transform="translate(452.502635 346.718437) scale(0.1 -0.1)">
       <use xlink:href="#DejaVuSans-34"/>
       <use xlink:href="#DejaVuSans-30" transform="translate(63.623047 0)"/>
      </g>
     </g>
    </g>
    <g id="xtick_11">
     <g id="line2d_11">
      <g>
       <use xlink:href="#ma50063c358" x="527.916084" y="332.12" style="stroke: #000000; stroke-width: 0.8"/>
      </g>
     </g>
     <g id="text_12">
      <!-- 60 -->
      <g transform="translate(521.553584 346.718437) scale(0.1 -0.1)">
       <use xlink:href="#DejaVuSans-36"/>
       <use xlink:href="#DejaVuSans-30" transform="translate(63.623047 0)"/>
      </g>
     </g>
    </g>
    <g id="xtick_12">
     <g id="line2d_12">
      <g>
       <use xlink:href="#ma50063c358" x="596.967033" y="332.12" style="stroke: #000000; stroke-width: 0.8"/>
      </g>
     </g>
     <g id="text_13">
      <!-- 80 -->
      <g transform="translate(590.604533 346.718437) scale(0.1 -0.1)">
       <defs>
        <path id="DejaVuSans-38" d="M 2034 2216 
Q 1584 2216 1326 1975 
Q 1069 1734 1069 1313 
Q 1069 891 1326 650 
Q 1584 409 2034 409 
Q 2484 409 2743 651 
Q 3003 894 3003 1313 
Q 3003 1734 2745 1975 
Q 2488 2216 2034 2216 
z
M 1403 2484 
Q 997 2584 770 2862 
Q 544 3141 544 3541 
Q 544 4100 942 4425 
Q 1341 4750 2034 4750 
Q 2731 4750 3128 4425 
Q 3525 4100 3525 3541 
Q 3525 3141 3298 2862 
Q 3072 2584 2669 2484 
Q 3125 2378 3379 2068 
Q 3634 1759 3634 1313 
Q 3634 634 3220 271 
Q 2806 -91 2034 -91 
Q 1263 -91 848 271 
Q 434 634 434 1313 
Q 434 1759 690 2068 
Q 947 2378 1403 2484 
z
M 1172 3481 
Q 1172 3119 1398 2916 
Q 1625 2713 2034 2713 
Q 2441 2713 2670 2916 
Q 2900 3119 2900 3481 
Q 2900 3844 2670 4047 
Q 2441 4250 2034 4250 
Q 1625 4250 1398 4047 
Q 1172 3844 1172 3481 
z
" transform="scale(0.015625)"/>
       </defs>
       <use xlink:href="#DejaVuSans-38"/>
       <use xlink:href="#DejaVuSans-30" transform="translate(63.623047 0)"/>
      </g>
     </g>
    </g>
    <g id="xtick_13">
     <g id="line2d_13">
      <g>
       <use xlink:href="#ma50063c358" x="666.017982" y="332.12" style="stroke: #000000; stroke-width: 0.8"/>
      </g>
     </g>
     <g id="text_14">
      <!-- 100 -->
      <g transform="translate(656.474232 346.718437) scale(0.1 -0.1)">
       <use xlink:href="#DejaVuSans-31"/>
       <use xlink:href="#DejaVuSans-30" transform="translate(63.623047 0)"/>
       <use xlink:href="#DejaVuSans-30" transform="translate(127.246094 0)"/>
      </g>
     </g>
    </g>
   </g>
   <g id="matplotlib.axis_4"/>
   <g id="patch_108">
    <path d="M 367.2 332.12 
L 367.2 26.88 
" style="fill: none; stroke: #000000; stroke-width: 0.8; stroke-linejoin: miter; stroke-linecap: square"/>
   </g>
   <g id="patch_109">
    <path d="M 712.8 332.12 
L 712.8 26.88 
" style="fill: none; stroke: #000000; stroke-width: 0.8; stroke-linejoin: miter; stroke-linecap: square"/>
   </g>
   <g id="patch_110">
    <path d="M 367.2 332.12 
L 712.8 332.12 
" style="fill: none; stroke: #000000; stroke-width: 0.8; stroke-linejoin: miter; stroke-linecap: square"/>
   </g>
   <g id="patch_111">
    <path d="M 367.2 26.88 
L 712.8 26.88 
" style="fill: none; stroke: #000000; stroke-width: 0.8; stroke-linejoin: miter; stroke-linecap: square"/>
   </g>
   <g id="text_15">
    <!-- numeric__MonthlyCharges -->
    <g transform="translate(460.745625 20.88) scale(0.12 -0.12)">
     <defs>
      <path id="DejaVuSans-4d" d="M 628 4666 
L 1569 4666 
L 2759 1491 
L 3956 4666 
L 4897 4666 
L 4897 0 
L 4281 0 
L 4281 4097 
L 3078 897 
L 2444 897 
L 1241 4097 
L 1241 0 
L 628 0 
L 628 4666 
z
" transform="scale(0.015625)"/>
      <path id="DejaVuSans-6f" d="M 1959 3097 
Q 1497 3097 1228 2736 
Q 959 2375 959 1747 
Q 959 1119 1226 758 
Q 1494 397 1959 397 
Q 2419 397 2687 759 
Q 2956 1122 2956 1747 
Q 2956 2369 2687 2733 
Q 2419 3097 1959 3097 
z
M 1959 3584 
Q 2709 3584 3137 3096 
Q 3566 2609 3566 1747 
Q 3566 888 3137 398 
Q 2709 -91 1959 -91 
Q 1206 -91 779 398 
Q 353 888 353 1747 
Q 353 2609 779 3096 
Q 1206 3584 1959 3584 
z
" transform="scale(0.015625)"/>
      <path id="DejaVuSans-68" d="M 3513 2113 
L 3513 0 
L 2938 0 
L 2938 2094 
Q 2938 2591 2744 2837 
Q 2550 3084 2163 3084 
Q 1697 3084 1428 2787 
Q 1159 2491 1159 1978 
L 1159 0 
L 581 0 
L 581 4863 
L 1159 4863 
L 1159 2956 
Q 1366 3272 1645 3428 
Q 1925 3584 2291 3584 
Q 2894 3584 3203 3211 
Q 3513 2838 3513 2113 
z
" transform="scale(0.015625)"/>
      <path id="DejaVuSans-6c" d="M 603 4863 
L 1178 4863 
L 1178 0 
L 603 0 
L 603 4863 
z
" transform="scale(0.015625)"/>
      <path id="DejaVuSans-79" d="M 2059 -325 
Q 1816 -950 1584 -1140 
Q 1353 -1331 966 -1331 
L 506 -1331 
L 506 -850 
L 844 -850 
Q 1081 -850 1212 -737 
Q 1344 -625 1503 -206 
L 1606 56 
L 191 3500 
L 800 3500 
L 1894 763 
L 2988 3500 
L 3597 3500 
L 2059 -325 
z
" transform="scale(0.015625)"/>
      <path id="DejaVuSans-43" d="M 4122 4306 
L 4122 3641 
Q 3803 3938 3442 4084 
Q 3081 4231 2675 4231 
Q 1875 4231 1450 3742 
Q 1025 3253 1025 2328 
Q 1025 1406 1450 917 
Q 1875 428 2675 428 
Q 3081 428 3442 575 
Q 3803 722 4122 1019 
L 4122 359 
Q 3791 134 3420 21 
Q 3050 -91 2638 -91 
Q 1578 -91 968 557 
Q 359 1206 359 2328 
Q 359 3453 968 4101 
Q 1578 4750 2638 4750 
Q 3056 4750 3426 4639 
Q 3797 4528 4122 4306 
z
" transform="scale(0.015625)"/>
      <path id="DejaVuSans-61" d="M 2194 1759 
Q 1497 1759 1228 1600 
Q 959 1441 959 1056 
Q 959 750 1161 570 
Q 1363 391 1709 391 
Q 2188 391 2477 730 
Q 2766 1069 2766 1631 
L 2766 1759 
L 2194 1759 
z
M 3341 1997 
L 3341 0 
L 2766 0 
L 2766 531 
Q 2569 213 2275 61 
Q 1981 -91 1556 -91 
Q 1019 -91 701 211 
Q 384 513 384 1019 
Q 384 1609 779 1909 
Q 1175 2209 1959 2209 
L 2766 2209 
L 2766 2266 
Q 2766 2663 2505 2880 
Q 2244 3097 1772 3097 
Q 1472 3097 1187 3025 
Q 903 2953 641 2809 
L 641 3341 
Q 956 3463 1253 3523 
Q 1550 3584 1831 3584 
Q 2591 3584 2966 3190 
Q 3341 2797 3341 1997 
z
" transform="scale(0.015625)"/>
      <path id="DejaVuSans-67" d="M 2906 1791 
Q 2906 2416 2648 2759 
Q 2391 3103 1925 3103 
Q 1463 3103 1205 2759 
Q 947 2416 947 1791 
Q 947 1169 1205 825 
Q 1463 481 1925 481 
Q 2391 481 2648 825 
Q 2906 1169 2906 1791 
z
M 3481 434 
Q 3481 -459 3084 -895 
Q 2688 -1331 1869 -1331 
Q 1566 -1331 1297 -1286 
Q 1028 -1241 775 -1147 
L 775 -588 
Q 1028 -725 1275 -790 
Q 1522 -856 1778 -856 
Q 2344 -856 2625 -561 
Q 2906 -266 2906 331 
L 2906 616 
Q 2728 306 2450 153 
Q 2172 0 1784 0 
Q 1141 0 747 490 
Q 353 981 353 1791 
Q 353 2603 747 3093 
Q 1141 3584 1784 3584 
Q 2172 3584 2450 3431 
Q 2728 3278 2906 2969 
L 2906 3500 
L 3481 3500 
L 3481 434 
z
" transform="scale(0.015625)"/>
      <path id="DejaVuSans-73" d="M 2834 3397 
L 2834 2853 
Q 2591 2978 2328 3040 
Q 2066 3103 1784 3103 
Q 1356 3103 1142 2972 
Q 928 2841 928 2578 
Q 928 2378 1081 2264 
Q 1234 2150 1697 2047 
L 1894 2003 
Q 2506 1872 2764 1633 
Q 3022 1394 3022 966 
Q 3022 478 2636 193 
Q 2250 -91 1575 -91 
Q 1294 -91 989 -36 
Q 684 19 347 128 
L 347 722 
Q 666 556 975 473 
Q 1284 391 1588 391 
Q 1994 391 2212 530 
Q 2431 669 2431 922 
Q 2431 1156 2273 1281 
Q 2116 1406 1581 1522 
L 1381 1569 
Q 847 1681 609 1914 
Q 372 2147 372 2553 
Q 372 3047 722 3315 
Q 1072 3584 1716 3584 
Q 2034 3584 2315 3537 
Q 2597 3491 2834 3397 
z
" transform="scale(0.015625)"/>
     </defs>
     <use xlink:href="#DejaVuSans-6e"/>
     <use xlink:href="#DejaVuSans-75" transform="translate(63.378906 0)"/>
     <use xlink:href="#DejaVuSans-6d" transform="translate(126.757812 0)"/>
     <use xlink:href="#DejaVuSans-65" transform="translate(224.169922 0)"/>
     <use xlink:href="#DejaVuSans-72" transform="translate(285.693359 0)"/>
     <use xlink:href="#DejaVuSans-69" transform="translate(326.806641 0)"/>
     <use xlink:href="#DejaVuSans-63" transform="translate(354.589844 0)"/>
     <use xlink:href="#DejaVuSans-5f" transform="translate(409.570312 0)"/>
     <use xlink:href="#DejaVuSans-5f" transform="translate(459.570312 0)"/>
     <use xlink:href="#DejaVuSans-4d" transform="translate(509.570312 0)"/>
     <use xlink:href="#DejaVuSans-6f" transform="translate(595.849609 0)"/>
     <use xlink:href="#DejaVuSans-6e" transform="translate(657.03125 0)"/>
     <use xlink:href="#DejaVuSans-74" transform="translate(720.410156 0)"/>
     <use xlink:href="#DejaVuSans-68" transform="translate(759.619141 0)"/>
     <use xlink:href="#DejaVuSans-6c" transform="translate(822.998047 0)"/>
     <use xlink:href="#DejaVuSans-79" transform="translate(850.78125 0)"/>
     <use xlink:href="#DejaVuSans-43" transform="translate(909.960938 0)"/>
     <use xlink:href="#DejaVuSans-68" transform="translate(979.785156 0)"/>
     <use xlink:href="#DejaVuSans-61" transform="translate(1043.164062 0)"/>
     <use xlink:href="#DejaVuSans-72" transform="translate(1104.443359 0)"/>
     <use xlink:href="#DejaVuSans-67" transform="translate(1143.806641 0)"/>
     <use xlink:href="#DejaVuSans-65" transform="translate(1207.283203 0)"/>
     <use xlink:href="#DejaVuSans-73" transform="translate(1268.806641 0)"/>
    </g>
   </g>
  </g>
  <g id="axes_3">
   <g id="patch_112">
    <path d="M 723.6 332.12 
L 1069.2 332.12 
L 1069.2 26.88 
L 723.6 26.88 
z
" style="fill: #ffffff"/>
   </g>
   <g id="patch_113">
    <path d="M 739.309091 332.12 
L 745.592727 332.12 
L 745.592727 261.21544 
L 739.309091 261.21544 
z
" clip-path="url(#p91e33898ab)" style="fill: #1f77b4"/>
   </g>
   <g id="patch_114">
    <path d="M 745.592727 332.12 
L 751.876364 332.12 
L 751.876364 201.443325 
L 745.592727 201.443325 
z
" clip-path="url(#p91e33898ab)" style="fill: #1f77b4"/>
   </g>
   <g id="patch_115">
    <path d="M 751.876364 332.12 
L 758.16 332.12 
L 758.16 174.245258 
L 751.876364 174.245258 
z
" clip-path="url(#p91e33898ab)" style="fill: #1f77b4"/>
   </g>
   <g id="patch_116">
    <path d="M 758.16 332.12 
L 764.443636 332.12 
L 764.443636 155.378485 
L 758.16 155.378485 
z
" clip-path="url(#p91e33898ab)" style="fill: #1f77b4"/>
   </g>
   <g id="patch_117">
    <path d="M 764.443636 332.12 
L 770.727273 332.12 
L 770.727273 140.962722 
L 764.443636 140.962722 
z
" clip-path="url(#p91e33898ab)" style="fill: #1f77b4"/>
   </g>
   <g id="patch_118">
    <path d="M 770.727273 332.12 
L 777.010909 332.12 
L 777.010909 127.832734 
L 770.727273 127.832734 
z
" clip-path="url(#p91e33898ab)" style="fill: #1f77b4"/>
   </g>
   <g id="patch_119">
    <path d="M 777.010909 332.12 
L 783.294545 332.12 
L 783.294545 116.168922 
L 777.010909 116.168922 
z
" clip-path="url(#p91e33898ab)" style="fill: #1f77b4"/>
   </g>
   <g id="patch_120">
    <path d="M 783.294545 332.12 
L 789.578182 332.12 
L 789.578182 106.343571 
L 783.294545 106.343571 
z
" clip-path="url(#p91e33898ab)" style="fill: #1f77b4"/>
   </g>
   <g id="patch_121">
    <path d="M 789.578182 332.12 
L 795.861818 332.12 
L 795.861818 98.143479 
L 789.578182 98.143479 
z
" clip-path="url(#p91e33898ab)" style="fill: #1f77b4"/>
   </g>
   <g id="patch_122">
    <path d="M 795.861818 332.12 
L 802.145455 332.12 
L 802.145455 92.728137 
L 795.861818 92.728137 
z
" clip-path="url(#p91e33898ab)" style="fill: #1f77b4"/>
   </g>
   <g id="patch_123">
    <path d="M 802.145455 332.12 
L 808.429091 332.12 
L 808.429091 86.117223 
L 802.145455 86.117223 
z
" clip-path="url(#p91e33898ab)" style="fill: #1f77b4"/>
   </g>
   <g id="patch_124">
    <path d="M 808.429091 332.12 
L 814.712727 332.12 
L 814.712727 82.612503 
L 808.429091 82.612503 
z
" clip-path="url(#p91e33898ab)" style="fill: #1f77b4"/>
   </g>
   <g id="patch_125">
    <path d="M 814.712727 332.12 
L 820.996364 332.12 
L 820.996364 77.415285 
L 814.712727 77.415285 
z
" clip-path="url(#p91e33898ab)" style="fill: #1f77b4"/>
   </g>
   <g id="patch_126">
    <path d="M 820.996364 332.12 
L 827.28 332.12 
L 827.28 76.585435 
L 820.996364 76.585435 
z
" clip-path="url(#p91e33898ab)" style="fill: #1f77b4"/>
   </g>
   <g id="patch_127">
    <path d="M 827.28 332.12 
L 833.563636 332.12 
L 833.563636 73.762963 
L 827.28 73.762963 
z
" clip-path="url(#p91e33898ab)" style="fill: #1f77b4"/>
   </g>
   <g id="patch_128">
    <path d="M 833.563636 332.12 
L 839.847273 332.12 
L 839.847273 69.288993 
L 833.563636 69.288993 
z
" clip-path="url(#p91e33898ab)" style="fill: #1f77b4"/>
   </g>
   <g id="patch_129">
    <path d="M 839.847273 332.12 
L 846.130909 332.12 
L 846.130909 64.821582 
L 839.847273 64.821582 
z
" clip-path="url(#p91e33898ab)" style="fill: #1f77b4"/>
   </g>
   <g id="patch_130">
    <path d="M 846.130909 332.12 
L 852.414545 332.12 
L 852.414545 62.151632 
L 846.130909 62.151632 
z
" clip-path="url(#p91e33898ab)" style="fill: #1f77b4"/>
   </g>
   <g id="patch_131">
    <path d="M 852.414545 332.12 
L 858.698182 332.12 
L 858.698182 59.242239 
L 852.414545 59.242239 
z
" clip-path="url(#p91e33898ab)" style="fill: #1f77b4"/>
   </g>
   <g id="patch_132">
    <path d="M 858.698182 332.12 
L 864.981818 332.12 
L 864.981818 57.083975 
L 858.698182 57.083975 
z
" clip-path="url(#p91e33898ab)" style="fill: #1f77b4"/>
   </g>
   <g id="patch_133">
    <path d="M 864.981818 332.12 
L 871.265455 332.12 
L 871.265455 54.502586 
L 864.981818 54.502586 
z
" clip-path="url(#p91e33898ab)" style="fill: #1f77b4"/>
   </g>
   <g id="patch_134">
    <path d="M 871.265455 332.12 
L 877.549091 332.12 
L 877.549091 52.032718 
L 871.265455 52.032718 
z
" clip-path="url(#p91e33898ab)" style="fill: #1f77b4"/>
   </g>
   <g id="patch_135">
    <path d="M 877.549091 332.12 
L 883.832727 332.12 
L 883.832727 51.427551 
L 877.549091 51.427551 
z
" clip-path="url(#p91e33898ab)" style="fill: #1f77b4"/>
   </g>
   <g id="patch_136">
    <path d="M 883.832727 332.12 
L 890.116364 332.12 
L 890.116364 50.354979 
L 883.832727 50.354979 
z
" clip-path="url(#p91e33898ab)" style="fill: #1f77b4"/>
   </g>
   <g id="patch_137">
    <path d="M 890.116364 332.12 
L 896.4 332.12 
L 896.4 47.581708 
L 890.116364 47.581708 
z
" clip-path="url(#p91e33898ab)" style="fill: #1f77b4"/>
   </g>
   <g id="patch_138">
    <path d="M 896.4 332.12 
L 902.683636 332.12 
L 902.683636 48.501758 
L 896.4 48.501758 
z
" clip-path="url(#p91e33898ab)" style="fill: #1f77b4"/>
   </g>
   <g id="patch_139">
    <path d="M 902.683636 332.12 
L 908.967273 332.12 
L 908.967273 48.091753 
L 902.683636 48.091753 
z
" clip-path="url(#p91e33898ab)" style="fill: #1f77b4"/>
   </g>
   <g id="patch_140">
    <path d="M 908.967273 332.12 
L 915.250909 332.12 
L 915.250909 47.376705 
L 908.967273 47.376705 
z
" clip-path="url(#p91e33898ab)" style="fill: #1f77b4"/>
   </g>
   <g id="patch_141">
    <path d="M 915.250909 332.12 
L 921.534545 332.12 
L 921.534545 46.195892 
L 915.250909 46.195892 
z
" clip-path="url(#p91e33898ab)" style="fill: #1f77b4"/>
   </g>
   <g id="patch_142">
    <path d="M 921.534545 332.12 
L 927.818182 332.12 
L 927.818182 45.246321 
L 921.534545 45.246321 
z
" clip-path="url(#p91e33898ab)" style="fill: #1f77b4"/>
   </g>
   <g id="patch_143">
    <path d="M 927.818182 332.12 
L 934.101818 332.12 
L 934.101818 44.937998 
L 927.818182 44.937998 
z
" clip-path="url(#p91e33898ab)" style="fill: #1f77b4"/>
   </g>
   <g id="patch_144">
    <path d="M 934.101818 332.12 
L 940.385455 332.12 
L 940.385455 44.749396 
L 934.101818 44.749396 
z
" clip-path="url(#p91e33898ab)" style="fill: #1f77b4"/>
   </g>
   <g id="patch_145">
    <path d="M 940.385455 332.12 
L 946.669091 332.12 
L 946.669091 44.24919 
L 940.385455 44.24919 
z
" clip-path="url(#p91e33898ab)" style="fill: #1f77b4"/>
   </g>
   <g id="patch_146">
    <path d="M 946.669091 332.12 
L 952.952727 332.12 
L 952.952727 43.785065 
L 946.669091 43.785065 
z
" clip-path="url(#p91e33898ab)" style="fill: #1f77b4"/>
   </g>
   <g id="patch_147">
    <path d="M 952.952727 332.12 
L 959.236364 332.12 
L 959.236364 43.755545 
L 952.952727 43.755545 
z
" clip-path="url(#p91e33898ab)" style="fill: #1f77b4"/>
   </g>
   <g id="patch_148">
    <path d="M 959.236364 332.12 
L 965.52 332.12 
L 965.52 43.543982 
L 959.236364 43.543982 
z
" clip-path="url(#p91e33898ab)" style="fill: #1f77b4"/>
   </g>
   <g id="patch_149">
    <path d="M 965.52 332.12 
L 971.803636 332.12 
L 971.803636 43.543982 
L 965.52 43.543982 
z
" clip-path="url(#p91e33898ab)" style="fill: #1f77b4"/>
   </g>
   <g id="patch_150">
    <path d="M 971.803636 332.12 
L 978.087273 332.12 
L 978.087273 41.415238 
L 971.803636 41.415238 
z
" clip-path="url(#p91e33898ab)" style="fill: #1f77b4"/>
   </g>
   <g id="patch_151">
    <path d="M 978.087273 332.12 
L 984.370909 332.12 
L 984.370909 43.302899 
L 978.087273 43.302899 
z
" clip-path="url(#p91e33898ab)" style="fill: #1f77b4"/>
   </g>
   <g id="patch_152">
    <path d="M 984.370909 332.12 
L 990.654545 332.12 
L 990.654545 43.302899 
L 984.370909 43.302899 
z
" clip-path="url(#p91e33898ab)" style="fill: #1f77b4"/>
   </g>
   <g id="patch_153">
    <path d="M 990.654545 332.12 
L 996.938182 332.12 
L 996.938182 43.302899 
L 990.654545 43.302899 
z
" clip-path="url(#p91e33898ab)" style="fill: #1f77b4"/>
   </g>
   <g id="patch_154">
    <path d="M 996.938182 332.12 
L 1003.221818 332.12 
L 1003.221818 43.302899 
L 996.938182 43.302899 
z
" clip-path="url(#p91e33898ab)" style="fill: #1f77b4"/>
   </g>
   <g id="patch_155">
    <path d="M 1003.221818 332.12 
L 1009.505455 332.12 
L 1009.505455 43.302899 
L 1003.221818 43.302899 
z
" clip-path="url(#p91e33898ab)" style="fill: #1f77b4"/>
   </g>
   <g id="patch_156">
    <path d="M 1009.505455 332.12 
L 1015.789091 332.12 
L 1015.789091 43.302899 
L 1009.505455 43.302899 
z
" clip-path="url(#p91e33898ab)" style="fill: #1f77b4"/>
   </g>
   <g id="patch_157">
    <path d="M 1015.789091 332.12 
L 1022.072727 332.12 
L 1022.072727 43.302899 
L 1015.789091 43.302899 
z
" clip-path="url(#p91e33898ab)" style="fill: #1f77b4"/>
   </g>
   <g id="patch_158">
    <path d="M 1022.072727 332.12 
L 1028.356364 332.12 
L 1028.356364 43.302899 
L 1022.072727 43.302899 
z
" clip-path="url(#p91e33898ab)" style="fill: #1f77b4"/>
   </g>
   <g id="patch_159">
    <path d="M 1028.356364 332.12 
L 1034.64 332.12 
L 1034.64 43.302899 
L 1028.356364 43.302899 
z
" clip-path="url(#p91e33898ab)" style="fill: #1f77b4"/>
   </g>
   <g id="patch_160">
    <path d="M 1034.64 332.12 
L 1040.923636 332.12 
L 1040.923636 43.302899 
L 1034.64 43.302899 
z
" clip-path="url(#p91e33898ab)" style="fill: #1f77b4"/>
   </g>
   <g id="patch_161">
    <path d="M 1040.923636 332.12 
L 1047.207273 332.12 
L 1047.207273 265.130164 
L 1040.923636 265.130164 
z
" clip-path="url(#p91e33898ab)" style="fill: #1f77b4"/>
   </g>
   <g id="patch_162">
    <path d="M 1047.207273 332.12 
L 1053.490909 332.12 
L 1053.490909 331.877277 
L 1047.207273 331.877277 
z
" clip-path="url(#p91e33898ab)" style="fill: #1f77b4"/>
   </g>
   <g id="matplotlib.axis_5">
    <g id="xtick_14">
     <g id="line2d_14">
      <g>
       <use xlink:href="#ma50063c358" x="738.497362" y="332.12" style="stroke: #000000; stroke-width: 0.8"/>
      </g>
     </g>
     <g id="text_16">
      <!-- 0 -->
      <g transform="translate(735.316112 346.718437) scale(0.1 -0.1)">
       <use xlink:href="#DejaVuSans-30"/>
      </g>
     </g>
    </g>
    <g id="xtick_15">
     <g id="line2d_15">
      <g>
       <use xlink:href="#ma50063c358" x="781.219937" y="332.12" style="stroke: #000000; stroke-width: 0.8"/>
      </g>
     </g>
     <g id="text_17">
      <!-- 1000 -->
      <g transform="translate(768.494937 346.718437) scale(0.1 -0.1)">
       <use xlink:href="#DejaVuSans-31"/>
       <use xlink:href="#DejaVuSans-30" transform="translate(63.623047 0)"/>
       <use xlink:href="#DejaVuSans-30" transform="translate(127.246094 0)"/>
       <use xlink:href="#DejaVuSans-30" transform="translate(190.869141 0)"/>
      </g>
     </g>
    </g>
    <g id="xtick_16">
     <g id="line2d_16">
      <g>
       <use xlink:href="#ma50063c358" x="823.942512" y="332.12" style="stroke: #000000; stroke-width: 0.8"/>
      </g>
     </g>
     <g id="text_18">
      <!-- 2000 -->
      <g transform="translate(811.217512 346.718437) scale(0.1 -0.1)">
       <use xlink:href="#DejaVuSans-32"/>
       <use xlink:href="#DejaVuSans-30" transform="translate(63.623047 0)"/>
       <use xlink:href="#DejaVuSans-30" transform="translate(127.246094 0)"/>
       <use xlink:href="#DejaVuSans-30" transform="translate(190.869141 0)"/>
      </g>
     </g>
    </g>
    <g id="xtick_17">
     <g id="line2d_17">
      <g>
       <use xlink:href="#ma50063c358" x="866.665088" y="332.12" style="stroke: #000000; stroke-width: 0.8"/>
      </g>
     </g>
     <g id="text_19">
      <!-- 3000 -->
      <g transform="translate(853.940088 346.718437) scale(0.1 -0.1)">
       <use xlink:href="#DejaVuSans-33"/>
       <use xlink:href="#DejaVuSans-30" transform="translate(63.623047 0)"/>
       <use xlink:href="#DejaVuSans-30" transform="translate(127.246094 0)"/>
       <use xlink:href="#DejaVuSans-30" transform="translate(190.869141 0)"/>
      </g>
     </g>
    </g>
    <g id="xtick_18">
     <g id="line2d_18">
      <g>
       <use xlink:href="#ma50063c358" x="909.387663" y="332.12" style="stroke: #000000; stroke-width: 0.8"/>
      </g>
     </g>
     <g id="text_20">
      <!-- 4000 -->
      <g transform="translate(896.662663 346.718437) scale(0.1 -0.1)">
       <use xlink:href="#DejaVuSans-34"/>
       <use xlink:href="#DejaVuSans-30" transform="translate(63.623047 0)"/>
       <use xlink:href="#DejaVuSans-30" transform="translate(127.246094 0)"/>
       <use xlink:href="#DejaVuSans-30" transform="translate(190.869141 0)"/>
      </g>
     </g>
    </g>
    <g id="xtick_19">
     <g id="line2d_19">
      <g>
       <use xlink:href="#ma50063c358" x="952.110238" y="332.12" style="stroke: #000000; stroke-width: 0.8"/>
      </g>
     </g>
     <g id="text_21">
      <!-- 5000 -->
      <g transform="translate(939.385238 346.718437) scale(0.1 -0.1)">
       <use xlink:href="#DejaVuSans-35"/>
       <use xlink:href="#DejaVuSans-30" transform="translate(63.623047 0)"/>
       <use xlink:href="#DejaVuSans-30" transform="translate(127.246094 0)"/>
       <use xlink:href="#DejaVuSans-30" transform="translate(190.869141 0)"/>
      </g>
     </g>
    </g>
    <g id="xtick_20">
     <g id="line2d_20">
      <g>
       <use xlink:href="#ma50063c358" x="994.832813" y="332.12" style="stroke: #000000; stroke-width: 0.8"/>
      </g>
     </g>
     <g id="text_22">
      <!-- 6000 -->
      <g transform="translate(982.107813 346.718437) scale(0.1 -0.1)">
       <use xlink:href="#DejaVuSans-36"/>
       <use xlink:href="#DejaVuSans-30" transform="translate(63.623047 0)"/>
       <use xlink:href="#DejaVuSans-30" transform="translate(127.246094 0)"/>
       <use xlink:href="#DejaVuSans-30" transform="translate(190.869141 0)"/>
      </g>
     </g>
    </g>
    <g id="xtick_21">
     <g id="line2d_21">
      <g>
       <use xlink:href="#ma50063c358" x="1037.555389" y="332.12" style="stroke: #000000; stroke-width: 0.8"/>
      </g>
     </g>
     <g id="text_23">
      <!-- 7000 -->
      <g transform="translate(1024.830389 346.718437) scale(0.1 -0.1)">
       <use xlink:href="#DejaVuSans-37"/>
       <use xlink:href="#DejaVuSans-30" transform="translate(63.623047 0)"/>
       <use xlink:href="#DejaVuSans-30" transform="translate(127.246094 0)"/>
       <use xlink:href="#DejaVuSans-30" transform="translate(190.869141 0)"/>
      </g>
     </g>
    </g>
   </g>
   <g id="matplotlib.axis_6"/>
   <g id="patch_163">
    <path d="M 723.6 332.12 
L 723.6 26.88 
" style="fill: none; stroke: #000000; stroke-width: 0.8; stroke-linejoin: miter; stroke-linecap: square"/>
   </g>
   <g id="patch_164">
    <path d="M 1069.2 332.12 
L 1069.2 26.88 
" style="fill: none; stroke: #000000; stroke-width: 0.8; stroke-linejoin: miter; stroke-linecap: square"/>
   </g>
   <g id="patch_165">
    <path d="M 723.6 332.12 
L 1069.2 332.12 
" style="fill: none; stroke: #000000; stroke-width: 0.8; stroke-linejoin: miter; stroke-linecap: square"/>
   </g>
   <g id="patch_166">
    <path d="M 723.6 26.88 
L 1069.2 26.88 
" style="fill: none; stroke: #000000; stroke-width: 0.8; stroke-linejoin: miter; stroke-linecap: square"/>
   </g>
   <g id="text_24">
    <!-- numeric__TotalCharges -->
    <g transform="translate(827.157187 20.88) scale(0.12 -0.12)">
     <defs>
      <path id="DejaVuSans-54" d="M -19 4666 
L 3928 4666 
L 3928 4134 
L 2272 4134 
L 2272 0 
L 1638 0 
L 1638 4134 
L -19 4134 
L -19 4666 
z
" transform="scale(0.015625)"/>
     </defs>
     <use xlink:href="#DejaVuSans-6e"/>
     <use xlink:href="#DejaVuSans-75" transform="translate(63.378906 0)"/>
     <use xlink:href="#DejaVuSans-6d" transform="translate(126.757812 0)"/>
     <use xlink:href="#DejaVuSans-65" transform="translate(224.169922 0)"/>
     <use xlink:href="#DejaVuSans-72" transform="translate(285.693359 0)"/>
     <use xlink:href="#DejaVuSans-69" transform="translate(326.806641 0)"/>
     <use xlink:href="#DejaVuSans-63" transform="translate(354.589844 0)"/>
     <use xlink:href="#DejaVuSans-5f" transform="translate(409.570312 0)"/>
     <use xlink:href="#DejaVuSans-5f" transform="translate(459.570312 0)"/>
     <use xlink:href="#DejaVuSans-54" transform="translate(509.570312 0)"/>
     <use xlink:href="#DejaVuSans-6f" transform="translate(553.654297 0)"/>
     <use xlink:href="#DejaVuSans-74" transform="translate(614.835938 0)"/>
     <use xlink:href="#DejaVuSans-61" transform="translate(654.044922 0)"/>
     <use xlink:href="#DejaVuSans-6c" transform="translate(715.324219 0)"/>
     <use xlink:href="#DejaVuSans-43" transform="translate(743.107422 0)"/>
     <use xlink:href="#DejaVuSans-68" transform="translate(812.931641 0)"/>
     <use xlink:href="#DejaVuSans-61" transform="translate(876.310547 0)"/>
     <use xlink:href="#DejaVuSans-72" transform="translate(937.589844 0)"/>
     <use xlink:href="#DejaVuSans-67" transform="translate(976.953125 0)"/>
     <use xlink:href="#DejaVuSans-65" transform="translate(1040.429688 0)"/>
     <use xlink:href="#DejaVuSans-73" transform="translate(1101.953125 0)"/>
    </g>
   </g>
  </g>
 </g>
 <defs>
  <clipPath id="pe275d62c01">
   <rect x="10.8" y="26.88" width="345.6" height="305.24"/>
  </clipPath>
  <clipPath id="pc33f12a8a6">
   <rect x="367.2" y="26.88" width="345.6" height="305.24"/>
  </clipPath>
  <clipPath id="p91e33898ab">
   <rect x="723.6" y="26.88" width="345.6" height="305.24"/>
  </clipPath>
 </defs>
</svg>
