<?xml version="1.0" encoding="utf-8" standalone="no"?>
<!DOCTYPE svg PUBLIC "-//W3C//DTD SVG 1.1//EN"
  "http://www.w3.org/Graphics/SVG/1.1/DTD/svg11.dtd">
<svg xmlns:xlink="http://www.w3.org/1999/xlink" width="1080pt" height="360pt" viewBox="0 0 1080 360" xmlns="http://www.w3.org/2000/svg" version="1.1">
 <metadata>
  <rdf:RDF xmlns:dc="http://purl.org/dc/elements/1.1/" xmlns:cc="http://creativecommons.org/ns#" xmlns:rdf="http://www.w3.org/1999/02/22-rdf-syntax-ns#">
   <cc:Work>
    <dc:type rdf:resource="http://purl.org/dc/dcmitype/StillImage"/>
    <dc:date>2025-11-30T23:06:50.817896</dc:date>
    <dc:format>image/svg+xml</dc:format>
    <dc:creator>
     <cc:Agent>
      <dc:title>Matplotlib v3.10.0, https://matplotlib.org/</dc:title>
     </cc:Agent>
    </dc:creator>
   </cc:Work>
  </rdf:RDF>
 </metadata>
 <defs>
  <style type="text/css">*{stroke-linejoin: round; stroke-linecap: butt}</style>
 </defs>
 <g id="figure_1">
  <g id="patch_1">
   <path d="M 0 360 
L 1080 360 
L 1080 0 
L 0 0 
z
" style="fill: #ffffff"/>
  </g>
  <g id="axes_1">
   <g id="patch_2">
    <path d="M 12.490456 332.12 
L 357.52697 332.12 
L 357.52697 26.88 
L 12.490456 26.88 
z
" style="fill: #ffffff"/>
   </g>
   <g id="patch_3">
    <path d="M 28.173934 332.12 
L 34.447325 332.12 
L 34.447325 290.590748 
L 28.173934 290.590748 
z
" clip-path="url(#p214e0b9c36)" style="fill: #1f77b4"/>
   </g>
   <g id="patch_4">
    <path d="M 34.447325 332.12 
L 40.720716 332.12 
L 40.720716 311.355374 
L 34.447325 311.355374 
z
" clip-path="url(#p214e0b9c36)" style="fill: #1f77b4"/>
   </g>
   <g id="patch_5">
    <path d="M 40.720716 332.12 
L 46.994107 332.12 
L 46.994107 290.590748 
L 40.720716 290.590748 
z
" clip-path="url(#p214e0b9c36)" style="fill: #1f77b4"/>
   </g>
   <g id="patch_6">
    <path d="M 46.994107 332.12 
L 53.267498 332.12 
L 53.267498 311.355374 
L 46.994107 311.355374 
z
" clip-path="url(#p214e0b9c36)" style="fill: #1f77b4"/>
   </g>
   <g id="patch_7">
    <path d="M 53.267498 332.12 
L 59.54089 332.12 
L 59.54089 311.355374 
L 53.267498 311.355374 
z
" clip-path="url(#p214e0b9c36)" style="fill: #1f77b4"/>
   </g>
   <g id="patch_8">
    <path d="M 59.54089 332.12 
L 65.814281 332.12 
L 65.814281 290.590748 
L 59.54089 290.590748 
z
" clip-path="url(#p214e0b9c36)" style="fill: #1f77b4"/>
   </g>
   <g id="patch_9">
    <path d="M 65.814281 332.12 
L 72.087672 332.12 
L 72.087672 311.355374 
L 65.814281 311.355374 
z
" clip-path="url(#p214e0b9c36)" style="fill: #1f77b4"/>
   </g>
   <g id="patch_10">
    <path d="M 72.087672 332.12 
L 78.361063 332.12 
L 78.361063 290.590748 
L 72.087672 290.590748 
z
" clip-path="url(#p214e0b9c36)" style="fill: #1f77b4"/>
   </g>
   <g id="patch_11">
    <path d="M 78.361063 332.12 
L 84.634454 332.12 
L 84.634454 311.355374 
L 78.361063 311.355374 
z
" clip-path="url(#p214e0b9c36)" style="fill: #1f77b4"/>
   </g>
   <g id="patch_12">
    <path d="M 84.634454 332.12 
L 90.907845 332.12 
L 90.907845 311.355374 
L 84.634454 311.355374 
z
" clip-path="url(#p214e0b9c36)" style="fill: #1f77b4"/>
   </g>
   <g id="patch_13">
    <path d="M 90.907845 332.12 
L 97.181237 332.12 
L 97.181237 290.590748 
L 90.907845 290.590748 
z
" clip-path="url(#p214e0b9c36)" style="fill: #1f77b4"/>
   </g>
   <g id="patch_14">
    <path d="M 97.181237 332.12 
L 103.454628 332.12 
L 103.454628 311.355374 
L 97.181237 311.355374 
z
" clip-path="url(#p214e0b9c36)" style="fill: #1f77b4"/>
   </g>
   <g id="patch_15">
    <path d="M 103.454628 332.12 
L 109.728019 332.12 
L 109.728019 311.355374 
L 103.454628 311.355374 
z
" clip-path="url(#p214e0b9c36)" style="fill: #1f77b4"/>
   </g>
   <g id="patch_16">
    <path d="M 109.728019 332.12 
L 116.00141 332.12 
L 116.00141 249.061497 
L 109.728019 249.061497 
z
" clip-path="url(#p214e0b9c36)" style="fill: #1f77b4"/>
   </g>
   <g id="patch_17">
    <path d="M 116.00141 332.12 
L 122.274801 332.12 
L 122.274801 290.590748 
L 116.00141 290.590748 
z
" clip-path="url(#p214e0b9c36)" style="fill: #1f77b4"/>
   </g>
   <g id="patch_18">
    <path d="M 122.274801 332.12 
L 128.548192 332.12 
L 128.548192 166.002993 
L 122.274801 166.002993 
z
" clip-path="url(#p214e0b9c36)" style="fill: #1f77b4"/>
   </g>
   <g id="patch_19">
    <path d="M 128.548192 332.12 
L 134.821584 332.12 
L 134.821584 228.296871 
L 128.548192 228.296871 
z
" clip-path="url(#p214e0b9c36)" style="fill: #1f77b4"/>
   </g>
   <g id="patch_20">
    <path d="M 134.821584 332.12 
L 141.094975 332.12 
L 141.094975 207.532245 
L 134.821584 207.532245 
z
" clip-path="url(#p214e0b9c36)" style="fill: #1f77b4"/>
   </g>
   <g id="patch_21">
    <path d="M 141.094975 332.12 
L 147.368366 332.12 
L 147.368366 82.94449 
L 141.094975 82.94449 
z
" clip-path="url(#p214e0b9c36)" style="fill: #1f77b4"/>
   </g>
   <g id="patch_22">
    <path d="M 147.368366 332.12 
L 153.641757 332.12 
L 153.641757 186.767619 
L 147.368366 186.767619 
z
" clip-path="url(#p214e0b9c36)" style="fill: #1f77b4"/>
   </g>
   <g id="patch_23">
    <path d="M 153.641757 332.12 
L 159.915148 332.12 
L 159.915148 186.767619 
L 153.641757 186.767619 
z
" clip-path="url(#p214e0b9c36)" style="fill: #1f77b4"/>
   </g>
   <g id="patch_24">
    <path d="M 159.915148 332.12 
L 166.18854 332.12 
L 166.18854 41.415238 
L 159.915148 41.415238 
z
" clip-path="url(#p214e0b9c36)" style="fill: #1f77b4"/>
   </g>
   <g id="patch_25">
    <path d="M 166.18854 332.12 
L 172.461931 332.12 
L 172.461931 186.767619 
L 166.18854 186.767619 
z
" clip-path="url(#p214e0b9c36)" style="fill: #1f77b4"/>
   </g>
   <g id="patch_26">
    <path d="M 172.461931 332.12 
L 178.735322 332.12 
L 178.735322 41.415238 
L 172.461931 41.415238 
z
" clip-path="url(#p214e0b9c36)" style="fill: #1f77b4"/>
   </g>
   <g id="patch_27">
    <path d="M 178.735322 332.12 
L 185.008713 332.12 
L 185.008713 186.767619 
L 178.735322 186.767619 
z
" clip-path="url(#p214e0b9c36)" style="fill: #1f77b4"/>
   </g>
   <g id="patch_28">
    <path d="M 185.008713 332.12 
L 191.282104 332.12 
L 191.282104 186.767619 
L 185.008713 186.767619 
z
" clip-path="url(#p214e0b9c36)" style="fill: #1f77b4"/>
   </g>
   <g id="patch_29">
    <path d="M 191.282104 332.12 
L 197.555495 332.12 
L 197.555495 41.415238 
L 191.282104 41.415238 
z
" clip-path="url(#p214e0b9c36)" style="fill: #1f77b4"/>
   </g>
   <g id="patch_30">
    <path d="M 197.555495 332.12 
L 203.828887 332.12 
L 203.828887 186.767619 
L 197.555495 186.767619 
z
" clip-path="url(#p214e0b9c36)" style="fill: #1f77b4"/>
   </g>
   <g id="patch_31">
    <path d="M 203.828887 332.12 
L 210.102278 332.12 
L 210.102278 41.415238 
L 203.828887 41.415238 
z
" clip-path="url(#p214e0b9c36)" style="fill: #1f77b4"/>
   </g>
   <g id="patch_32">
    <path d="M 210.102278 332.12 
L 216.375669 332.12 
L 216.375669 186.767619 
L 210.102278 186.767619 
z
" clip-path="url(#p214e0b9c36)" style="fill: #1f77b4"/>
   </g>
   <g id="patch_33">
    <path d="M 216.375669 332.12 
L 222.64906 332.12 
L 222.64906 186.767619 
L 216.375669 186.767619 
z
" clip-path="url(#p214e0b9c36)" style="fill: #1f77b4"/>
   </g>
   <g id="patch_34">
    <path d="M 222.64906 332.12 
L 228.922451 332.12 
L 228.922451 41.415238 
L 222.64906 41.415238 
z
" clip-path="url(#p214e0b9c36)" style="fill: #1f77b4"/>
   </g>
   <g id="patch_35">
    <path d="M 228.922451 332.12 
L 235.195843 332.12 
L 235.195843 186.767619 
L 228.922451 186.767619 
z
" clip-path="url(#p214e0b9c36)" style="fill: #1f77b4"/>
   </g>
   <g id="patch_36">
    <path d="M 235.195843 332.12 
L 241.469234 332.12 
L 241.469234 186.767619 
L 235.195843 186.767619 
z
" clip-path="url(#p214e0b9c36)" style="fill: #1f77b4"/>
   </g>
   <g id="patch_37">
    <path d="M 241.469234 332.12 
L 247.742625 332.12 
L 247.742625 41.415238 
L 241.469234 41.415238 
z
" clip-path="url(#p214e0b9c36)" style="fill: #1f77b4"/>
   </g>
   <g id="patch_38">
    <path d="M 247.742625 332.12 
L 254.016016 332.12 
L 254.016016 186.767619 
L 247.742625 186.767619 
z
" clip-path="url(#p214e0b9c36)" style="fill: #1f77b4"/>
   </g>
   <g id="patch_39">
    <path d="M 254.016016 332.12 
L 260.289407 332.12 
L 260.289407 41.415238 
L 254.016016 41.415238 
z
" clip-path="url(#p214e0b9c36)" style="fill: #1f77b4"/>
   </g>
   <g id="patch_40">
    <path d="M 260.289407 332.12 
L 266.562798 332.12 
L 266.562798 186.767619 
L 260.289407 186.767619 
z
" clip-path="url(#p214e0b9c36)" style="fill: #1f77b4"/>
   </g>
   <g id="patch_41">
    <path d="M 266.562798 332.12 
L 272.83619 332.12 
L 272.83619 186.767619 
L 266.562798 186.767619 
z
" clip-path="url(#p214e0b9c36)" style="fill: #1f77b4"/>
   </g>
   <g id="patch_42">
    <path d="M 272.83619 332.12 
L 279.109581 332.12 
L 279.109581 41.415238 
L 272.83619 41.415238 
z
" clip-path="url(#p214e0b9c36)" style="fill: #1f77b4"/>
   </g>
   <g id="patch_43">
    <path d="M 279.109581 332.12 
L 285.382972 332.12 
L 285.382972 186.767619 
L 279.109581 186.767619 
z
" clip-path="url(#p214e0b9c36)" style="fill: #1f77b4"/>
   </g>
   <g id="patch_44">
    <path d="M 285.382972 332.12 
L 291.656363 332.12 
L 291.656363 186.767619 
L 285.382972 186.767619 
z
" clip-path="url(#p214e0b9c36)" style="fill: #1f77b4"/>
   </g>
   <g id="patch_45">
    <path d="M 291.656363 332.12 
L 297.929754 332.12 
L 297.929754 41.415238 
L 291.656363 41.415238 
z
" clip-path="url(#p214e0b9c36)" style="fill: #1f77b4"/>
   </g>
   <g id="patch_46">
    <path d="M 297.929754 332.12 
L 304.203145 332.12 
L 304.203145 186.767619 
L 297.929754 186.767619 
z
" clip-path="url(#p214e0b9c36)" style="fill: #1f77b4"/>
   </g>
   <g id="patch_47">
    <path d="M 304.203145 332.12 
L 310.476537 332.12 
L 310.476537 41.415238 
L 304.203145 41.415238 
z
" clip-path="url(#p214e0b9c36)" style="fill: #1f77b4"/>
   </g>
   <g id="patch_48">
    <path d="M 310.476537 332.12 
L 316.749928 332.12 
L 316.749928 186.767619 
L 310.476537 186.767619 
z
" clip-path="url(#p214e0b9c36)" style="fill: #1f77b4"/>
   </g>
   <g id="patch_49">
    <path d="M 316.749928 332.12 
L 323.023319 332.12 
L 323.023319 186.767619 
L 316.749928 186.767619 
z
" clip-path="url(#p214e0b9c36)" style="fill: #1f77b4"/>
   </g>
   <g id="patch_50">
    <path d="M 323.023319 332.12 
L 329.29671 332.12 
L 329.29671 41.415238 
L 323.023319 41.415238 
z
" clip-path="url(#p214e0b9c36)" style="fill: #1f77b4"/>
   </g>
   <g id="patch_51">
    <path d="M 329.29671 332.12 
L 335.570101 332.12 
L 335.570101 186.767619 
L 329.29671 186.767619 
z
" clip-path="url(#p214e0b9c36)" style="fill: #1f77b4"/>
   </g>
   <g id="patch_52">
    <path d="M 335.570101 332.12 
L 341.843493 332.12 
L 341.843493 41.415238 
L 335.570101 41.415238 
z
" clip-path="url(#p214e0b9c36)" style="fill: #1f77b4"/>
   </g>
   <g id="matplotlib.axis_1">
    <g id="xtick_1">
     <g id="line2d_1">
      <defs>
       <path id="m28f90d9c5d" d="M 0 0 
L 0 3.5 
" style="stroke: #000000; stroke-width: 0.8"/>
      </defs>
      <g>
       <use xlink:href="#m28f90d9c5d" x="14.536127" y="332.12" style="stroke: #000000; stroke-width: 0.8"/>
      </g>
     </g>
     <g id="text_1">
      <!-- 0 -->
      <g transform="translate(11.354877 346.718437) scale(0.1 -0.1)">
       <defs>
        <path id="DejaVuSans-30" d="M 2034 4250 
Q 1547 4250 1301 3770 
Q 1056 3291 1056 2328 
Q 1056 1369 1301 889 
Q 1547 409 2034 409 
Q 2525 409 2770 889 
Q 3016 1369 3016 2328 
Q 3016 3291 2770 3770 
Q 2525 4250 2034 4250 
z
M 2034 4750 
Q 2819 4750 3233 4129 
Q 3647 3509 3647 2328 
Q 3647 1150 3233 529 
Q 2819 -91 2034 -91 
Q 1250 -91 836 529 
Q 422 1150 422 2328 
Q 422 3509 836 4129 
Q 1250 4750 2034 4750 
z
" transform="scale(0.015625)"/>
       </defs>
       <use xlink:href="#DejaVuSans-30"/>
      </g>
     </g>
    </g>
    <g id="xtick_2">
     <g id="line2d_2">
      <g>
       <use xlink:href="#m28f90d9c5d" x="59.995483" y="332.12" style="stroke: #000000; stroke-width: 0.8"/>
      </g>
     </g>
     <g id="text_2">
      <!-- 10 -->
      <g transform="translate(53.632983 346.718437) scale(0.1 -0.1)">
       <defs>
        <path id="DejaVuSans-31" d="M 794 531 
L 1825 531 
L 1825 4091 
L 703 3866 
L 703 4441 
L 1819 4666 
L 2450 4666 
L 2450 531 
L 3481 531 
L 3481 0 
L 794 0 
L 794 531 
z
" transform="scale(0.015625)"/>
       </defs>
       <use xlink:href="#DejaVuSans-31"/>
       <use xlink:href="#DejaVuSans-30" transform="translate(63.623047 0)"/>
      </g>
     </g>
    </g>
    <g id="xtick_3">
     <g id="line2d_3">
      <g>
       <use xlink:href="#m28f90d9c5d" x="105.454839" y="332.12" style="stroke: #000000; stroke-width: 0.8"/>
      </g>
     </g>
     <g id="text_3">
      <!-- 20 -->
      <g transform="translate(99.092339 346.718437) scale(0.1 -0.1)">
       <defs>
        <path id="DejaVuSans-32" d="M 1228 531 
L 3431 531 
L 3431 0 
L 469 0 
L 469 531 
Q 828 903 1448 1529 
Q 2069 2156 2228 2338 
Q 2531 2678 2651 2914 
Q 2772 3150 2772 3378 
Q 2772 3750 2511 3984 
Q 2250 4219 1831 4219 
Q 1534 4219 1204 4116 
Q 875 4013 500 3803 
L 500 4441 
Q 881 4594 1212 4672 
Q 1544 4750 1819 4750 
Q 2544 4750 2975 4387 
Q 3406 4025 3406 3419 
Q 3406 3131 3298 2873 
Q 3191 2616 2906 2266 
Q 2828 2175 2409 1742 
Q 1991 1309 1228 531 
z
" transform="scale(0.015625)"/>
       </defs>
       <use xlink:href="#DejaVuSans-32"/>
       <use xlink:href="#DejaVuSans-30" transform="translate(63.623047 0)"/>
      </g>
     </g>
    </g>
    <g id="xtick_4">
     <g id="line2d_4">
      <g>
       <use xlink:href="#m28f90d9c5d" x="150.914196" y="332.12" style="stroke: #000000; stroke-width: 0.8"/>
      </g>
     </g>
     <g id="text_4">
      <!-- 30 -->
      <g transform="translate(144.551696 346.718437) scale(0.1 -0.1)">
       <defs>
        <path id="DejaVuSans-33" d="M 2597 2516 
Q 3050 2419 3304 2112 
Q 3559 1806 3559 1356 
Q 3559 666 3084 287 
Q 2609 -91 1734 -91 
Q 1441 -91 1130 -33 
Q 819 25 488 141 
L 488 750 
Q 750 597 1062 519 
Q 1375 441 1716 441 
Q 2309 441 2620 675 
Q 2931 909 2931 1356 
Q 2931 1769 2642 2001 
Q 2353 2234 1838 2234 
L 1294 2234 
L 1294 2753 
L 1863 2753 
Q 2328 2753 2575 2939 
Q 2822 3125 2822 3475 
Q 2822 3834 2567 4026 
Q 2313 4219 1838 4219 
Q 1578 4219 1281 4162 
Q 984 4106 628 3988 
L 628 4550 
Q 988 4650 1302 4700 
Q 1616 4750 1894 4750 
Q 2613 4750 3031 4423 
Q 3450 4097 3450 3541 
Q 3450 3153 3228 2886 
Q 3006 2619 2597 2516 
z
" transform="scale(0.015625)"/>
       </defs>
       <use xlink:href="#DejaVuSans-33"/>
       <use xlink:href="#DejaVuSans-30" transform="translate(63.623047 0)"/>
      </g>
     </g>
    </g>
    <g id="xtick_5">
     <g id="line2d_5">
      <g>
       <use xlink:href="#m28f90d9c5d" x="196.373552" y="332.12" style="stroke: #000000; stroke-width: 0.8"/>
      </g>
     </g>
     <g id="text_5">
      <!-- 40 -->
      <g transform="translate(190.011052 346.718437) scale(0.1 -0.1)">
       <defs>
        <path id="DejaVuSans-34" d="M 2419 4116 
L 825 1625 
L 2419 1625 
L 2419 4116 
z
M 2253 4666 
L 3047 4666 
L 3047 1625 
L 3713 1625 
L 3713 1100 
L 3047 1100 
L 3047 0 
L 2419 0 
L 2419 1100 
L 313 1100 
L 313 1709 
L 2253 4666 
z
" transform="scale(0.015625)"/>
       </defs>
       <use xlink:href="#DejaVuSans-34"/>
       <use xlink:href="#DejaVuSans-30" transform="translate(63.623047 0)"/>
      </g>
     </g>
    </g>
    <g id="xtick_6">
     <g id="line2d_6">
      <g>
       <use xlink:href="#m28f90d9c5d" x="241.832909" y="332.12" style="stroke: #000000; stroke-width: 0.8"/>
      </g>
     </g>
     <g id="text_6">
      <!-- 50 -->
      <g transform="translate(235.470409 346.718437) scale(0.1 -0.1)">
       <defs>
        <path id="DejaVuSans-35" d="M 691 4666 
L 3169 4666 
L 3169 4134 
L 1269 4134 
L 1269 2991 
Q 1406 3038 1543 3061 
Q 1681 3084 1819 3084 
Q 2600 3084 3056 2656 
Q 3513 2228 3513 1497 
Q 3513 744 3044 326 
Q 2575 -91 1722 -91 
Q 1428 -91 1123 -41 
Q 819 9 494 109 
L 494 744 
Q 775 591 1075 516 
Q 1375 441 1709 441 
Q 2250 441 2565 725 
Q 2881 1009 2881 1497 
Q 2881 1984 2565 2268 
Q 2250 2553 1709 2553 
Q 1456 2553 1204 2497 
Q 953 2441 691 2322 
L 691 4666 
z
" transform="scale(0.015625)"/>
       </defs>
       <use xlink:href="#DejaVuSans-35"/>
       <use xlink:href="#DejaVuSans-30" transform="translate(63.623047 0)"/>
      </g>
     </g>
    </g>
    <g id="xtick_7">
     <g id="line2d_7">
      <g>
       <use xlink:href="#m28f90d9c5d" x="287.292265" y="332.12" style="stroke: #000000; stroke-width: 0.8"/>
      </g>
     </g>
     <g id="text_7">
      <!-- 60 -->
      <g transform="translate(280.929765 346.718437) scale(0.1 -0.1)">
       <defs>
        <path id="DejaVuSans-36" d="M 2113 2584 
Q 1688 2584 1439 2293 
Q 1191 2003 1191 1497 
Q 1191 994 1439 701 
Q 1688 409 2113 409 
Q 2538 409 2786 701 
Q 3034 994 3034 1497 
Q 3034 2003 2786 2293 
Q 2538 2584 2113 2584 
z
M 3366 4563 
L 3366 3988 
Q 3128 4100 2886 4159 
Q 2644 4219 2406 4219 
Q 1781 4219 1451 3797 
Q 1122 3375 1075 2522 
Q 1259 2794 1537 2939 
Q 1816 3084 2150 3084 
Q 2853 3084 3261 2657 
Q 3669 2231 3669 1497 
Q 3669 778 3244 343 
Q 2819 -91 2113 -91 
Q 1303 -91 875 529 
Q 447 1150 447 2328 
Q 447 3434 972 4092 
Q 1497 4750 2381 4750 
Q 2619 4750 2861 4703 
Q 3103 4656 3366 4563 
z
" transform="scale(0.015625)"/>
       </defs>
       <use xlink:href="#DejaVuSans-36"/>
       <use xlink:href="#DejaVuSans-30" transform="translate(63.623047 0)"/>
      </g>
     </g>
    </g>
    <g id="xtick_8">
     <g id="line2d_8">
      <g>
       <use xlink:href="#m28f90d9c5d" x="332.751621" y="332.12" style="stroke: #000000; stroke-width: 0.8"/>
      </g>
     </g>
     <g id="text_8">
      <!-- 70 -->
      <g transform="translate(326.389121 346.718437) scale(0.1 -0.1)">
       <defs>
        <path id="DejaVuSans-37" d="M 525 4666 
L 3525 4666 
L 3525 4397 
L 1831 0 
L 1172 0 
L 2766 4134 
L 525 4134 
L 525 4666 
z
" transform="scale(0.015625)"/>
       </defs>
       <use xlink:href="#DejaVuSans-37"/>
       <use xlink:href="#DejaVuSans-30" transform="translate(63.623047 0)"/>
      </g>
     </g>
    </g>
   </g>
   <g id="matplotlib.axis_2"/>
   <g id="patch_53">
    <path d="M 12.490456 332.12 
L 12.490456 26.88 
" style="fill: none; stroke: #000000; stroke-width: 0.8; stroke-linejoin: miter; stroke-linecap: square"/>
   </g>
   <g id="patch_54">
    <path d="M 357.52697 332.12 
L 357.52697 26.88 
" style="fill: none; stroke: #000000; stroke-width: 0.8; stroke-linejoin: miter; stroke-linecap: square"/>
   </g>
   <g id="patch_55">
    <path d="M 12.490456 332.12 
L 357.52697 332.12 
" style="fill: none; stroke: #000000; stroke-width: 0.8; stroke-linejoin: miter; stroke-linecap: square"/>
   </g>
   <g id="patch_56">
    <path d="M 12.490456 26.88 
L 357.52697 26.88 
" style="fill: none; stroke: #000000; stroke-width: 0.8; stroke-linejoin: miter; stroke-linecap: square"/>
   </g>
   <g id="text_9">
    <!-- numeric__tenure -->
    <g transform="translate(134.762463 20.88) scale(0.12 -0.12)">
     <defs>
      <path id="DejaVuSans-6e" d="M 3513 2113 
L 3513 0 
L 2938 0 
L 2938 2094 
Q 2938 2591 2744 2837 
Q 2550 3084 2163 3084 
Q 1697 3084 1428 2787 
Q 1159 2491 1159 1978 
L 1159 0 
L 581 0 
L 581 3500 
L 1159 3500 
L 1159 2956 
Q 1366 3272 1645 3428 
Q 1925 3584 2291 3584 
Q 2894 3584 3203 3211 
Q 3513 2838 3513 2113 
z
" transform="scale(0.015625)"/>
      <path id="DejaVuSans-75" d="M 544 1381 
L 544 3500 
L 1119 3500 
L 1119 1403 
Q 1119 906 1312 657 
Q 1506 409 1894 409 
Q 2359 409 2629 706 
Q 2900 1003 2900 1516 
L 2900 3500 
L 3475 3500 
L 3475 0 
L 2900 0 
L 2900 538 
Q 2691 219 2414 64 
Q 2138 -91 1772 -91 
Q 1169 -91 856 284 
Q 544 659 544 1381 
z
M 1991 3584 
L 1991 3584 
z
" transform="scale(0.015625)"/>
      <path id="DejaVuSans-6d" d="M 3328 2828 
Q 3544 3216 3844 3400 
Q 4144 3584 4550 3584 
Q 5097 3584 5394 3201 
Q 5691 2819 5691 2113 
L 5691 0 
L 5113 0 
L 5113 2094 
Q 5113 2597 4934 2840 
Q 4756 3084 4391 3084 
Q 3944 3084 3684 2787 
Q 3425 2491 3425 1978 
L 3425 0 
L 2847 0 
L 2847 2094 
Q 2847 2600 2669 2842 
Q 2491 3084 2119 3084 
Q 1678 3084 1418 2786 
Q 1159 2488 1159 1978 
L 1159 0 
L 581 0 
L 581 3500 
L 1159 3500 
L 1159 2956 
Q 1356 3278 1631 3431 
Q 1906 3584 2284 3584 
Q 2666 3584 2933 3390 
Q 3200 3197 3328 2828 
z
" transform="scale(0.015625)"/>
      <path id="DejaVuSans-65" d="M 3597 1894 
L 3597 1613 
L 953 1613 
Q 991 1019 1311 708 
Q 1631 397 2203 397 
Q 2534 397 2845 478 
Q 3156 559 3463 722 
L 3463 178 
Q 3153 47 2828 -22 
Q 2503 -91 2169 -91 
Q 1331 -91 842 396 
Q 353 884 353 1716 
Q 353 2575 817 3079 
Q 1281 3584 2069 3584 
Q 2775 3584 3186 3129 
Q 3597 2675 3597 1894 
z
M 3022 2063 
Q 3016 2534 2758 2815 
Q 2500 3097 2075 3097 
Q 1594 3097 1305 2825 
Q 1016 2553 972 2059 
L 3022 2063 
z
" transform="scale(0.015625)"/>
      <path id="DejaVuSans-72" d="M 2631 2963 
Q 2534 3019 2420 3045 
Q 2306 3072 2169 3072 
Q 1681 3072 1420 2755 
Q 1159 2438 1159 1844 
L 1159 0 
L 581 0 
L 581 3500 
L 1159 3500 
L 1159 2956 
Q 1341 3275 1631 3429 
Q 1922 3584 2338 3584 
Q 2397 3584 2469 3576 
Q 2541 3569 2628 3553 
L 2631 2963 
z
" transform="scale(0.015625)"/>
      <path id="DejaVuSans-69" d="M 603 3500 
L 1178 3500 
L 1178 0 
L 603 0 
L 603 3500 
z
M 603 4863 
L 1178 4863 
L 1178 4134 
L 603 4134 
L 603 4863 
z
" transform="scale(0.015625)"/>
      <path id="DejaVuSans-63" d="M 3122 3366 
L 3122 2828 
Q 2878 2963 2633 3030 
Q 2388 3097 2138 3097 
Q 1578 3097 1268 2742 
Q 959 2388 959 1747 
Q 959 1106 1268 751 
Q 1578 397 2138 397 
Q 2388 397 2633 464 
Q 2878 531 3122 666 
L 3122 134 
Q 2881 22 2623 -34 
Q 2366 -91 2075 -91 
Q 1284 -91 818 406 
Q 353 903 353 1747 
Q 353 2603 823 3093 
Q 1294 3584 2113 3584 
Q 2378 3584 2631 3529 
Q 2884 3475 3122 3366 
z
" transform="scale(0.015625)"/>
      <path id="DejaVuSans-5f" d="M 3263 -1063 
L 3263 -1509 
L -63 -1509 
L -63 -1063 
L 3263 -1063 
z
" transform="scale(0.015625)"/>
      <path id="DejaVuSans-74" d="M 1172 4494 
L 1172 3500 
L 2356 3500 
L 2356 3053 
L 1172 3053 
L 1172 1153 
Q 1172 725 1289 603 
Q 1406 481 1766 481 
L 2356 481 
L 2356 0 
L 1766 0 
Q 1100 0 847 248 
Q 594 497 594 1153 
L 594 3053 
L 172 3053 
L 172 3500 
L 594 3500 
L 594 4494 
L 1172 4494 
z
" transform="scale(0.015625)"/>
     </defs>
     <use xlink:href="#DejaVuSans-6e"/>
     <use xlink:href="#DejaVuSans-75" transform="translate(63.378906 0)"/>
     <use xlink:href="#DejaVuSans-6d" transform="translate(126.757812 0)"/>
     <use xlink:href="#DejaVuSans-65" transform="translate(224.169922 0)"/>
     <use xlink:href="#DejaVuSans-72" transform="translate(285.693359 0)"/>
     <use xlink:href="#DejaVuSans-69" transform="translate(326.806641 0)"/>
     <use xlink:href="#DejaVuSans-63" transform="translate(354.589844 0)"/>
     <use xlink:href="#DejaVuSans-5f" transform="translate(409.570312 0)"/>
     <use xlink:href="#DejaVuSans-5f" transform="translate(459.570312 0)"/>
     <use xlink:href="#DejaVuSans-74" transform="translate(509.570312 0)"/>
     <use xlink:href="#DejaVuSans-65" transform="translate(548.779297 0)"/>
     <use xlink:href="#DejaVuSans-6e" transform="translate(610.302734 0)"/>
     <use xlink:href="#DejaVuSans-75" transform="translate(673.681641 0)"/>
     <use xlink:href="#DejaVuSans-72" transform="translate(737.060547 0)"/>
     <use xlink:href="#DejaVuSans-65" transform="translate(775.923828 0)"/>
    </g>
   </g>
  </g>
  <g id="axes_2">
   <g id="patch_57">
    <path d="M 368.32697 332.12 
L 713.363485 332.12 
L 713.363485 26.88 
L 368.32697 26.88 
z
" style="fill: #ffffff"/>
   </g>
   <g id="patch_58">
    <path d="M 384.010448 332.12 
L 390.28384 332.12 
L 390.28384 41.415238 
L 384.010448 41.415238 
z
" clip-path="url(#pf45a3afeb2)" style="fill: #1f77b4"/>
   </g>
   <g id="patch_59">
    <path d="M 390.28384 332.12 
L 396.557231 332.12 
L 396.557231 41.415238 
L 390.28384 41.415238 
z
" clip-path="url(#pf45a3afeb2)" style="fill: #1f77b4"/>
   </g>
   <g id="patch_60">
    <path d="M 396.557231 332.12 
L 402.830622 332.12 
L 402.830622 41.415238 
L 396.557231 41.415238 
z
" clip-path="url(#pf45a3afeb2)" style="fill: #1f77b4"/>
   </g>
   <g id="patch_61">
    <path d="M 402.830622 332.12 
L 409.104013 332.12 
L 409.104013 186.767619 
L 402.830622 186.767619 
z
" clip-path="url(#pf45a3afeb2)" style="fill: #1f77b4"/>
   </g>
   <g id="patch_62">
    <path d="M 409.104013 332.12 
L 415.377404 332.12 
L 415.377404 41.415238 
L 409.104013 41.415238 
z
" clip-path="url(#pf45a3afeb2)" style="fill: #1f77b4"/>
   </g>
   <g id="patch_63">
    <path d="M 415.377404 332.12 
L 421.650795 332.12 
L 421.650795 41.415238 
L 415.377404 41.415238 
z
" clip-path="url(#pf45a3afeb2)" style="fill: #1f77b4"/>
   </g>
   <g id="patch_64">
    <path d="M 421.650795 332.12 
L 427.924187 332.12 
L 427.924187 41.415238 
L 421.650795 41.415238 
z
" clip-path="url(#pf45a3afeb2)" style="fill: #1f77b4"/>
   </g>
   <g id="patch_65">
    <path d="M 427.924187 332.12 
L 434.197578 332.12 
L 434.197578 186.767619 
L 427.924187 186.767619 
z
" clip-path="url(#pf45a3afeb2)" style="fill: #1f77b4"/>
   </g>
   <g id="patch_66">
    <path d="M 434.197578 332.12 
L 440.470969 332.12 
L 440.470969 41.415238 
L 434.197578 41.415238 
z
" clip-path="url(#pf45a3afeb2)" style="fill: #1f77b4"/>
   </g>
   <g id="patch_67">
    <path d="M 440.470969 332.12 
L 446.74436 332.12 
L 446.74436 41.415238 
L 440.470969 41.415238 
z
" clip-path="url(#pf45a3afeb2)" style="fill: #1f77b4"/>
   </g>
   <g id="patch_68">
    <path d="M 446.74436 332.12 
L 453.017751 332.12 
L 453.017751 186.767619 
L 446.74436 186.767619 
z
" clip-path="url(#pf45a3afeb2)" style="fill: #1f77b4"/>
   </g>
   <g id="patch_69">
    <path d="M 453.017751 332.12 
L 459.291143 332.12 
L 459.291143 41.415238 
L 453.017751 41.415238 
z
" clip-path="url(#pf45a3afeb2)" style="fill: #1f77b4"/>
   </g>
   <g id="patch_70">
    <path d="M 459.291143 332.12 
L 465.564534 332.12 
L 465.564534 41.415238 
L 459.291143 41.415238 
z
" clip-path="url(#pf45a3afeb2)" style="fill: #1f77b4"/>
   </g>
   <g id="patch_71">
    <path d="M 465.564534 332.12 
L 471.837925 332.12 
L 471.837925 41.415238 
L 465.564534 41.415238 
z
" clip-path="url(#pf45a3afeb2)" style="fill: #1f77b4"/>
   </g>
   <g id="patch_72">
    <path d="M 471.837925 332.12 
L 478.111316 332.12 
L 478.111316 186.767619 
L 471.837925 186.767619 
z
" clip-path="url(#pf45a3afeb2)" style="fill: #1f77b4"/>
   </g>
   <g id="patch_73">
    <path d="M 478.111316 332.12 
L 484.384707 332.12 
L 484.384707 41.415238 
L 478.111316 41.415238 
z
" clip-path="url(#pf45a3afeb2)" style="fill: #1f77b4"/>
   </g>
   <g id="patch_74">
    <path d="M 484.384707 332.12 
L 490.658098 332.12 
L 490.658098 41.415238 
L 484.384707 41.415238 
z
" clip-path="url(#pf45a3afeb2)" style="fill: #1f77b4"/>
   </g>
   <g id="patch_75">
    <path d="M 490.658098 332.12 
L 496.93149 332.12 
L 496.93149 186.767619 
L 490.658098 186.767619 
z
" clip-path="url(#pf45a3afeb2)" style="fill: #1f77b4"/>
   </g>
   <g id="patch_76">
    <path d="M 496.93149 332.12 
L 503.204881 332.12 
L 503.204881 41.415238 
L 496.93149 41.415238 
z
" clip-path="url(#pf45a3afeb2)" style="fill: #1f77b4"/>
   </g>
   <g id="patch_77">
    <path d="M 503.204881 332.12 
L 509.478272 332.12 
L 509.478272 41.415238 
L 503.204881 41.415238 
z
" clip-path="url(#pf45a3afeb2)" style="fill: #1f77b4"/>
   </g>
   <g id="patch_78">
    <path d="M 509.478272 332.12 
L 515.751663 332.12 
L 515.751663 41.415238 
L 509.478272 41.415238 
z
" clip-path="url(#pf45a3afeb2)" style="fill: #1f77b4"/>
   </g>
   <g id="patch_79">
    <path d="M 515.751663 332.12 
L 522.025054 332.12 
L 522.025054 186.767619 
L 515.751663 186.767619 
z
" clip-path="url(#pf45a3afeb2)" style="fill: #1f77b4"/>
   </g>
   <g id="patch_80">
    <path d="M 522.025054 332.12 
L 528.298445 332.12 
L 528.298445 41.415238 
L 522.025054 41.415238 
z
" clip-path="url(#pf45a3afeb2)" style="fill: #1f77b4"/>
   </g>
   <g id="patch_81">
    <path d="M 528.298445 332.12 
L 534.571837 332.12 
L 534.571837 41.415238 
L 528.298445 41.415238 
z
" clip-path="url(#pf45a3afeb2)" style="fill: #1f77b4"/>
   </g>
   <g id="patch_82">
    <path d="M 534.571837 332.12 
L 540.845228 332.12 
L 540.845228 186.767619 
L 534.571837 186.767619 
z
" clip-path="url(#pf45a3afeb2)" style="fill: #1f77b4"/>
   </g>
   <g id="patch_83">
    <path d="M 540.845228 332.12 
L 547.118619 332.12 
L 547.118619 41.415238 
L 540.845228 41.415238 
z
" clip-path="url(#pf45a3afeb2)" style="fill: #1f77b4"/>
   </g>
   <g id="patch_84">
    <path d="M 547.118619 332.12 
L 553.39201 332.12 
L 553.39201 41.415238 
L 547.118619 41.415238 
z
" clip-path="url(#pf45a3afeb2)" style="fill: #1f77b4"/>
   </g>
   <g id="patch_85">
    <path d="M 553.39201 332.12 
L 559.665401 332.12 
L 559.665401 41.415238 
L 553.39201 41.415238 
z
" clip-path="url(#pf45a3afeb2)" style="fill: #1f77b4"/>
   </g>
   <g id="patch_86">
    <path d="M 559.665401 332.12 
L 565.938793 332.12 
L 565.938793 186.767619 
L 559.665401 186.767619 
z
" clip-path="url(#pf45a3afeb2)" style="fill: #1f77b4"/>
   </g>
   <g id="patch_87">
    <path d="M 565.938793 332.12 
L 572.212184 332.12 
L 572.212184 41.415238 
L 565.938793 41.415238 
z
" clip-path="url(#pf45a3afeb2)" style="fill: #1f77b4"/>
   </g>
   <g id="patch_88">
    <path d="M 572.212184 332.12 
L 578.485575 332.12 
L 578.485575 41.415238 
L 572.212184 41.415238 
z
" clip-path="url(#pf45a3afeb2)" style="fill: #1f77b4"/>
   </g>
   <g id="patch_89">
    <path d="M 578.485575 332.12 
L 584.758966 332.12 
L 584.758966 41.415238 
L 578.485575 41.415238 
z
" clip-path="url(#pf45a3afeb2)" style="fill: #1f77b4"/>
   </g>
   <g id="patch_90">
    <path d="M 584.758966 332.12 
L 591.032357 332.12 
L 591.032357 186.767619 
L 584.758966 186.767619 
z
" clip-path="url(#pf45a3afeb2)" style="fill: #1f77b4"/>
   </g>
   <g id="patch_91">
    <path d="M 591.032357 332.12 
L 597.305748 332.12 
L 597.305748 41.415238 
L 591.032357 41.415238 
z
" clip-path="url(#pf45a3afeb2)" style="fill: #1f77b4"/>
   </g>
   <g id="patch_92">
    <path d="M 597.305748 332.12 
L 603.57914 332.12 
L 603.57914 41.415238 
L 597.305748 41.415238 
z
" clip-path="url(#pf45a3afeb2)" style="fill: #1f77b4"/>
   </g>
   <g id="patch_93">
    <path d="M 603.57914 332.12 
L 609.852531 332.12 
L 609.852531 186.767619 
L 603.57914 186.767619 
z
" clip-path="url(#pf45a3afeb2)" style="fill: #1f77b4"/>
   </g>
   <g id="patch_94">
    <path d="M 609.852531 332.12 
L 616.125922 332.12 
L 616.125922 41.415238 
L 609.852531 41.415238 
z
" clip-path="url(#pf45a3afeb2)" style="fill: #1f77b4"/>
   </g>
   <g id="patch_95">
    <path d="M 616.125922 332.12 
L 622.399313 332.12 
L 622.399313 41.415238 
L 616.125922 41.415238 
z
" clip-path="url(#pf45a3afeb2)" style="fill: #1f77b4"/>
   </g>
   <g id="patch_96">
    <path d="M 622.399313 332.12 
L 628.672704 332.12 
L 628.672704 41.415238 
L 622.399313 41.415238 
z
" clip-path="url(#pf45a3afeb2)" style="fill: #1f77b4"/>
   </g>
   <g id="patch_97">
    <path d="M 628.672704 332.12 
L 634.946096 332.12 
L 634.946096 186.767619 
L 628.672704 186.767619 
z
" clip-path="url(#pf45a3afeb2)" style="fill: #1f77b4"/>
   </g>
   <g id="patch_98">
    <path d="M 634.946096 332.12 
L 641.219487 332.12 
L 641.219487 41.415238 
L 634.946096 41.415238 
z
" clip-path="url(#pf45a3afeb2)" style="fill: #1f77b4"/>
   </g>
   <g id="patch_99">
    <path d="M 641.219487 332.12 
L 647.492878 332.12 
L 647.492878 41.415238 
L 641.219487 41.415238 
z
" clip-path="url(#pf45a3afeb2)" style="fill: #1f77b4"/>
   </g>
   <g id="patch_100">
    <path d="M 647.492878 332.12 
L 653.766269 332.12 
L 653.766269 207.532245 
L 647.492878 207.532245 
z
" clip-path="url(#pf45a3afeb2)" style="fill: #1f77b4"/>
   </g>
   <g id="patch_101">
    <path d="M 653.766269 332.12 
L 660.03966 332.12 
L 660.03966 82.94449 
L 653.766269 82.94449 
z
" clip-path="url(#pf45a3afeb2)" style="fill: #1f77b4"/>
   </g>
   <g id="patch_102">
    <path d="M 660.03966 332.12 
L 666.313051 332.12 
L 666.313051 82.94449 
L 660.03966 82.94449 
z
" clip-path="url(#pf45a3afeb2)" style="fill: #1f77b4"/>
   </g>
   <g id="patch_103">
    <path d="M 666.313051 332.12 
L 672.586443 332.12 
L 672.586443 124.473741 
L 666.313051 124.473741 
z
" clip-path="url(#pf45a3afeb2)" style="fill: #1f77b4"/>
   </g>
   <g id="patch_104">
    <path d="M 672.586443 332.12 
L 678.859834 332.12 
L 678.859834 228.296871 
L 672.586443 228.296871 
z
" clip-path="url(#pf45a3afeb2)" style="fill: #1f77b4"/>
   </g>
   <g id="patch_105">
    <path d="M 678.859834 332.12 
L 685.133225 332.12 
L 685.133225 186.767619 
L 678.859834 186.767619 
z
" clip-path="url(#pf45a3afeb2)" style="fill: #1f77b4"/>
   </g>
   <g id="patch_106">
    <path d="M 685.133225 332.12 
L 691.406616 332.12 
L 691.406616 228.296871 
L 685.133225 228.296871 
z
" clip-path="url(#pf45a3afeb2)" style="fill: #1f77b4"/>
   </g>
   <g id="patch_107">
    <path d="M 691.406616 332.12 
L 697.680007 332.12 
L 697.680007 290.590748 
L 691.406616 290.590748 
z
" clip-path="url(#pf45a3afeb2)" style="fill: #1f77b4"/>
   </g>
   <g id="matplotlib.axis_3">
    <g id="xtick_9">
     <g id="line2d_9">
      <g>
       <use xlink:href="#m28f90d9c5d" x="387.657769" y="332.12" style="stroke: #000000; stroke-width: 0.8"/>
      </g>
     </g>
     <g id="text_10">
      <!-- 20 -->
      <g transform="translate(381.295269 346.718437) scale(0.1 -0.1)">
       <use xlink:href="#DejaVuSans-32"/>
       <use xlink:href="#DejaVuSans-30" transform="translate(63.623047 0)"/>
      </g>
     </g>
    </g>
    <g id="xtick_10">
     <g id="line2d_10">
      <g>
       <use xlink:href="#m28f90d9c5d" x="460.604178" y="332.12" style="stroke: #000000; stroke-width: 0.8"/>
      </g>
     </g>
     <g id="text_11">
      <!-- 40 -->
      <g transform="translate(454.241678 346.718437) scale(0.1 -0.1)">
       <use xlink:href="#DejaVuSans-34"/>
       <use xlink:href="#DejaVuSans-30" transform="translate(63.623047 0)"/>
      </g>
     </g>
    </g>
    <g id="xtick_11">
     <g id="line2d_11">
      <g>
       <use xlink:href="#m28f90d9c5d" x="533.550587" y="332.12" style="stroke: #000000; stroke-width: 0.8"/>
      </g>
     </g>
     <g id="text_12">
      <!-- 60 -->
      <g transform="translate(527.188087 346.718437) scale(0.1 -0.1)">
       <use xlink:href="#DejaVuSans-36"/>
       <use xlink:href="#DejaVuSans-30" transform="translate(63.623047 0)"/>
      </g>
     </g>
    </g>
    <g id="xtick_12">
     <g id="line2d_12">
      <g>
       <use xlink:href="#m28f90d9c5d" x="606.496996" y="332.12" style="stroke: #000000; stroke-width: 0.8"/>
      </g>
     </g>
     <g id="text_13">
      <!-- 80 -->
      <g transform="translate(600.134496 346.718437) scale(0.1 -0.1)">
       <defs>
        <path id="DejaVuSans-38" d="M 2034 2216 
Q 1584 2216 1326 1975 
Q 1069 1734 1069 1313 
Q 1069 891 1326 650 
Q 1584 409 2034 409 
Q 2484 409 2743 651 
Q 3003 894 3003 1313 
Q 3003 1734 2745 1975 
Q 2488 2216 2034 2216 
z
M 1403 2484 
Q 997 2584 770 2862 
Q 544 3141 544 3541 
Q 544 4100 942 4425 
Q 1341 4750 2034 4750 
Q 2731 4750 3128 4425 
Q 3525 4100 3525 3541 
Q 3525 3141 3298 2862 
Q 3072 2584 2669 2484 
Q 3125 2378 3379 2068 
Q 3634 1759 3634 1313 
Q 3634 634 3220 271 
Q 2806 -91 2034 -91 
Q 1263 -91 848 271 
Q 434 634 434 1313 
Q 434 1759 690 2068 
Q 947 2378 1403 2484 
z
M 1172 3481 
Q 1172 3119 1398 2916 
Q 1625 2713 2034 2713 
Q 2441 2713 2670 2916 
Q 2900 3119 2900 3481 
Q 2900 3844 2670 4047 
Q 2441 4250 2034 4250 
Q 1625 4250 1398 4047 
Q 1172 3844 1172 3481 
z
" transform="scale(0.015625)"/>
       </defs>
       <use xlink:href="#DejaVuSans-38"/>
       <use xlink:href="#DejaVuSans-30" transform="translate(63.623047 0)"/>
      </g>
     </g>
    </g>
    <g id="xtick_13">
     <g id="line2d_13">
      <g>
       <use xlink:href="#m28f90d9c5d" x="679.443405" y="332.12" style="stroke: #000000; stroke-width: 0.8"/>
      </g>
     </g>
     <g id="text_14">
      <!-- 100 -->
      <g transform="translate(669.899655 346.718437) scale(0.1 -0.1)">
       <use xlink:href="#DejaVuSans-31"/>
       <use xlink:href="#DejaVuSans-30" transform="translate(63.623047 0)"/>
       <use xlink:href="#DejaVuSans-30" transform="translate(127.246094 0)"/>
      </g>
     </g>
    </g>
   </g>
   <g id="matplotlib.axis_4"/>
   <g id="patch_108">
    <path d="M 368.32697 332.12 
L 368.32697 26.88 
" style="fill: none; stroke: #000000; stroke-width: 0.8; stroke-linejoin: miter; stroke-linecap: square"/>
   </g>
   <g id="patch_109">
    <path d="M 713.363485 332.12 
L 713.363485 26.88 
" style="fill: none; stroke: #000000; stroke-width: 0.8; stroke-linejoin: miter; stroke-linecap: square"/>
   </g>
   <g id="patch_110">
    <path d="M 368.32697 332.12 
L 713.363485 332.12 
" style="fill: none; stroke: #000000; stroke-width: 0.8; stroke-linejoin: miter; stroke-linecap: square"/>
   </g>
   <g id="patch_111">
    <path d="M 368.32697 26.88 
L 713.363485 26.88 
" style="fill: none; stroke: #000000; stroke-width: 0.8; stroke-linejoin: miter; stroke-linecap: square"/>
   </g>
   <g id="text_15">
    <!-- numeric__MonthlyCharges -->
    <g transform="translate(461.590853 20.88) scale(0.12 -0.12)">
     <defs>
      <path id="DejaVuSans-4d" d="M 628 4666 
L 1569 4666 
L 2759 1491 
L 3956 4666 
L 4897 4666 
L 4897 0 
L 4281 0 
L 4281 4097 
L 3078 897 
L 2444 897 
L 1241 4097 
L 1241 0 
L 628 0 
L 628 4666 
z
" transform="scale(0.015625)"/>
      <path id="DejaVuSans-6f" d="M 1959 3097 
Q 1497 3097 1228 2736 
Q 959 2375 959 1747 
Q 959 1119 1226 758 
Q 1494 397 1959 397 
Q 2419 397 2687 759 
Q 2956 1122 2956 1747 
Q 2956 2369 2687 2733 
Q 2419 3097 1959 3097 
z
M 1959 3584 
Q 2709 3584 3137 3096 
Q 3566 2609 3566 1747 
Q 3566 888 3137 398 
Q 2709 -91 1959 -91 
Q 1206 -91 779 398 
Q 353 888 353 1747 
Q 353 2609 779 3096 
Q 1206 3584 1959 3584 
z
" transform="scale(0.015625)"/>
      <path id="DejaVuSans-68" d="M 3513 2113 
L 3513 0 
L 2938 0 
L 2938 2094 
Q 2938 2591 2744 2837 
Q 2550 3084 2163 3084 
Q 1697 3084 1428 2787 
Q 1159 2491 1159 1978 
L 1159 0 
L 581 0 
L 581 4863 
L 1159 4863 
L 1159 2956 
Q 1366 3272 1645 3428 
Q 1925 3584 2291 3584 
Q 2894 3584 3203 3211 
Q 3513 2838 3513 2113 
z
" transform="scale(0.015625)"/>
      <path id="DejaVuSans-6c" d="M 603 4863 
L 1178 4863 
L 1178 0 
L 603 0 
L 603 4863 
z
" transform="scale(0.015625)"/>
      <path id="DejaVuSans-79" d="M 2059 -325 
Q 1816 -950 1584 -1140 
Q 1353 -1331 966 -1331 
L 506 -1331 
L 506 -850 
L 844 -850 
Q 1081 -850 1212 -737 
Q 1344 -625 1503 -206 
L 1606 56 
L 191 3500 
L 800 3500 
L 1894 763 
L 2988 3500 
L 3597 3500 
L 2059 -325 
z
" transform="scale(0.015625)"/>
      <path id="DejaVuSans-43" d="M 4122 4306 
L 4122 3641 
Q 3803 3938 3442 4084 
Q 3081 4231 2675 4231 
Q 1875 4231 1450 3742 
Q 1025 3253 1025 2328 
Q 1025 1406 1450 917 
Q 1875 428 2675 428 
Q 3081 428 3442 575 
Q 3803 722 4122 1019 
L 4122 359 
Q 3791 134 3420 21 
Q 3050 -91 2638 -91 
Q 1578 -91 968 557 
Q 359 1206 359 2328 
Q 359 3453 968 4101 
Q 1578 4750 2638 4750 
Q 3056 4750 3426 4639 
Q 3797 4528 4122 4306 
z
" transform="scale(0.015625)"/>
      <path id="DejaVuSans-61" d="M 2194 1759 
Q 1497 1759 1228 1600 
Q 959 1441 959 1056 
Q 959 750 1161 570 
Q 1363 391 1709 391 
Q 2188 391 2477 730 
Q 2766 1069 2766 1631 
L 2766 1759 
L 2194 1759 
z
M 3341 1997 
L 3341 0 
L 2766 0 
L 2766 531 
Q 2569 213 2275 61 
Q 1981 -91 1556 -91 
Q 1019 -91 701 211 
Q 384 513 384 1019 
Q 384 1609 779 1909 
Q 1175 2209 1959 2209 
L 2766 2209 
L 2766 2266 
Q 2766 2663 2505 2880 
Q 2244 3097 1772 3097 
Q 1472 3097 1187 3025 
Q 903 2953 641 2809 
L 641 3341 
Q 956 3463 1253 3523 
Q 1550 3584 1831 3584 
Q 2591 3584 2966 3190 
Q 3341 2797 3341 1997 
z
" transform="scale(0.015625)"/>
      <path id="DejaVuSans-67" d="M 2906 1791 
Q 2906 2416 2648 2759 
Q 2391 3103 1925 3103 
Q 1463 3103 1205 2759 
Q 947 2416 947 1791 
Q 947 1169 1205 825 
Q 1463 481 1925 481 
Q 2391 481 2648 825 
Q 2906 1169 2906 1791 
z
M 3481 434 
Q 3481 -459 3084 -895 
Q 2688 -1331 1869 -1331 
Q 1566 -1331 1297 -1286 
Q 1028 -1241 775 -1147 
L 775 -588 
Q 1028 -725 1275 -790 
Q 1522 -856 1778 -856 
Q 2344 -856 2625 -561 
Q 2906 -266 2906 331 
L 2906 616 
Q 2728 306 2450 153 
Q 2172 0 1784 0 
Q 1141 0 747 490 
Q 353 981 353 1791 
Q 353 2603 747 3093 
Q 1141 3584 1784 3584 
Q 2172 3584 2450 3431 
Q 2728 3278 2906 2969 
L 2906 3500 
L 3481 3500 
L 3481 434 
z
" transform="scale(0.015625)"/>
      <path id="DejaVuSans-73" d="M 2834 3397 
L 2834 2853 
Q 2591 2978 2328 3040 
Q 2066 3103 1784 3103 
Q 1356 3103 1142 2972 
Q 928 2841 928 2578 
Q 928 2378 1081 2264 
Q 1234 2150 1697 2047 
L 1894 2003 
Q 2506 1872 2764 1633 
Q 3022 1394 3022 966 
Q 3022 478 2636 193 
Q 2250 -91 1575 -91 
Q 1294 -91 989 -36 
Q 684 19 347 128 
L 347 722 
Q 666 556 975 473 
Q 1284 391 1588 391 
Q 1994 391 2212 530 
Q 2431 669 2431 922 
Q 2431 1156 2273 1281 
Q 2116 1406 1581 1522 
L 1381 1569 
Q 847 1681 609 1914 
Q 372 2147 372 2553 
Q 372 3047 722 3315 
Q 1072 3584 1716 3584 
Q 2034 3584 2315 3537 
Q 2597 3491 2834 3397 
z
" transform="scale(0.015625)"/>
     </defs>
     <use xlink:href="#DejaVuSans-6e"/>
     <use xlink:href="#DejaVuSans-75" transform="translate(63.378906 0)"/>
     <use xlink:href="#DejaVuSans-6d" transform="translate(126.757812 0)"/>
     <use xlink:href="#DejaVuSans-65" transform="translate(224.169922 0)"/>
     <use xlink:href="#DejaVuSans-72" transform="translate(285.693359 0)"/>
     <use xlink:href="#DejaVuSans-69" transform="translate(326.806641 0)"/>
     <use xlink:href="#DejaVuSans-63" transform="translate(354.589844 0)"/>
     <use xlink:href="#DejaVuSans-5f" transform="translate(409.570312 0)"/>
     <use xlink:href="#DejaVuSans-5f" transform="translate(459.570312 0)"/>
     <use xlink:href="#DejaVuSans-4d" transform="translate(509.570312 0)"/>
     <use xlink:href="#DejaVuSans-6f" transform="translate(595.849609 0)"/>
     <use xlink:href="#DejaVuSans-6e" transform="translate(657.03125 0)"/>
     <use xlink:href="#DejaVuSans-74" transform="translate(720.410156 0)"/>
     <use xlink:href="#DejaVuSans-68" transform="translate(759.619141 0)"/>
     <use xlink:href="#DejaVuSans-6c" transform="translate(822.998047 0)"/>
     <use xlink:href="#DejaVuSans-79" transform="translate(850.78125 0)"/>
     <use xlink:href="#DejaVuSans-43" transform="translate(909.960938 0)"/>
     <use xlink:href="#DejaVuSans-68" transform="translate(979.785156 0)"/>
     <use xlink:href="#DejaVuSans-61" transform="translate(1043.164062 0)"/>
     <use xlink:href="#DejaVuSans-72" transform="translate(1104.443359 0)"/>
     <use xlink:href="#DejaVuSans-67" transform="translate(1143.806641 0)"/>
     <use xlink:href="#DejaVuSans-65" transform="translate(1207.283203 0)"/>
     <use xlink:href="#DejaVuSans-73" transform="translate(1268.806641 0)"/>
    </g>
   </g>
  </g>
  <g id="axes_3">
   <g id="patch_112">
    <path d="M 724.163485 332.12 
L 1069.2 332.12 
L 1069.2 26.88 
L 724.163485 26.88 
z
" style="fill: #ffffff"/>
   </g>
   <g id="patch_113">
    <path d="M 739.846963 332.12 
L 746.120354 332.12 
L 746.120354 283.669206 
L 739.846963 283.669206 
z
" clip-path="url(#pb1dd639eda)" style="fill: #1f77b4"/>
   </g>
   <g id="patch_114">
    <path d="M 746.120354 332.12 
L 752.393746 332.12 
L 752.393746 284.638222 
L 746.120354 284.638222 
z
" clip-path="url(#pb1dd639eda)" style="fill: #1f77b4"/>
   </g>
   <g id="patch_115">
    <path d="M 752.393746 332.12 
L 758.667137 332.12 
L 758.667137 284.638222 
L 752.393746 284.638222 
z
" clip-path="url(#pb1dd639eda)" style="fill: #1f77b4"/>
   </g>
   <g id="patch_116">
    <path d="M 758.667137 332.12 
L 764.940528 332.12 
L 764.940528 284.638222 
L 758.667137 284.638222 
z
" clip-path="url(#pb1dd639eda)" style="fill: #1f77b4"/>
   </g>
   <g id="patch_117">
    <path d="M 764.940528 332.12 
L 771.213919 332.12 
L 771.213919 283.669206 
L 764.940528 283.669206 
z
" clip-path="url(#pb1dd639eda)" style="fill: #1f77b4"/>
   </g>
   <g id="patch_118">
    <path d="M 771.213919 332.12 
L 777.48731 332.12 
L 777.48731 284.638222 
L 771.213919 284.638222 
z
" clip-path="url(#pb1dd639eda)" style="fill: #1f77b4"/>
   </g>
   <g id="patch_119">
    <path d="M 777.48731 332.12 
L 783.760701 332.12 
L 783.760701 284.638222 
L 777.48731 284.638222 
z
" clip-path="url(#pb1dd639eda)" style="fill: #1f77b4"/>
   </g>
   <g id="patch_120">
    <path d="M 783.760701 332.12 
L 790.034093 332.12 
L 790.034093 284.638222 
L 783.760701 284.638222 
z
" clip-path="url(#pb1dd639eda)" style="fill: #1f77b4"/>
   </g>
   <g id="patch_121">
    <path d="M 790.034093 332.12 
L 796.307484 332.12 
L 796.307484 283.669206 
L 790.034093 283.669206 
z
" clip-path="url(#pb1dd639eda)" style="fill: #1f77b4"/>
   </g>
   <g id="patch_122">
    <path d="M 796.307484 332.12 
L 802.580875 332.12 
L 802.580875 284.638222 
L 796.307484 284.638222 
z
" clip-path="url(#pb1dd639eda)" style="fill: #1f77b4"/>
   </g>
   <g id="patch_123">
    <path d="M 802.580875 332.12 
L 808.854266 332.12 
L 808.854266 284.638222 
L 802.580875 284.638222 
z
" clip-path="url(#pb1dd639eda)" style="fill: #1f77b4"/>
   </g>
   <g id="patch_124">
    <path d="M 808.854266 332.12 
L 815.127657 332.12 
L 815.127657 284.638222 
L 808.854266 284.638222 
z
" clip-path="url(#pb1dd639eda)" style="fill: #1f77b4"/>
   </g>
   <g id="patch_125">
    <path d="M 815.127657 332.12 
L 821.401048 332.12 
L 821.401048 283.669206 
L 815.127657 283.669206 
z
" clip-path="url(#pb1dd639eda)" style="fill: #1f77b4"/>
   </g>
   <g id="patch_126">
    <path d="M 821.401048 332.12 
L 827.67444 332.12 
L 827.67444 284.638222 
L 821.401048 284.638222 
z
" clip-path="url(#pb1dd639eda)" style="fill: #1f77b4"/>
   </g>
   <g id="patch_127">
    <path d="M 827.67444 332.12 
L 833.947831 332.12 
L 833.947831 284.638222 
L 827.67444 284.638222 
z
" clip-path="url(#pb1dd639eda)" style="fill: #1f77b4"/>
   </g>
   <g id="patch_128">
    <path d="M 833.947831 332.12 
L 840.221222 332.12 
L 840.221222 284.638222 
L 833.947831 284.638222 
z
" clip-path="url(#pb1dd639eda)" style="fill: #1f77b4"/>
   </g>
   <g id="patch_129">
    <path d="M 840.221222 332.12 
L 846.494613 332.12 
L 846.494613 283.669206 
L 840.221222 283.669206 
z
" clip-path="url(#pb1dd639eda)" style="fill: #1f77b4"/>
   </g>
   <g id="patch_130">
    <path d="M 846.494613 332.12 
L 852.768004 332.12 
L 852.768004 284.638222 
L 846.494613 284.638222 
z
" clip-path="url(#pb1dd639eda)" style="fill: #1f77b4"/>
   </g>
   <g id="patch_131">
    <path d="M 852.768004 332.12 
L 859.041396 332.12 
L 859.041396 284.638222 
L 852.768004 284.638222 
z
" clip-path="url(#pb1dd639eda)" style="fill: #1f77b4"/>
   </g>
   <g id="patch_132">
    <path d="M 859.041396 332.12 
L 865.314787 332.12 
L 865.314787 284.638222 
L 859.041396 284.638222 
z
" clip-path="url(#pb1dd639eda)" style="fill: #1f77b4"/>
   </g>
   <g id="patch_133">
    <path d="M 865.314787 332.12 
L 871.588178 332.12 
L 871.588178 283.669206 
L 865.314787 283.669206 
z
" clip-path="url(#pb1dd639eda)" style="fill: #1f77b4"/>
   </g>
   <g id="patch_134">
    <path d="M 871.588178 332.12 
L 877.861569 332.12 
L 877.861569 284.638222 
L 871.588178 284.638222 
z
" clip-path="url(#pb1dd639eda)" style="fill: #1f77b4"/>
   </g>
   <g id="patch_135">
    <path d="M 877.861569 332.12 
L 884.13496 332.12 
L 884.13496 284.638222 
L 877.861569 284.638222 
z
" clip-path="url(#pb1dd639eda)" style="fill: #1f77b4"/>
   </g>
   <g id="patch_136">
    <path d="M 884.13496 332.12 
L 890.408351 332.12 
L 890.408351 219.714159 
L 884.13496 219.714159 
z
" clip-path="url(#pb1dd639eda)" style="fill: #1f77b4"/>
   </g>
   <g id="patch_137">
    <path d="M 890.408351 332.12 
L 896.681743 332.12 
L 896.681743 47.229333 
L 890.408351 47.229333 
z
" clip-path="url(#pb1dd639eda)" style="fill: #1f77b4"/>
   </g>
   <g id="patch_138">
    <path d="M 896.681743 332.12 
L 902.955134 332.12 
L 902.955134 41.415238 
L 896.681743 41.415238 
z
" clip-path="url(#pb1dd639eda)" style="fill: #1f77b4"/>
   </g>
   <g id="patch_139">
    <path d="M 902.955134 332.12 
L 909.228525 332.12 
L 909.228525 47.229333 
L 902.955134 47.229333 
z
" clip-path="url(#pb1dd639eda)" style="fill: #1f77b4"/>
   </g>
   <g id="patch_140">
    <path d="M 909.228525 332.12 
L 915.501916 332.12 
L 915.501916 47.229333 
L 909.228525 47.229333 
z
" clip-path="url(#pb1dd639eda)" style="fill: #1f77b4"/>
   </g>
   <g id="patch_141">
    <path d="M 915.501916 332.12 
L 921.775307 332.12 
L 921.775307 47.229333 
L 915.501916 47.229333 
z
" clip-path="url(#pb1dd639eda)" style="fill: #1f77b4"/>
   </g>
   <g id="patch_142">
    <path d="M 921.775307 332.12 
L 928.048699 332.12 
L 928.048699 41.415238 
L 921.775307 41.415238 
z
" clip-path="url(#pb1dd639eda)" style="fill: #1f77b4"/>
   </g>
   <g id="patch_143">
    <path d="M 928.048699 332.12 
L 934.32209 332.12 
L 934.32209 47.229333 
L 928.048699 47.229333 
z
" clip-path="url(#pb1dd639eda)" style="fill: #1f77b4"/>
   </g>
   <g id="patch_144">
    <path d="M 934.32209 332.12 
L 940.595481 332.12 
L 940.595481 47.229333 
L 934.32209 47.229333 
z
" clip-path="url(#pb1dd639eda)" style="fill: #1f77b4"/>
   </g>
   <g id="patch_145">
    <path d="M 940.595481 332.12 
L 946.868872 332.12 
L 946.868872 47.229333 
L 940.595481 47.229333 
z
" clip-path="url(#pb1dd639eda)" style="fill: #1f77b4"/>
   </g>
   <g id="patch_146">
    <path d="M 946.868872 332.12 
L 953.142263 332.12 
L 953.142263 41.415238 
L 946.868872 41.415238 
z
" clip-path="url(#pb1dd639eda)" style="fill: #1f77b4"/>
   </g>
   <g id="patch_147">
    <path d="M 953.142263 332.12 
L 959.415654 332.12 
L 959.415654 47.229333 
L 953.142263 47.229333 
z
" clip-path="url(#pb1dd639eda)" style="fill: #1f77b4"/>
   </g>
   <g id="patch_148">
    <path d="M 959.415654 332.12 
L 965.689046 332.12 
L 965.689046 47.229333 
L 959.415654 47.229333 
z
" clip-path="url(#pb1dd639eda)" style="fill: #1f77b4"/>
   </g>
   <g id="patch_149">
    <path d="M 965.689046 332.12 
L 971.962437 332.12 
L 971.962437 51.105397 
L 965.689046 51.105397 
z
" clip-path="url(#pb1dd639eda)" style="fill: #1f77b4"/>
   </g>
   <g id="patch_150">
    <path d="M 971.962437 332.12 
L 978.235828 332.12 
L 978.235828 89.866032 
L 971.962437 89.866032 
z
" clip-path="url(#pb1dd639eda)" style="fill: #1f77b4"/>
   </g>
   <g id="patch_151">
    <path d="M 978.235828 332.12 
L 984.509219 332.12 
L 984.509219 94.711111 
L 978.235828 94.711111 
z
" clip-path="url(#pb1dd639eda)" style="fill: #1f77b4"/>
   </g>
   <g id="patch_152">
    <path d="M 984.509219 332.12 
L 990.78261 332.12 
L 990.78261 94.711111 
L 984.509219 94.711111 
z
" clip-path="url(#pb1dd639eda)" style="fill: #1f77b4"/>
   </g>
   <g id="patch_153">
    <path d="M 990.78261 332.12 
L 997.056001 332.12 
L 997.056001 94.711111 
L 990.78261 94.711111 
z
" clip-path="url(#pb1dd639eda)" style="fill: #1f77b4"/>
   </g>
   <g id="patch_154">
    <path d="M 997.056001 332.12 
L 1003.329393 332.12 
L 1003.329393 89.866032 
L 997.056001 89.866032 
z
" clip-path="url(#pb1dd639eda)" style="fill: #1f77b4"/>
   </g>
   <g id="patch_155">
    <path d="M 1003.329393 332.12 
L 1009.602784 332.12 
L 1009.602784 94.711111 
L 1003.329393 94.711111 
z
" clip-path="url(#pb1dd639eda)" style="fill: #1f77b4"/>
   </g>
   <g id="patch_156">
    <path d="M 1009.602784 332.12 
L 1015.876175 332.12 
L 1015.876175 132.50273 
L 1009.602784 132.50273 
z
" clip-path="url(#pb1dd639eda)" style="fill: #1f77b4"/>
   </g>
   <g id="patch_157">
    <path d="M 1015.876175 332.12 
L 1022.149566 332.12 
L 1022.149566 189.674667 
L 1015.876175 189.674667 
z
" clip-path="url(#pb1dd639eda)" style="fill: #1f77b4"/>
   </g>
   <g id="patch_158">
    <path d="M 1022.149566 332.12 
L 1028.422957 332.12 
L 1028.422957 229.404317 
L 1022.149566 229.404317 
z
" clip-path="url(#pb1dd639eda)" style="fill: #1f77b4"/>
   </g>
   <g id="patch_159">
    <path d="M 1028.422957 332.12 
L 1034.696349 332.12 
L 1034.696349 237.156444 
L 1028.422957 237.156444 
z
" clip-path="url(#pb1dd639eda)" style="fill: #1f77b4"/>
   </g>
   <g id="patch_160">
    <path d="M 1034.696349 332.12 
L 1040.96974 332.12 
L 1040.96974 237.156444 
L 1034.696349 237.156444 
z
" clip-path="url(#pb1dd639eda)" style="fill: #1f77b4"/>
   </g>
   <g id="patch_161">
    <path d="M 1040.96974 332.12 
L 1047.243131 332.12 
L 1047.243131 237.156444 
L 1040.96974 237.156444 
z
" clip-path="url(#pb1dd639eda)" style="fill: #1f77b4"/>
   </g>
   <g id="patch_162">
    <path d="M 1047.243131 332.12 
L 1053.516522 332.12 
L 1053.516522 236.187429 
L 1047.243131 236.187429 
z
" clip-path="url(#pb1dd639eda)" style="fill: #1f77b4"/>
   </g>
   <g id="matplotlib.axis_5">
    <g id="xtick_14">
     <g id="line2d_14">
      <g>
       <use xlink:href="#m28f90d9c5d" x="766.092263" y="332.12" style="stroke: #000000; stroke-width: 0.8"/>
      </g>
     </g>
     <g id="text_16">
      <!-- 500 -->
      <g transform="translate(756.548513 346.718437) scale(0.1 -0.1)">
       <use xlink:href="#DejaVuSans-35"/>
       <use xlink:href="#DejaVuSans-30" transform="translate(63.623047 0)"/>
       <use xlink:href="#DejaVuSans-30" transform="translate(127.246094 0)"/>
      </g>
     </g>
    </g>
    <g id="xtick_15">
     <g id="line2d_15">
      <g>
       <use xlink:href="#m28f90d9c5d" x="829.794448" y="332.12" style="stroke: #000000; stroke-width: 0.8"/>
      </g>
     </g>
     <g id="text_17">
      <!-- 1000 -->
      <g transform="translate(817.069448 346.718437) scale(0.1 -0.1)">
       <use xlink:href="#DejaVuSans-31"/>
       <use xlink:href="#DejaVuSans-30" transform="translate(63.623047 0)"/>
       <use xlink:href="#DejaVuSans-30" transform="translate(127.246094 0)"/>
       <use xlink:href="#DejaVuSans-30" transform="translate(190.869141 0)"/>
      </g>
     </g>
    </g>
    <g id="xtick_16">
     <g id="line2d_16">
      <g>
       <use xlink:href="#m28f90d9c5d" x="893.496633" y="332.12" style="stroke: #000000; stroke-width: 0.8"/>
      </g>
     </g>
     <g id="text_18">
      <!-- 1500 -->
      <g transform="translate(880.771633 346.718437) scale(0.1 -0.1)">
       <use xlink:href="#DejaVuSans-31"/>
       <use xlink:href="#DejaVuSans-35" transform="translate(63.623047 0)"/>
       <use xlink:href="#DejaVuSans-30" transform="translate(127.246094 0)"/>
       <use xlink:href="#DejaVuSans-30" transform="translate(190.869141 0)"/>
      </g>
     </g>
    </g>
    <g id="xtick_17">
     <g id="line2d_17">
      <g>
       <use xlink:href="#m28f90d9c5d" x="957.198818" y="332.12" style="stroke: #000000; stroke-width: 0.8"/>
      </g>
     </g>
     <g id="text_19">
      <!-- 2000 -->
      <g transform="translate(944.473818 346.718437) scale(0.1 -0.1)">
       <use xlink:href="#DejaVuSans-32"/>
       <use xlink:href="#DejaVuSans-30" transform="translate(63.623047 0)"/>
       <use xlink:href="#DejaVuSans-30" transform="translate(127.246094 0)"/>
       <use xlink:href="#DejaVuSans-30" transform="translate(190.869141 0)"/>
      </g>
     </g>
    </g>
    <g id="xtick_18">
     <g id="line2d_18">
      <g>
       <use xlink:href="#m28f90d9c5d" x="1020.901003" y="332.12" style="stroke: #000000; stroke-width: 0.8"/>
      </g>
     </g>
     <g id="text_20">
      <!-- 2500 -->
      <g transform="translate(1008.176003 346.718437) scale(0.1 -0.1)">
       <use xlink:href="#DejaVuSans-32"/>
       <use xlink:href="#DejaVuSans-35" transform="translate(63.623047 0)"/>
       <use xlink:href="#DejaVuSans-30" transform="translate(127.246094 0)"/>
       <use xlink:href="#DejaVuSans-30" transform="translate(190.869141 0)"/>
      </g>
     </g>
    </g>
   </g>
   <g id="matplotlib.axis_6"/>
   <g id="patch_163">
    <path d="M 724.163485 332.12 
L 724.163485 26.88 
" style="fill: none; stroke: #000000; stroke-width: 0.8; stroke-linejoin: miter; stroke-linecap: square"/>
   </g>
   <g id="patch_164">
    <path d="M 1069.2 332.12 
L 1069.2 26.88 
" style="fill: none; stroke: #000000; stroke-width: 0.8; stroke-linejoin: miter; stroke-linecap: square"/>
   </g>
   <g id="patch_165">
    <path d="M 724.163485 332.12 
L 1069.2 332.12 
" style="fill: none; stroke: #000000; stroke-width: 0.8; stroke-linejoin: miter; stroke-linecap: square"/>
   </g>
   <g id="patch_166">
    <path d="M 724.163485 26.88 
L 1069.2 26.88 
" style="fill: none; stroke: #000000; stroke-width: 0.8; stroke-linejoin: miter; stroke-linecap: square"/>
   </g>
   <g id="text_21">
    <!-- numeric__TotalCharges -->
    <g transform="translate(827.43893 20.88) scale(0.12 -0.12)">
     <defs>
      <path id="DejaVuSans-54" d="M -19 4666 
L 3928 4666 
L 3928 4134 
L 2272 4134 
L 2272 0 
L 1638 0 
L 1638 4134 
L -19 4134 
L -19 4666 
z
" transform="scale(0.015625)"/>
     </defs>
     <use xlink:href="#DejaVuSans-6e"/>
     <use xlink:href="#DejaVuSans-75" transform="translate(63.378906 0)"/>
     <use xlink:href="#DejaVuSans-6d" transform="translate(126.757812 0)"/>
     <use xlink:href="#DejaVuSans-65" transform="translate(224.169922 0)"/>
     <use xlink:href="#DejaVuSans-72" transform="translate(285.693359 0)"/>
     <use xlink:href="#DejaVuSans-69" transform="translate(326.806641 0)"/>
     <use xlink:href="#DejaVuSans-63" transform="translate(354.589844 0)"/>
     <use xlink:href="#DejaVuSans-5f" transform="translate(409.570312 0)"/>
     <use xlink:href="#DejaVuSans-5f" transform="translate(459.570312 0)"/>
     <use xlink:href="#DejaVuSans-54" transform="translate(509.570312 0)"/>
     <use xlink:href="#DejaVuSans-6f" transform="translate(553.654297 0)"/>
     <use xlink:href="#DejaVuSans-74" transform="translate(614.835938 0)"/>
     <use xlink:href="#DejaVuSans-61" transform="translate(654.044922 0)"/>
     <use xlink:href="#DejaVuSans-6c" transform="translate(715.324219 0)"/>
     <use xlink:href="#DejaVuSans-43" transform="translate(743.107422 0)"/>
     <use xlink:href="#DejaVuSans-68" transform="translate(812.931641 0)"/>
     <use xlink:href="#DejaVuSans-61" transform="translate(876.310547 0)"/>
     <use xlink:href="#DejaVuSans-72" transform="translate(937.589844 0)"/>
     <use xlink:href="#DejaVuSans-67" transform="translate(976.953125 0)"/>
     <use xlink:href="#DejaVuSans-65" transform="translate(1040.429688 0)"/>
     <use xlink:href="#DejaVuSans-73" transform="translate(1101.953125 0)"/>
    </g>
   </g>
  </g>
 </g>
 <defs>
  <clipPath id="p214e0b9c36">
   <rect x="12.490456" y="26.88" width="345.036515" height="305.24"/>
  </clipPath>
  <clipPath id="pf45a3afeb2">
   <rect x="368.32697" y="26.88" width="345.036515" height="305.24"/>
  </clipPath>
  <clipPath id="pb1dd639eda">
   <rect x="724.163485" y="26.88" width="345.036515" height="305.24"/>
  </clipPath>
 </defs>
</svg>
