<?xml version="1.0" encoding="utf-8" standalone="no"?>
<!DOCTYPE svg PUBLIC "-//W3C//DTD SVG 1.1//EN"
  "http://www.w3.org/Graphics/SVG/1.1/DTD/svg11.dtd">
<svg xmlns:xlink="http://www.w3.org/1999/xlink" width="1080pt" height="360pt" viewBox="0 0 1080 360" xmlns="http://www.w3.org/2000/svg" version="1.1">
 <metadata>
  <rdf:RDF xmlns:dc="http://purl.org/dc/elements/1.1/" xmlns:cc="http://creativecommons.org/ns#" xmlns:rdf="http://www.w3.org/1999/02/22-rdf-syntax-ns#">
   <cc:Work>
    <dc:type rdf:resource="http://purl.org/dc/dcmitype/StillImage"/>
    <dc:date>2025-11-30T23:06:08.043004</dc:date>
    <dc:format>image/svg+xml</dc:format>
    <dc:creator>
     <cc:Agent>
      <dc:title>Matplotlib v3.10.0, https://matplotlib.org/</dc:title>
     </cc:Agent>
    </dc:creator>
   </cc:Work>
  </rdf:RDF>
 </metadata>
 <defs>
  <style type="text/css">*{stroke-linejoin: round; stroke-linecap: butt}</style>
 </defs>
 <g id="figure_1">
  <g id="patch_1">
   <path d="M 0 360 
L 1080 360 
L 1080 0 
L 0 0 
z
" style="fill: #ffffff"/>
  </g>
  <g id="axes_1">
   <g id="patch_2">
    <path d="M 10.8 332.12 
L 347.710652 332.12 
L 347.710652 26.88 
L 10.8 26.88 
z
" style="fill: #ffffff"/>
   </g>
   <g id="patch_3">
    <path d="M 26.114121 332.12 
L 32.239769 332.12 
L 32.239769 41.415238 
L 26.114121 41.415238 
z
" clip-path="url(#p5ceca4a014)" style="fill: #1f77b4"/>
   </g>
   <g id="patch_4">
    <path d="M 32.239769 332.12 
L 38.365417 332.12 
L 38.365417 186.767619 
L 32.239769 186.767619 
z
" clip-path="url(#p5ceca4a014)" style="fill: #1f77b4"/>
   </g>
   <g id="patch_5">
    <path d="M 38.365417 332.12 
L 44.491065 332.12 
L 44.491065 186.767619 
L 38.365417 186.767619 
z
" clip-path="url(#p5ceca4a014)" style="fill: #1f77b4"/>
   </g>
   <g id="patch_6">
    <path d="M 44.491065 332.12 
L 50.616713 332.12 
L 50.616713 188.457763 
L 44.491065 188.457763 
z
" clip-path="url(#p5ceca4a014)" style="fill: #1f77b4"/>
   </g>
   <g id="patch_7">
    <path d="M 50.616713 332.12 
L 56.742362 332.12 
L 56.742362 188.457763 
L 50.616713 188.457763 
z
" clip-path="url(#p5ceca4a014)" style="fill: #1f77b4"/>
   </g>
   <g id="patch_8">
    <path d="M 56.742362 332.12 
L 62.86801 332.12 
L 62.86801 188.457763 
L 56.742362 188.457763 
z
" clip-path="url(#p5ceca4a014)" style="fill: #1f77b4"/>
   </g>
   <g id="patch_9">
    <path d="M 62.86801 332.12 
L 68.993658 332.12 
L 68.993658 188.457763 
L 62.86801 188.457763 
z
" clip-path="url(#p5ceca4a014)" style="fill: #1f77b4"/>
   </g>
   <g id="patch_10">
    <path d="M 68.993658 332.12 
L 75.119306 332.12 
L 75.119306 188.457763 
L 68.993658 188.457763 
z
" clip-path="url(#p5ceca4a014)" style="fill: #1f77b4"/>
   </g>
   <g id="patch_11">
    <path d="M 75.119306 332.12 
L 81.244954 332.12 
L 81.244954 44.795526 
L 75.119306 44.795526 
z
" clip-path="url(#p5ceca4a014)" style="fill: #1f77b4"/>
   </g>
   <g id="patch_12">
    <path d="M 81.244954 332.12 
L 87.370603 332.12 
L 87.370603 188.457763 
L 81.244954 188.457763 
z
" clip-path="url(#p5ceca4a014)" style="fill: #1f77b4"/>
   </g>
   <g id="patch_13">
    <path d="M 87.370603 332.12 
L 93.496251 332.12 
L 93.496251 188.457763 
L 87.370603 188.457763 
z
" clip-path="url(#p5ceca4a014)" style="fill: #1f77b4"/>
   </g>
   <g id="patch_14">
    <path d="M 93.496251 332.12 
L 99.621899 332.12 
L 99.621899 188.457763 
L 93.496251 188.457763 
z
" clip-path="url(#p5ceca4a014)" style="fill: #1f77b4"/>
   </g>
   <g id="patch_15">
    <path d="M 99.621899 332.12 
L 105.747547 332.12 
L 105.747547 188.457763 
L 99.621899 188.457763 
z
" clip-path="url(#p5ceca4a014)" style="fill: #1f77b4"/>
   </g>
   <g id="patch_16">
    <path d="M 105.747547 332.12 
L 111.873196 332.12 
L 111.873196 188.457763 
L 105.747547 188.457763 
z
" clip-path="url(#p5ceca4a014)" style="fill: #1f77b4"/>
   </g>
   <g id="patch_17">
    <path d="M 111.873196 332.12 
L 117.998844 332.12 
L 117.998844 190.147907 
L 111.873196 190.147907 
z
" clip-path="url(#p5ceca4a014)" style="fill: #1f77b4"/>
   </g>
   <g id="patch_18">
    <path d="M 117.998844 332.12 
L 124.124492 332.12 
L 124.124492 190.147907 
L 117.998844 190.147907 
z
" clip-path="url(#p5ceca4a014)" style="fill: #1f77b4"/>
   </g>
   <g id="patch_19">
    <path d="M 124.124492 332.12 
L 130.25014 332.12 
L 130.25014 53.246246 
L 124.124492 53.246246 
z
" clip-path="url(#p5ceca4a014)" style="fill: #1f77b4"/>
   </g>
   <g id="patch_20">
    <path d="M 130.25014 332.12 
L 136.375788 332.12 
L 136.375788 195.218339 
L 130.25014 195.218339 
z
" clip-path="url(#p5ceca4a014)" style="fill: #1f77b4"/>
   </g>
   <g id="patch_21">
    <path d="M 136.375788 332.12 
L 142.501437 332.12 
L 142.501437 195.218339 
L 136.375788 195.218339 
z
" clip-path="url(#p5ceca4a014)" style="fill: #1f77b4"/>
   </g>
   <g id="patch_22">
    <path d="M 142.501437 332.12 
L 148.627085 332.12 
L 148.627085 195.218339 
L 142.501437 195.218339 
z
" clip-path="url(#p5ceca4a014)" style="fill: #1f77b4"/>
   </g>
   <g id="patch_23">
    <path d="M 148.627085 332.12 
L 154.752733 332.12 
L 154.752733 195.218339 
L 148.627085 195.218339 
z
" clip-path="url(#p5ceca4a014)" style="fill: #1f77b4"/>
   </g>
   <g id="patch_24">
    <path d="M 154.752733 332.12 
L 160.878381 332.12 
L 160.878381 195.218339 
L 154.752733 195.218339 
z
" clip-path="url(#p5ceca4a014)" style="fill: #1f77b4"/>
   </g>
   <g id="patch_25">
    <path d="M 160.878381 332.12 
L 167.004029 332.12 
L 167.004029 195.218339 
L 160.878381 195.218339 
z
" clip-path="url(#p5ceca4a014)" style="fill: #1f77b4"/>
   </g>
   <g id="patch_26">
    <path d="M 167.004029 332.12 
L 173.129678 332.12 
L 173.129678 196.908483 
L 167.004029 196.908483 
z
" clip-path="url(#p5ceca4a014)" style="fill: #1f77b4"/>
   </g>
   <g id="patch_27">
    <path d="M 173.129678 332.12 
L 179.255326 332.12 
L 179.255326 196.908483 
L 173.129678 196.908483 
z
" clip-path="url(#p5ceca4a014)" style="fill: #1f77b4"/>
   </g>
   <g id="patch_28">
    <path d="M 179.255326 332.12 
L 185.380974 332.12 
L 185.380974 65.077254 
L 179.255326 65.077254 
z
" clip-path="url(#p5ceca4a014)" style="fill: #1f77b4"/>
   </g>
   <g id="patch_29">
    <path d="M 185.380974 332.12 
L 191.506622 332.12 
L 191.506622 200.288771 
L 185.380974 200.288771 
z
" clip-path="url(#p5ceca4a014)" style="fill: #1f77b4"/>
   </g>
   <g id="patch_30">
    <path d="M 191.506622 332.12 
L 197.632271 332.12 
L 197.632271 200.288771 
L 191.506622 200.288771 
z
" clip-path="url(#p5ceca4a014)" style="fill: #1f77b4"/>
   </g>
   <g id="patch_31">
    <path d="M 197.632271 332.12 
L 203.757919 332.12 
L 203.757919 200.288771 
L 197.632271 200.288771 
z
" clip-path="url(#p5ceca4a014)" style="fill: #1f77b4"/>
   </g>
   <g id="patch_32">
    <path d="M 203.757919 332.12 
L 209.883567 332.12 
L 209.883567 201.978915 
L 203.757919 201.978915 
z
" clip-path="url(#p5ceca4a014)" style="fill: #1f77b4"/>
   </g>
   <g id="patch_33">
    <path d="M 209.883567 332.12 
L 216.009215 332.12 
L 216.009215 201.978915 
L 209.883567 201.978915 
z
" clip-path="url(#p5ceca4a014)" style="fill: #1f77b4"/>
   </g>
   <g id="patch_34">
    <path d="M 216.009215 332.12 
L 222.134863 332.12 
L 222.134863 201.978915 
L 216.009215 201.978915 
z
" clip-path="url(#p5ceca4a014)" style="fill: #1f77b4"/>
   </g>
   <g id="patch_35">
    <path d="M 222.134863 332.12 
L 228.260512 332.12 
L 228.260512 201.978915 
L 222.134863 201.978915 
z
" clip-path="url(#p5ceca4a014)" style="fill: #1f77b4"/>
   </g>
   <g id="patch_36">
    <path d="M 228.260512 332.12 
L 234.38616 332.12 
L 234.38616 75.218117 
L 228.260512 75.218117 
z
" clip-path="url(#p5ceca4a014)" style="fill: #1f77b4"/>
   </g>
   <g id="patch_37">
    <path d="M 234.38616 332.12 
L 240.511808 332.12 
L 240.511808 205.359203 
L 234.38616 205.359203 
z
" clip-path="url(#p5ceca4a014)" style="fill: #1f77b4"/>
   </g>
   <g id="patch_38">
    <path d="M 240.511808 332.12 
L 246.637456 332.12 
L 246.637456 208.739491 
L 240.511808 208.739491 
z
" clip-path="url(#p5ceca4a014)" style="fill: #1f77b4"/>
   </g>
   <g id="patch_39">
    <path d="M 246.637456 332.12 
L 252.763104 332.12 
L 252.763104 208.739491 
L 246.637456 208.739491 
z
" clip-path="url(#p5ceca4a014)" style="fill: #1f77b4"/>
   </g>
   <g id="patch_40">
    <path d="M 252.763104 332.12 
L 258.888753 332.12 
L 258.888753 208.739491 
L 252.763104 208.739491 
z
" clip-path="url(#p5ceca4a014)" style="fill: #1f77b4"/>
   </g>
   <g id="patch_41">
    <path d="M 258.888753 332.12 
L 265.014401 332.12 
L 265.014401 210.429635 
L 258.888753 210.429635 
z
" clip-path="url(#p5ceca4a014)" style="fill: #1f77b4"/>
   </g>
   <g id="patch_42">
    <path d="M 265.014401 332.12 
L 271.140049 332.12 
L 271.140049 210.429635 
L 265.014401 210.429635 
z
" clip-path="url(#p5ceca4a014)" style="fill: #1f77b4"/>
   </g>
   <g id="patch_43">
    <path d="M 271.140049 332.12 
L 277.265697 332.12 
L 277.265697 213.809922 
L 271.140049 213.809922 
z
" clip-path="url(#p5ceca4a014)" style="fill: #1f77b4"/>
   </g>
   <g id="patch_44">
    <path d="M 277.265697 332.12 
L 283.391346 332.12 
L 283.391346 100.570277 
L 277.265697 100.570277 
z
" clip-path="url(#p5ceca4a014)" style="fill: #1f77b4"/>
   </g>
   <g id="patch_45">
    <path d="M 283.391346 332.12 
L 289.516994 332.12 
L 289.516994 220.570498 
L 283.391346 220.570498 
z
" clip-path="url(#p5ceca4a014)" style="fill: #1f77b4"/>
   </g>
   <g id="patch_46">
    <path d="M 289.516994 332.12 
L 295.642642 332.12 
L 295.642642 222.260642 
L 289.516994 222.260642 
z
" clip-path="url(#p5ceca4a014)" style="fill: #1f77b4"/>
   </g>
   <g id="patch_47">
    <path d="M 295.642642 332.12 
L 301.76829 332.12 
L 301.76829 225.64093 
L 295.642642 225.64093 
z
" clip-path="url(#p5ceca4a014)" style="fill: #1f77b4"/>
   </g>
   <g id="patch_48">
    <path d="M 301.76829 332.12 
L 307.893938 332.12 
L 307.893938 229.021218 
L 301.76829 229.021218 
z
" clip-path="url(#p5ceca4a014)" style="fill: #1f77b4"/>
   </g>
   <g id="patch_49">
    <path d="M 307.893938 332.12 
L 314.019587 332.12 
L 314.019587 232.401506 
L 307.893938 232.401506 
z
" clip-path="url(#p5ceca4a014)" style="fill: #1f77b4"/>
   </g>
   <g id="patch_50">
    <path d="M 314.019587 332.12 
L 320.145235 332.12 
L 320.145235 234.09165 
L 314.019587 234.09165 
z
" clip-path="url(#p5ceca4a014)" style="fill: #1f77b4"/>
   </g>
   <g id="patch_51">
    <path d="M 320.145235 332.12 
L 326.270883 332.12 
L 326.270883 249.302946 
L 320.145235 249.302946 
z
" clip-path="url(#p5ceca4a014)" style="fill: #1f77b4"/>
   </g>
   <g id="patch_52">
    <path d="M 326.270883 332.12 
L 332.396531 332.12 
L 332.396531 217.19021 
L 326.270883 217.19021 
z
" clip-path="url(#p5ceca4a014)" style="fill: #1f77b4"/>
   </g>
   <g id="matplotlib.axis_1">
    <g id="xtick_1">
     <g id="line2d_1">
      <defs>
       <path id="m7882fe71fc" d="M 0 0 
L 0 3.5 
" style="stroke: #000000; stroke-width: 0.8"/>
      </defs>
      <g>
       <use xlink:href="#m7882fe71fc" x="47.991436" y="332.12" style="stroke: #000000; stroke-width: 0.8"/>
      </g>
     </g>
     <g id="text_1">
      <!-- 20 -->
      <g transform="translate(41.628936 346.718437) scale(0.1 -0.1)">
       <defs>
        <path id="DejaVuSans-32" d="M 1228 531 
L 3431 531 
L 3431 0 
L 469 0 
L 469 531 
Q 828 903 1448 1529 
Q 2069 2156 2228 2338 
Q 2531 2678 2651 2914 
Q 2772 3150 2772 3378 
Q 2772 3750 2511 3984 
Q 2250 4219 1831 4219 
Q 1534 4219 1204 4116 
Q 875 4013 500 3803 
L 500 4441 
Q 881 4594 1212 4672 
Q 1544 4750 1819 4750 
Q 2544 4750 2975 4387 
Q 3406 4025 3406 3419 
Q 3406 3131 3298 2873 
Q 3191 2616 2906 2266 
Q 2828 2175 2409 1742 
Q 1991 1309 1228 531 
z
" transform="scale(0.015625)"/>
        <path id="DejaVuSans-30" d="M 2034 4250 
Q 1547 4250 1301 3770 
Q 1056 3291 1056 2328 
Q 1056 1369 1301 889 
Q 1547 409 2034 409 
Q 2525 409 2770 889 
Q 3016 1369 3016 2328 
Q 3016 3291 2770 3770 
Q 2525 4250 2034 4250 
z
M 2034 4750 
Q 2819 4750 3233 4129 
Q 3647 3509 3647 2328 
Q 3647 1150 3233 529 
Q 2819 -91 2034 -91 
Q 1250 -91 836 529 
Q 422 1150 422 2328 
Q 422 3509 836 4129 
Q 1250 4750 2034 4750 
z
" transform="scale(0.015625)"/>
       </defs>
       <use xlink:href="#DejaVuSans-32"/>
       <use xlink:href="#DejaVuSans-30" transform="translate(63.623047 0)"/>
      </g>
     </g>
    </g>
    <g id="xtick_2">
     <g id="line2d_2">
      <g>
       <use xlink:href="#m7882fe71fc" x="102.684723" y="332.12" style="stroke: #000000; stroke-width: 0.8"/>
      </g>
     </g>
     <g id="text_2">
      <!-- 30 -->
      <g transform="translate(96.322223 346.718437) scale(0.1 -0.1)">
       <defs>
        <path id="DejaVuSans-33" d="M 2597 2516 
Q 3050 2419 3304 2112 
Q 3559 1806 3559 1356 
Q 3559 666 3084 287 
Q 2609 -91 1734 -91 
Q 1441 -91 1130 -33 
Q 819 25 488 141 
L 488 750 
Q 750 597 1062 519 
Q 1375 441 1716 441 
Q 2309 441 2620 675 
Q 2931 909 2931 1356 
Q 2931 1769 2642 2001 
Q 2353 2234 1838 2234 
L 1294 2234 
L 1294 2753 
L 1863 2753 
Q 2328 2753 2575 2939 
Q 2822 3125 2822 3475 
Q 2822 3834 2567 4026 
Q 2313 4219 1838 4219 
Q 1578 4219 1281 4162 
Q 984 4106 628 3988 
L 628 4550 
Q 988 4650 1302 4700 
Q 1616 4750 1894 4750 
Q 2613 4750 3031 4423 
Q 3450 4097 3450 3541 
Q 3450 3153 3228 2886 
Q 3006 2619 2597 2516 
z
" transform="scale(0.015625)"/>
       </defs>
       <use xlink:href="#DejaVuSans-33"/>
       <use xlink:href="#DejaVuSans-30" transform="translate(63.623047 0)"/>
      </g>
     </g>
    </g>
    <g id="xtick_3">
     <g id="line2d_3">
      <g>
       <use xlink:href="#m7882fe71fc" x="157.378011" y="332.12" style="stroke: #000000; stroke-width: 0.8"/>
      </g>
     </g>
     <g id="text_3">
      <!-- 40 -->
      <g transform="translate(151.015511 346.718437) scale(0.1 -0.1)">
       <defs>
        <path id="DejaVuSans-34" d="M 2419 4116 
L 825 1625 
L 2419 1625 
L 2419 4116 
z
M 2253 4666 
L 3047 4666 
L 3047 1625 
L 3713 1625 
L 3713 1100 
L 3047 1100 
L 3047 0 
L 2419 0 
L 2419 1100 
L 313 1100 
L 313 1709 
L 2253 4666 
z
" transform="scale(0.015625)"/>
       </defs>
       <use xlink:href="#DejaVuSans-34"/>
       <use xlink:href="#DejaVuSans-30" transform="translate(63.623047 0)"/>
      </g>
     </g>
    </g>
    <g id="xtick_4">
     <g id="line2d_4">
      <g>
       <use xlink:href="#m7882fe71fc" x="212.071298" y="332.12" style="stroke: #000000; stroke-width: 0.8"/>
      </g>
     </g>
     <g id="text_4">
      <!-- 50 -->
      <g transform="translate(205.708798 346.718437) scale(0.1 -0.1)">
       <defs>
        <path id="DejaVuSans-35" d="M 691 4666 
L 3169 4666 
L 3169 4134 
L 1269 4134 
L 1269 2991 
Q 1406 3038 1543 3061 
Q 1681 3084 1819 3084 
Q 2600 3084 3056 2656 
Q 3513 2228 3513 1497 
Q 3513 744 3044 326 
Q 2575 -91 1722 -91 
Q 1428 -91 1123 -41 
Q 819 9 494 109 
L 494 744 
Q 775 591 1075 516 
Q 1375 441 1709 441 
Q 2250 441 2565 725 
Q 2881 1009 2881 1497 
Q 2881 1984 2565 2268 
Q 2250 2553 1709 2553 
Q 1456 2553 1204 2497 
Q 953 2441 691 2322 
L 691 4666 
z
" transform="scale(0.015625)"/>
       </defs>
       <use xlink:href="#DejaVuSans-35"/>
       <use xlink:href="#DejaVuSans-30" transform="translate(63.623047 0)"/>
      </g>
     </g>
    </g>
    <g id="xtick_5">
     <g id="line2d_5">
      <g>
       <use xlink:href="#m7882fe71fc" x="266.764586" y="332.12" style="stroke: #000000; stroke-width: 0.8"/>
      </g>
     </g>
     <g id="text_5">
      <!-- 60 -->
      <g transform="translate(260.402086 346.718437) scale(0.1 -0.1)">
       <defs>
        <path id="DejaVuSans-36" d="M 2113 2584 
Q 1688 2584 1439 2293 
Q 1191 2003 1191 1497 
Q 1191 994 1439 701 
Q 1688 409 2113 409 
Q 2538 409 2786 701 
Q 3034 994 3034 1497 
Q 3034 2003 2786 2293 
Q 2538 2584 2113 2584 
z
M 3366 4563 
L 3366 3988 
Q 3128 4100 2886 4159 
Q 2644 4219 2406 4219 
Q 1781 4219 1451 3797 
Q 1122 3375 1075 2522 
Q 1259 2794 1537 2939 
Q 1816 3084 2150 3084 
Q 2853 3084 3261 2657 
Q 3669 2231 3669 1497 
Q 3669 778 3244 343 
Q 2819 -91 2113 -91 
Q 1303 -91 875 529 
Q 447 1150 447 2328 
Q 447 3434 972 4092 
Q 1497 4750 2381 4750 
Q 2619 4750 2861 4703 
Q 3103 4656 3366 4563 
z
" transform="scale(0.015625)"/>
       </defs>
       <use xlink:href="#DejaVuSans-36"/>
       <use xlink:href="#DejaVuSans-30" transform="translate(63.623047 0)"/>
      </g>
     </g>
    </g>
    <g id="xtick_6">
     <g id="line2d_6">
      <g>
       <use xlink:href="#m7882fe71fc" x="321.457874" y="332.12" style="stroke: #000000; stroke-width: 0.8"/>
      </g>
     </g>
     <g id="text_6">
      <!-- 70 -->
      <g transform="translate(315.095374 346.718437) scale(0.1 -0.1)">
       <defs>
        <path id="DejaVuSans-37" d="M 525 4666 
L 3525 4666 
L 3525 4397 
L 1831 0 
L 1172 0 
L 2766 4134 
L 525 4134 
L 525 4666 
z
" transform="scale(0.015625)"/>
       </defs>
       <use xlink:href="#DejaVuSans-37"/>
       <use xlink:href="#DejaVuSans-30" transform="translate(63.623047 0)"/>
      </g>
     </g>
    </g>
   </g>
   <g id="matplotlib.axis_2"/>
   <g id="patch_53">
    <path d="M 10.8 332.12 
L 10.8 26.88 
" style="fill: none; stroke: #000000; stroke-width: 0.8; stroke-linejoin: miter; stroke-linecap: square"/>
   </g>
   <g id="patch_54">
    <path d="M 347.710652 332.12 
L 347.710652 26.88 
" style="fill: none; stroke: #000000; stroke-width: 0.8; stroke-linejoin: miter; stroke-linecap: square"/>
   </g>
   <g id="patch_55">
    <path d="M 10.8 332.12 
L 347.710652 332.12 
" style="fill: none; stroke: #000000; stroke-width: 0.8; stroke-linejoin: miter; stroke-linecap: square"/>
   </g>
   <g id="patch_56">
    <path d="M 10.8 26.88 
L 347.710652 26.88 
" style="fill: none; stroke: #000000; stroke-width: 0.8; stroke-linejoin: miter; stroke-linecap: square"/>
   </g>
   <g id="text_7">
    <!-- numeric__tenure -->
    <g transform="translate(129.009076 20.88) scale(0.12 -0.12)">
     <defs>
      <path id="DejaVuSans-6e" d="M 3513 2113 
L 3513 0 
L 2938 0 
L 2938 2094 
Q 2938 2591 2744 2837 
Q 2550 3084 2163 3084 
Q 1697 3084 1428 2787 
Q 1159 2491 1159 1978 
L 1159 0 
L 581 0 
L 581 3500 
L 1159 3500 
L 1159 2956 
Q 1366 3272 1645 3428 
Q 1925 3584 2291 3584 
Q 2894 3584 3203 3211 
Q 3513 2838 3513 2113 
z
" transform="scale(0.015625)"/>
      <path id="DejaVuSans-75" d="M 544 1381 
L 544 3500 
L 1119 3500 
L 1119 1403 
Q 1119 906 1312 657 
Q 1506 409 1894 409 
Q 2359 409 2629 706 
Q 2900 1003 2900 1516 
L 2900 3500 
L 3475 3500 
L 3475 0 
L 2900 0 
L 2900 538 
Q 2691 219 2414 64 
Q 2138 -91 1772 -91 
Q 1169 -91 856 284 
Q 544 659 544 1381 
z
M 1991 3584 
L 1991 3584 
z
" transform="scale(0.015625)"/>
      <path id="DejaVuSans-6d" d="M 3328 2828 
Q 3544 3216 3844 3400 
Q 4144 3584 4550 3584 
Q 5097 3584 5394 3201 
Q 5691 2819 5691 2113 
L 5691 0 
L 5113 0 
L 5113 2094 
Q 5113 2597 4934 2840 
Q 4756 3084 4391 3084 
Q 3944 3084 3684 2787 
Q 3425 2491 3425 1978 
L 3425 0 
L 2847 0 
L 2847 2094 
Q 2847 2600 2669 2842 
Q 2491 3084 2119 3084 
Q 1678 3084 1418 2786 
Q 1159 2488 1159 1978 
L 1159 0 
L 581 0 
L 581 3500 
L 1159 3500 
L 1159 2956 
Q 1356 3278 1631 3431 
Q 1906 3584 2284 3584 
Q 2666 3584 2933 3390 
Q 3200 3197 3328 2828 
z
" transform="scale(0.015625)"/>
      <path id="DejaVuSans-65" d="M 3597 1894 
L 3597 1613 
L 953 1613 
Q 991 1019 1311 708 
Q 1631 397 2203 397 
Q 2534 397 2845 478 
Q 3156 559 3463 722 
L 3463 178 
Q 3153 47 2828 -22 
Q 2503 -91 2169 -91 
Q 1331 -91 842 396 
Q 353 884 353 1716 
Q 353 2575 817 3079 
Q 1281 3584 2069 3584 
Q 2775 3584 3186 3129 
Q 3597 2675 3597 1894 
z
M 3022 2063 
Q 3016 2534 2758 2815 
Q 2500 3097 2075 3097 
Q 1594 3097 1305 2825 
Q 1016 2553 972 2059 
L 3022 2063 
z
" transform="scale(0.015625)"/>
      <path id="DejaVuSans-72" d="M 2631 2963 
Q 2534 3019 2420 3045 
Q 2306 3072 2169 3072 
Q 1681 3072 1420 2755 
Q 1159 2438 1159 1844 
L 1159 0 
L 581 0 
L 581 3500 
L 1159 3500 
L 1159 2956 
Q 1341 3275 1631 3429 
Q 1922 3584 2338 3584 
Q 2397 3584 2469 3576 
Q 2541 3569 2628 3553 
L 2631 2963 
z
" transform="scale(0.015625)"/>
      <path id="DejaVuSans-69" d="M 603 3500 
L 1178 3500 
L 1178 0 
L 603 0 
L 603 3500 
z
M 603 4863 
L 1178 4863 
L 1178 4134 
L 603 4134 
L 603 4863 
z
" transform="scale(0.015625)"/>
      <path id="DejaVuSans-63" d="M 3122 3366 
L 3122 2828 
Q 2878 2963 2633 3030 
Q 2388 3097 2138 3097 
Q 1578 3097 1268 2742 
Q 959 2388 959 1747 
Q 959 1106 1268 751 
Q 1578 397 2138 397 
Q 2388 397 2633 464 
Q 2878 531 3122 666 
L 3122 134 
Q 2881 22 2623 -34 
Q 2366 -91 2075 -91 
Q 1284 -91 818 406 
Q 353 903 353 1747 
Q 353 2603 823 3093 
Q 1294 3584 2113 3584 
Q 2378 3584 2631 3529 
Q 2884 3475 3122 3366 
z
" transform="scale(0.015625)"/>
      <path id="DejaVuSans-5f" d="M 3263 -1063 
L 3263 -1509 
L -63 -1509 
L -63 -1063 
L 3263 -1063 
z
" transform="scale(0.015625)"/>
      <path id="DejaVuSans-74" d="M 1172 4494 
L 1172 3500 
L 2356 3500 
L 2356 3053 
L 1172 3053 
L 1172 1153 
Q 1172 725 1289 603 
Q 1406 481 1766 481 
L 2356 481 
L 2356 0 
L 1766 0 
Q 1100 0 847 248 
Q 594 497 594 1153 
L 594 3053 
L 172 3053 
L 172 3500 
L 594 3500 
L 594 4494 
L 1172 4494 
z
" transform="scale(0.015625)"/>
     </defs>
     <use xlink:href="#DejaVuSans-6e"/>
     <use xlink:href="#DejaVuSans-75" transform="translate(63.378906 0)"/>
     <use xlink:href="#DejaVuSans-6d" transform="translate(126.757812 0)"/>
     <use xlink:href="#DejaVuSans-65" transform="translate(224.169922 0)"/>
     <use xlink:href="#DejaVuSans-72" transform="translate(285.693359 0)"/>
     <use xlink:href="#DejaVuSans-69" transform="translate(326.806641 0)"/>
     <use xlink:href="#DejaVuSans-63" transform="translate(354.589844 0)"/>
     <use xlink:href="#DejaVuSans-5f" transform="translate(409.570312 0)"/>
     <use xlink:href="#DejaVuSans-5f" transform="translate(459.570312 0)"/>
     <use xlink:href="#DejaVuSans-74" transform="translate(509.570312 0)"/>
     <use xlink:href="#DejaVuSans-65" transform="translate(548.779297 0)"/>
     <use xlink:href="#DejaVuSans-6e" transform="translate(610.302734 0)"/>
     <use xlink:href="#DejaVuSans-75" transform="translate(673.681641 0)"/>
     <use xlink:href="#DejaVuSans-72" transform="translate(737.060547 0)"/>
     <use xlink:href="#DejaVuSans-65" transform="translate(775.923828 0)"/>
    </g>
   </g>
  </g>
  <g id="axes_2">
   <g id="patch_57">
    <path d="M 366.892469 332.12 
L 703.803121 332.12 
L 703.803121 26.88 
L 366.892469 26.88 
z
" style="fill: #ffffff"/>
   </g>
   <g id="patch_58">
    <path d="M 382.20659 332.12 
L 388.332238 332.12 
L 388.332238 259.44381 
L 382.20659 259.44381 
z
" clip-path="url(#pe27e719353)" style="fill: #1f77b4"/>
   </g>
   <g id="patch_59">
    <path d="M 388.332238 332.12 
L 394.457886 332.12 
L 394.457886 147.894308 
L 388.332238 147.894308 
z
" clip-path="url(#pe27e719353)" style="fill: #1f77b4"/>
   </g>
   <g id="patch_60">
    <path d="M 394.457886 332.12 
L 400.583534 332.12 
L 400.583534 239.162082 
L 394.457886 239.162082 
z
" clip-path="url(#pe27e719353)" style="fill: #1f77b4"/>
   </g>
   <g id="patch_61">
    <path d="M 400.583534 332.12 
L 406.709183 332.12 
L 406.709183 105.640709 
L 400.583534 105.640709 
z
" clip-path="url(#pe27e719353)" style="fill: #1f77b4"/>
   </g>
   <g id="patch_62">
    <path d="M 406.709183 332.12 
L 412.834831 332.12 
L 412.834831 201.978915 
L 406.709183 201.978915 
z
" clip-path="url(#pe27e719353)" style="fill: #1f77b4"/>
   </g>
   <g id="patch_63">
    <path d="M 412.834831 332.12 
L 418.960479 332.12 
L 418.960479 71.837829 
L 412.834831 71.837829 
z
" clip-path="url(#pe27e719353)" style="fill: #1f77b4"/>
   </g>
   <g id="patch_64">
    <path d="M 418.960479 332.12 
L 425.086127 332.12 
L 425.086127 71.837829 
L 418.960479 71.837829 
z
" clip-path="url(#pe27e719353)" style="fill: #1f77b4"/>
   </g>
   <g id="patch_65">
    <path d="M 425.086127 332.12 
L 431.211776 332.12 
L 431.211776 201.978915 
L 425.086127 201.978915 
z
" clip-path="url(#pe27e719353)" style="fill: #1f77b4"/>
   </g>
   <g id="patch_66">
    <path d="M 431.211776 332.12 
L 437.337424 332.12 
L 437.337424 71.837829 
L 431.211776 71.837829 
z
" clip-path="url(#pe27e719353)" style="fill: #1f77b4"/>
   </g>
   <g id="patch_67">
    <path d="M 437.337424 332.12 
L 443.463072 332.12 
L 443.463072 201.978915 
L 437.337424 201.978915 
z
" clip-path="url(#pe27e719353)" style="fill: #1f77b4"/>
   </g>
   <g id="patch_68">
    <path d="M 443.463072 332.12 
L 449.58872 332.12 
L 449.58872 71.837829 
L 443.463072 71.837829 
z
" clip-path="url(#pe27e719353)" style="fill: #1f77b4"/>
   </g>
   <g id="patch_69">
    <path d="M 449.58872 332.12 
L 455.714368 332.12 
L 455.714368 201.978915 
L 449.58872 201.978915 
z
" clip-path="url(#pe27e719353)" style="fill: #1f77b4"/>
   </g>
   <g id="patch_70">
    <path d="M 455.714368 332.12 
L 461.840017 332.12 
L 461.840017 71.837829 
L 455.714368 71.837829 
z
" clip-path="url(#pe27e719353)" style="fill: #1f77b4"/>
   </g>
   <g id="patch_71">
    <path d="M 461.840017 332.12 
L 467.965665 332.12 
L 467.965665 71.837829 
L 461.840017 71.837829 
z
" clip-path="url(#pe27e719353)" style="fill: #1f77b4"/>
   </g>
   <g id="patch_72">
    <path d="M 467.965665 332.12 
L 474.091313 332.12 
L 474.091313 201.978915 
L 467.965665 201.978915 
z
" clip-path="url(#pe27e719353)" style="fill: #1f77b4"/>
   </g>
   <g id="patch_73">
    <path d="M 474.091313 332.12 
L 480.216961 332.12 
L 480.216961 71.837829 
L 474.091313 71.837829 
z
" clip-path="url(#pe27e719353)" style="fill: #1f77b4"/>
   </g>
   <g id="patch_74">
    <path d="M 480.216961 332.12 
L 486.34261 332.12 
L 486.34261 201.978915 
L 480.216961 201.978915 
z
" clip-path="url(#pe27e719353)" style="fill: #1f77b4"/>
   </g>
   <g id="patch_75">
    <path d="M 486.34261 332.12 
L 492.468258 332.12 
L 492.468258 71.837829 
L 486.34261 71.837829 
z
" clip-path="url(#pe27e719353)" style="fill: #1f77b4"/>
   </g>
   <g id="patch_76">
    <path d="M 492.468258 332.12 
L 498.593906 332.12 
L 498.593906 71.837829 
L 492.468258 71.837829 
z
" clip-path="url(#pe27e719353)" style="fill: #1f77b4"/>
   </g>
   <g id="patch_77">
    <path d="M 498.593906 332.12 
L 504.719554 332.12 
L 504.719554 201.978915 
L 498.593906 201.978915 
z
" clip-path="url(#pe27e719353)" style="fill: #1f77b4"/>
   </g>
   <g id="patch_78">
    <path d="M 504.719554 332.12 
L 510.845202 332.12 
L 510.845202 71.837829 
L 504.719554 71.837829 
z
" clip-path="url(#pe27e719353)" style="fill: #1f77b4"/>
   </g>
   <g id="patch_79">
    <path d="M 510.845202 332.12 
L 516.970851 332.12 
L 516.970851 201.978915 
L 510.845202 201.978915 
z
" clip-path="url(#pe27e719353)" style="fill: #1f77b4"/>
   </g>
   <g id="patch_80">
    <path d="M 516.970851 332.12 
L 523.096499 332.12 
L 523.096499 70.147685 
L 516.970851 70.147685 
z
" clip-path="url(#pe27e719353)" style="fill: #1f77b4"/>
   </g>
   <g id="patch_81">
    <path d="M 523.096499 332.12 
L 529.222147 332.12 
L 529.222147 200.288771 
L 523.096499 200.288771 
z
" clip-path="url(#pe27e719353)" style="fill: #1f77b4"/>
   </g>
   <g id="patch_82">
    <path d="M 529.222147 332.12 
L 535.347795 332.12 
L 535.347795 68.457542 
L 529.222147 68.457542 
z
" clip-path="url(#pe27e719353)" style="fill: #1f77b4"/>
   </g>
   <g id="patch_83">
    <path d="M 535.347795 332.12 
L 541.473443 332.12 
L 541.473443 65.077254 
L 535.347795 65.077254 
z
" clip-path="url(#pe27e719353)" style="fill: #1f77b4"/>
   </g>
   <g id="patch_84">
    <path d="M 541.473443 332.12 
L 547.599092 332.12 
L 547.599092 196.908483 
L 541.473443 196.908483 
z
" clip-path="url(#pe27e719353)" style="fill: #1f77b4"/>
   </g>
   <g id="patch_85">
    <path d="M 547.599092 332.12 
L 553.72474 332.12 
L 553.72474 56.626534 
L 547.599092 56.626534 
z
" clip-path="url(#pe27e719353)" style="fill: #1f77b4"/>
   </g>
   <g id="patch_86">
    <path d="M 553.72474 332.12 
L 559.850388 332.12 
L 559.850388 193.528195 
L 553.72474 193.528195 
z
" clip-path="url(#pe27e719353)" style="fill: #1f77b4"/>
   </g>
   <g id="patch_87">
    <path d="M 559.850388 332.12 
L 565.976036 332.12 
L 565.976036 51.556102 
L 559.850388 51.556102 
z
" clip-path="url(#pe27e719353)" style="fill: #1f77b4"/>
   </g>
   <g id="patch_88">
    <path d="M 565.976036 332.12 
L 572.101685 332.12 
L 572.101685 190.147907 
L 565.976036 190.147907 
z
" clip-path="url(#pe27e719353)" style="fill: #1f77b4"/>
   </g>
   <g id="patch_89">
    <path d="M 572.101685 332.12 
L 578.227333 332.12 
L 578.227333 48.175814 
L 572.101685 48.175814 
z
" clip-path="url(#pe27e719353)" style="fill: #1f77b4"/>
   </g>
   <g id="patch_90">
    <path d="M 578.227333 332.12 
L 584.352981 332.12 
L 584.352981 48.175814 
L 578.227333 48.175814 
z
" clip-path="url(#pe27e719353)" style="fill: #1f77b4"/>
   </g>
   <g id="patch_91">
    <path d="M 584.352981 332.12 
L 590.478629 332.12 
L 590.478629 190.147907 
L 584.352981 190.147907 
z
" clip-path="url(#pe27e719353)" style="fill: #1f77b4"/>
   </g>
   <g id="patch_92">
    <path d="M 590.478629 332.12 
L 596.604277 332.12 
L 596.604277 48.175814 
L 590.478629 48.175814 
z
" clip-path="url(#pe27e719353)" style="fill: #1f77b4"/>
   </g>
   <g id="patch_93">
    <path d="M 596.604277 332.12 
L 602.729926 332.12 
L 602.729926 190.147907 
L 596.604277 190.147907 
z
" clip-path="url(#pe27e719353)" style="fill: #1f77b4"/>
   </g>
   <g id="patch_94">
    <path d="M 602.729926 332.12 
L 608.855574 332.12 
L 608.855574 48.175814 
L 602.729926 48.175814 
z
" clip-path="url(#pe27e719353)" style="fill: #1f77b4"/>
   </g>
   <g id="patch_95">
    <path d="M 608.855574 332.12 
L 614.981222 332.12 
L 614.981222 48.175814 
L 608.855574 48.175814 
z
" clip-path="url(#pe27e719353)" style="fill: #1f77b4"/>
   </g>
   <g id="patch_96">
    <path d="M 614.981222 332.12 
L 621.10687 332.12 
L 621.10687 190.147907 
L 614.981222 190.147907 
z
" clip-path="url(#pe27e719353)" style="fill: #1f77b4"/>
   </g>
   <g id="patch_97">
    <path d="M 621.10687 332.12 
L 627.232518 332.12 
L 627.232518 48.175814 
L 621.10687 48.175814 
z
" clip-path="url(#pe27e719353)" style="fill: #1f77b4"/>
   </g>
   <g id="patch_98">
    <path d="M 627.232518 332.12 
L 633.358167 332.12 
L 633.358167 190.147907 
L 627.232518 190.147907 
z
" clip-path="url(#pe27e719353)" style="fill: #1f77b4"/>
   </g>
   <g id="patch_99">
    <path d="M 633.358167 332.12 
L 639.483815 332.12 
L 639.483815 48.175814 
L 633.358167 48.175814 
z
" clip-path="url(#pe27e719353)" style="fill: #1f77b4"/>
   </g>
   <g id="patch_100">
    <path d="M 639.483815 332.12 
L 645.609463 332.12 
L 645.609463 190.147907 
L 639.483815 190.147907 
z
" clip-path="url(#pe27e719353)" style="fill: #1f77b4"/>
   </g>
   <g id="patch_101">
    <path d="M 645.609463 332.12 
L 651.735111 332.12 
L 651.735111 48.175814 
L 645.609463 48.175814 
z
" clip-path="url(#pe27e719353)" style="fill: #1f77b4"/>
   </g>
   <g id="patch_102">
    <path d="M 651.735111 332.12 
L 657.86076 332.12 
L 657.86076 44.795526 
L 651.735111 44.795526 
z
" clip-path="url(#pe27e719353)" style="fill: #1f77b4"/>
   </g>
   <g id="patch_103">
    <path d="M 657.86076 332.12 
L 663.986408 332.12 
L 663.986408 188.457763 
L 657.86076 188.457763 
z
" clip-path="url(#pe27e719353)" style="fill: #1f77b4"/>
   </g>
   <g id="patch_104">
    <path d="M 663.986408 332.12 
L 670.112056 332.12 
L 670.112056 44.795526 
L 663.986408 44.795526 
z
" clip-path="url(#pe27e719353)" style="fill: #1f77b4"/>
   </g>
   <g id="patch_105">
    <path d="M 670.112056 332.12 
L 676.237704 332.12 
L 676.237704 188.457763 
L 670.112056 188.457763 
z
" clip-path="url(#pe27e719353)" style="fill: #1f77b4"/>
   </g>
   <g id="patch_106">
    <path d="M 676.237704 332.12 
L 682.363352 332.12 
L 682.363352 43.105382 
L 676.237704 43.105382 
z
" clip-path="url(#pe27e719353)" style="fill: #1f77b4"/>
   </g>
   <g id="patch_107">
    <path d="M 682.363352 332.12 
L 688.489001 332.12 
L 688.489001 41.415238 
L 682.363352 41.415238 
z
" clip-path="url(#pe27e719353)" style="fill: #1f77b4"/>
   </g>
   <g id="matplotlib.axis_3">
    <g id="xtick_7">
     <g id="line2d_7">
      <g>
       <use xlink:href="#m7882fe71fc" x="389.960575" y="332.12" style="stroke: #000000; stroke-width: 0.8"/>
      </g>
     </g>
     <g id="text_8">
      <!-- 20 -->
      <g transform="translate(383.598075 346.718437) scale(0.1 -0.1)">
       <use xlink:href="#DejaVuSans-32"/>
       <use xlink:href="#DejaVuSans-30" transform="translate(63.623047 0)"/>
      </g>
     </g>
    </g>
    <g id="xtick_8">
     <g id="line2d_8">
      <g>
       <use xlink:href="#m7882fe71fc" x="428.7305" y="332.12" style="stroke: #000000; stroke-width: 0.8"/>
      </g>
     </g>
     <g id="text_9">
      <!-- 30 -->
      <g transform="translate(422.368 346.718437) scale(0.1 -0.1)">
       <use xlink:href="#DejaVuSans-33"/>
       <use xlink:href="#DejaVuSans-30" transform="translate(63.623047 0)"/>
      </g>
     </g>
    </g>
    <g id="xtick_9">
     <g id="line2d_9">
      <g>
       <use xlink:href="#m7882fe71fc" x="467.500426" y="332.12" style="stroke: #000000; stroke-width: 0.8"/>
      </g>
     </g>
     <g id="text_10">
      <!-- 40 -->
      <g transform="translate(461.137926 346.718437) scale(0.1 -0.1)">
       <use xlink:href="#DejaVuSans-34"/>
       <use xlink:href="#DejaVuSans-30" transform="translate(63.623047 0)"/>
      </g>
     </g>
    </g>
    <g id="xtick_10">
     <g id="line2d_10">
      <g>
       <use xlink:href="#m7882fe71fc" x="506.270351" y="332.12" style="stroke: #000000; stroke-width: 0.8"/>
      </g>
     </g>
     <g id="text_11">
      <!-- 50 -->
      <g transform="translate(499.907851 346.718437) scale(0.1 -0.1)">
       <use xlink:href="#DejaVuSans-35"/>
       <use xlink:href="#DejaVuSans-30" transform="translate(63.623047 0)"/>
      </g>
     </g>
    </g>
    <g id="xtick_11">
     <g id="line2d_11">
      <g>
       <use xlink:href="#m7882fe71fc" x="545.040277" y="332.12" style="stroke: #000000; stroke-width: 0.8"/>
      </g>
     </g>
     <g id="text_12">
      <!-- 60 -->
      <g transform="translate(538.677777 346.718437) scale(0.1 -0.1)">
       <use xlink:href="#DejaVuSans-36"/>
       <use xlink:href="#DejaVuSans-30" transform="translate(63.623047 0)"/>
      </g>
     </g>
    </g>
    <g id="xtick_12">
     <g id="line2d_12">
      <g>
       <use xlink:href="#m7882fe71fc" x="583.810202" y="332.12" style="stroke: #000000; stroke-width: 0.8"/>
      </g>
     </g>
     <g id="text_13">
      <!-- 70 -->
      <g transform="translate(577.447702 346.718437) scale(0.1 -0.1)">
       <use xlink:href="#DejaVuSans-37"/>
       <use xlink:href="#DejaVuSans-30" transform="translate(63.623047 0)"/>
      </g>
     </g>
    </g>
    <g id="xtick_13">
     <g id="line2d_13">
      <g>
       <use xlink:href="#m7882fe71fc" x="622.580127" y="332.12" style="stroke: #000000; stroke-width: 0.8"/>
      </g>
     </g>
     <g id="text_14">
      <!-- 80 -->
      <g transform="translate(616.217627 346.718437) scale(0.1 -0.1)">
       <defs>
        <path id="DejaVuSans-38" d="M 2034 2216 
Q 1584 2216 1326 1975 
Q 1069 1734 1069 1313 
Q 1069 891 1326 650 
Q 1584 409 2034 409 
Q 2484 409 2743 651 
Q 3003 894 3003 1313 
Q 3003 1734 2745 1975 
Q 2488 2216 2034 2216 
z
M 1403 2484 
Q 997 2584 770 2862 
Q 544 3141 544 3541 
Q 544 4100 942 4425 
Q 1341 4750 2034 4750 
Q 2731 4750 3128 4425 
Q 3525 4100 3525 3541 
Q 3525 3141 3298 2862 
Q 3072 2584 2669 2484 
Q 3125 2378 3379 2068 
Q 3634 1759 3634 1313 
Q 3634 634 3220 271 
Q 2806 -91 2034 -91 
Q 1263 -91 848 271 
Q 434 634 434 1313 
Q 434 1759 690 2068 
Q 947 2378 1403 2484 
z
M 1172 3481 
Q 1172 3119 1398 2916 
Q 1625 2713 2034 2713 
Q 2441 2713 2670 2916 
Q 2900 3119 2900 3481 
Q 2900 3844 2670 4047 
Q 2441 4250 2034 4250 
Q 1625 4250 1398 4047 
Q 1172 3844 1172 3481 
z
" transform="scale(0.015625)"/>
       </defs>
       <use xlink:href="#DejaVuSans-38"/>
       <use xlink:href="#DejaVuSans-30" transform="translate(63.623047 0)"/>
      </g>
     </g>
    </g>
    <g id="xtick_14">
     <g id="line2d_14">
      <g>
       <use xlink:href="#m7882fe71fc" x="661.350053" y="332.12" style="stroke: #000000; stroke-width: 0.8"/>
      </g>
     </g>
     <g id="text_15">
      <!-- 90 -->
      <g transform="translate(654.987553 346.718437) scale(0.1 -0.1)">
       <defs>
        <path id="DejaVuSans-39" d="M 703 97 
L 703 672 
Q 941 559 1184 500 
Q 1428 441 1663 441 
Q 2288 441 2617 861 
Q 2947 1281 2994 2138 
Q 2813 1869 2534 1725 
Q 2256 1581 1919 1581 
Q 1219 1581 811 2004 
Q 403 2428 403 3163 
Q 403 3881 828 4315 
Q 1253 4750 1959 4750 
Q 2769 4750 3195 4129 
Q 3622 3509 3622 2328 
Q 3622 1225 3098 567 
Q 2575 -91 1691 -91 
Q 1453 -91 1209 -44 
Q 966 3 703 97 
z
M 1959 2075 
Q 2384 2075 2632 2365 
Q 2881 2656 2881 3163 
Q 2881 3666 2632 3958 
Q 2384 4250 1959 4250 
Q 1534 4250 1286 3958 
Q 1038 3666 1038 3163 
Q 1038 2656 1286 2365 
Q 1534 2075 1959 2075 
z
" transform="scale(0.015625)"/>
       </defs>
       <use xlink:href="#DejaVuSans-39"/>
       <use xlink:href="#DejaVuSans-30" transform="translate(63.623047 0)"/>
      </g>
     </g>
    </g>
    <g id="xtick_15">
     <g id="line2d_15">
      <g>
       <use xlink:href="#m7882fe71fc" x="700.119978" y="332.12" style="stroke: #000000; stroke-width: 0.8"/>
      </g>
     </g>
     <g id="text_16">
      <!-- 100 -->
      <g transform="translate(690.576228 346.718437) scale(0.1 -0.1)">
       <defs>
        <path id="DejaVuSans-31" d="M 794 531 
L 1825 531 
L 1825 4091 
L 703 3866 
L 703 4441 
L 1819 4666 
L 2450 4666 
L 2450 531 
L 3481 531 
L 3481 0 
L 794 0 
L 794 531 
z
" transform="scale(0.015625)"/>
       </defs>
       <use xlink:href="#DejaVuSans-31"/>
       <use xlink:href="#DejaVuSans-30" transform="translate(63.623047 0)"/>
       <use xlink:href="#DejaVuSans-30" transform="translate(127.246094 0)"/>
      </g>
     </g>
    </g>
   </g>
   <g id="matplotlib.axis_4"/>
   <g id="patch_108">
    <path d="M 366.892469 332.12 
L 366.892469 26.88 
" style="fill: none; stroke: #000000; stroke-width: 0.8; stroke-linejoin: miter; stroke-linecap: square"/>
   </g>
   <g id="patch_109">
    <path d="M 703.803121 332.12 
L 703.803121 26.88 
" style="fill: none; stroke: #000000; stroke-width: 0.8; stroke-linejoin: miter; stroke-linecap: square"/>
   </g>
   <g id="patch_110">
    <path d="M 366.892469 332.12 
L 703.803121 332.12 
" style="fill: none; stroke: #000000; stroke-width: 0.8; stroke-linejoin: miter; stroke-linecap: square"/>
   </g>
   <g id="patch_111">
    <path d="M 366.892469 26.88 
L 703.803121 26.88 
" style="fill: none; stroke: #000000; stroke-width: 0.8; stroke-linejoin: miter; stroke-linecap: square"/>
   </g>
   <g id="text_17">
    <!-- numeric__MonthlyCharges -->
    <g transform="translate(456.09342 20.88) scale(0.12 -0.12)">
     <defs>
      <path id="DejaVuSans-4d" d="M 628 4666 
L 1569 4666 
L 2759 1491 
L 3956 4666 
L 4897 4666 
L 4897 0 
L 4281 0 
L 4281 4097 
L 3078 897 
L 2444 897 
L 1241 4097 
L 1241 0 
L 628 0 
L 628 4666 
z
" transform="scale(0.015625)"/>
      <path id="DejaVuSans-6f" d="M 1959 3097 
Q 1497 3097 1228 2736 
Q 959 2375 959 1747 
Q 959 1119 1226 758 
Q 1494 397 1959 397 
Q 2419 397 2687 759 
Q 2956 1122 2956 1747 
Q 2956 2369 2687 2733 
Q 2419 3097 1959 3097 
z
M 1959 3584 
Q 2709 3584 3137 3096 
Q 3566 2609 3566 1747 
Q 3566 888 3137 398 
Q 2709 -91 1959 -91 
Q 1206 -91 779 398 
Q 353 888 353 1747 
Q 353 2609 779 3096 
Q 1206 3584 1959 3584 
z
" transform="scale(0.015625)"/>
      <path id="DejaVuSans-68" d="M 3513 2113 
L 3513 0 
L 2938 0 
L 2938 2094 
Q 2938 2591 2744 2837 
Q 2550 3084 2163 3084 
Q 1697 3084 1428 2787 
Q 1159 2491 1159 1978 
L 1159 0 
L 581 0 
L 581 4863 
L 1159 4863 
L 1159 2956 
Q 1366 3272 1645 3428 
Q 1925 3584 2291 3584 
Q 2894 3584 3203 3211 
Q 3513 2838 3513 2113 
z
" transform="scale(0.015625)"/>
      <path id="DejaVuSans-6c" d="M 603 4863 
L 1178 4863 
L 1178 0 
L 603 0 
L 603 4863 
z
" transform="scale(0.015625)"/>
      <path id="DejaVuSans-79" d="M 2059 -325 
Q 1816 -950 1584 -1140 
Q 1353 -1331 966 -1331 
L 506 -1331 
L 506 -850 
L 844 -850 
Q 1081 -850 1212 -737 
Q 1344 -625 1503 -206 
L 1606 56 
L 191 3500 
L 800 3500 
L 1894 763 
L 2988 3500 
L 3597 3500 
L 2059 -325 
z
" transform="scale(0.015625)"/>
      <path id="DejaVuSans-43" d="M 4122 4306 
L 4122 3641 
Q 3803 3938 3442 4084 
Q 3081 4231 2675 4231 
Q 1875 4231 1450 3742 
Q 1025 3253 1025 2328 
Q 1025 1406 1450 917 
Q 1875 428 2675 428 
Q 3081 428 3442 575 
Q 3803 722 4122 1019 
L 4122 359 
Q 3791 134 3420 21 
Q 3050 -91 2638 -91 
Q 1578 -91 968 557 
Q 359 1206 359 2328 
Q 359 3453 968 4101 
Q 1578 4750 2638 4750 
Q 3056 4750 3426 4639 
Q 3797 4528 4122 4306 
z
" transform="scale(0.015625)"/>
      <path id="DejaVuSans-61" d="M 2194 1759 
Q 1497 1759 1228 1600 
Q 959 1441 959 1056 
Q 959 750 1161 570 
Q 1363 391 1709 391 
Q 2188 391 2477 730 
Q 2766 1069 2766 1631 
L 2766 1759 
L 2194 1759 
z
M 3341 1997 
L 3341 0 
L 2766 0 
L 2766 531 
Q 2569 213 2275 61 
Q 1981 -91 1556 -91 
Q 1019 -91 701 211 
Q 384 513 384 1019 
Q 384 1609 779 1909 
Q 1175 2209 1959 2209 
L 2766 2209 
L 2766 2266 
Q 2766 2663 2505 2880 
Q 2244 3097 1772 3097 
Q 1472 3097 1187 3025 
Q 903 2953 641 2809 
L 641 3341 
Q 956 3463 1253 3523 
Q 1550 3584 1831 3584 
Q 2591 3584 2966 3190 
Q 3341 2797 3341 1997 
z
" transform="scale(0.015625)"/>
      <path id="DejaVuSans-67" d="M 2906 1791 
Q 2906 2416 2648 2759 
Q 2391 3103 1925 3103 
Q 1463 3103 1205 2759 
Q 947 2416 947 1791 
Q 947 1169 1205 825 
Q 1463 481 1925 481 
Q 2391 481 2648 825 
Q 2906 1169 2906 1791 
z
M 3481 434 
Q 3481 -459 3084 -895 
Q 2688 -1331 1869 -1331 
Q 1566 -1331 1297 -1286 
Q 1028 -1241 775 -1147 
L 775 -588 
Q 1028 -725 1275 -790 
Q 1522 -856 1778 -856 
Q 2344 -856 2625 -561 
Q 2906 -266 2906 331 
L 2906 616 
Q 2728 306 2450 153 
Q 2172 0 1784 0 
Q 1141 0 747 490 
Q 353 981 353 1791 
Q 353 2603 747 3093 
Q 1141 3584 1784 3584 
Q 2172 3584 2450 3431 
Q 2728 3278 2906 2969 
L 2906 3500 
L 3481 3500 
L 3481 434 
z
" transform="scale(0.015625)"/>
      <path id="DejaVuSans-73" d="M 2834 3397 
L 2834 2853 
Q 2591 2978 2328 3040 
Q 2066 3103 1784 3103 
Q 1356 3103 1142 2972 
Q 928 2841 928 2578 
Q 928 2378 1081 2264 
Q 1234 2150 1697 2047 
L 1894 2003 
Q 2506 1872 2764 1633 
Q 3022 1394 3022 966 
Q 3022 478 2636 193 
Q 2250 -91 1575 -91 
Q 1294 -91 989 -36 
Q 684 19 347 128 
L 347 722 
Q 666 556 975 473 
Q 1284 391 1588 391 
Q 1994 391 2212 530 
Q 2431 669 2431 922 
Q 2431 1156 2273 1281 
Q 2116 1406 1581 1522 
L 1381 1569 
Q 847 1681 609 1914 
Q 372 2147 372 2553 
Q 372 3047 722 3315 
Q 1072 3584 1716 3584 
Q 2034 3584 2315 3537 
Q 2597 3491 2834 3397 
z
" transform="scale(0.015625)"/>
     </defs>
     <use xlink:href="#DejaVuSans-6e"/>
     <use xlink:href="#DejaVuSans-75" transform="translate(63.378906 0)"/>
     <use xlink:href="#DejaVuSans-6d" transform="translate(126.757812 0)"/>
     <use xlink:href="#DejaVuSans-65" transform="translate(224.169922 0)"/>
     <use xlink:href="#DejaVuSans-72" transform="translate(285.693359 0)"/>
     <use xlink:href="#DejaVuSans-69" transform="translate(326.806641 0)"/>
     <use xlink:href="#DejaVuSans-63" transform="translate(354.589844 0)"/>
     <use xlink:href="#DejaVuSans-5f" transform="translate(409.570312 0)"/>
     <use xlink:href="#DejaVuSans-5f" transform="translate(459.570312 0)"/>
     <use xlink:href="#DejaVuSans-4d" transform="translate(509.570312 0)"/>
     <use xlink:href="#DejaVuSans-6f" transform="translate(595.849609 0)"/>
     <use xlink:href="#DejaVuSans-6e" transform="translate(657.03125 0)"/>
     <use xlink:href="#DejaVuSans-74" transform="translate(720.410156 0)"/>
     <use xlink:href="#DejaVuSans-68" transform="translate(759.619141 0)"/>
     <use xlink:href="#DejaVuSans-6c" transform="translate(822.998047 0)"/>
     <use xlink:href="#DejaVuSans-79" transform="translate(850.78125 0)"/>
     <use xlink:href="#DejaVuSans-43" transform="translate(909.960938 0)"/>
     <use xlink:href="#DejaVuSans-68" transform="translate(979.785156 0)"/>
     <use xlink:href="#DejaVuSans-61" transform="translate(1043.164062 0)"/>
     <use xlink:href="#DejaVuSans-72" transform="translate(1104.443359 0)"/>
     <use xlink:href="#DejaVuSans-67" transform="translate(1143.806641 0)"/>
     <use xlink:href="#DejaVuSans-65" transform="translate(1207.283203 0)"/>
     <use xlink:href="#DejaVuSans-73" transform="translate(1268.806641 0)"/>
    </g>
   </g>
  </g>
  <g id="axes_3">
   <g id="patch_112">
    <path d="M 722.984939 332.12 
L 1059.89559 332.12 
L 1059.89559 26.88 
L 722.984939 26.88 
z
" style="fill: #ffffff"/>
   </g>
   <g id="patch_113">
    <path d="M 738.299059 332.12 
L 744.424707 332.12 
L 744.424707 326.75111 
L 738.299059 326.75111 
z
" clip-path="url(#p178e249379)" style="fill: #1f77b4"/>
   </g>
   <g id="patch_114">
    <path d="M 744.424707 332.12 
L 750.550356 332.12 
L 750.550356 326.75111 
L 744.424707 326.75111 
z
" clip-path="url(#p178e249379)" style="fill: #1f77b4"/>
   </g>
   <g id="patch_115">
    <path d="M 750.550356 332.12 
L 756.676004 332.12 
L 756.676004 326.75111 
L 750.550356 326.75111 
z
" clip-path="url(#p178e249379)" style="fill: #1f77b4"/>
   </g>
   <g id="patch_116">
    <path d="M 756.676004 332.12 
L 762.801652 332.12 
L 762.801652 325.636032 
L 756.676004 325.636032 
z
" clip-path="url(#p178e249379)" style="fill: #1f77b4"/>
   </g>
   <g id="patch_117">
    <path d="M 762.801652 332.12 
L 768.9273 332.12 
L 768.9273 311.016131 
L 762.801652 311.016131 
z
" clip-path="url(#p178e249379)" style="fill: #1f77b4"/>
   </g>
   <g id="patch_118">
    <path d="M 768.9273 332.12 
L 775.052948 332.12 
L 775.052948 293.91828 
L 768.9273 293.91828 
z
" clip-path="url(#p178e249379)" style="fill: #1f77b4"/>
   </g>
   <g id="patch_119">
    <path d="M 775.052948 332.12 
L 781.178597 332.12 
L 781.178597 276.696532 
L 775.052948 276.696532 
z
" clip-path="url(#p178e249379)" style="fill: #1f77b4"/>
   </g>
   <g id="patch_120">
    <path d="M 781.178597 332.12 
L 787.304245 332.12 
L 787.304245 242.211737 
L 781.178597 242.211737 
z
" clip-path="url(#p178e249379)" style="fill: #1f77b4"/>
   </g>
   <g id="patch_121">
    <path d="M 787.304245 332.12 
L 793.429893 332.12 
L 793.429893 145.447813 
L 787.304245 145.447813 
z
" clip-path="url(#p178e249379)" style="fill: #1f77b4"/>
   </g>
   <g id="patch_122">
    <path d="M 793.429893 332.12 
L 799.555541 332.12 
L 799.555541 41.415238 
L 793.429893 41.415238 
z
" clip-path="url(#p178e249379)" style="fill: #1f77b4"/>
   </g>
   <g id="patch_123">
    <path d="M 799.555541 332.12 
L 805.68119 332.12 
L 805.68119 167.708058 
L 799.555541 167.708058 
z
" clip-path="url(#p178e249379)" style="fill: #1f77b4"/>
   </g>
   <g id="patch_124">
    <path d="M 805.68119 332.12 
L 811.806838 332.12 
L 811.806838 237.999223 
L 805.68119 237.999223 
z
" clip-path="url(#p178e249379)" style="fill: #1f77b4"/>
   </g>
   <g id="patch_125">
    <path d="M 811.806838 332.12 
L 817.932486 332.12 
L 817.932486 283.717389 
L 811.806838 283.717389 
z
" clip-path="url(#p178e249379)" style="fill: #1f77b4"/>
   </g>
   <g id="patch_126">
    <path d="M 817.932486 332.12 
L 824.058134 332.12 
L 824.058134 296.644025 
L 817.932486 296.644025 
z
" clip-path="url(#p178e249379)" style="fill: #1f77b4"/>
   </g>
   <g id="patch_127">
    <path d="M 824.058134 332.12 
L 830.183782 332.12 
L 830.183782 300.31965 
L 824.058134 300.31965 
z
" clip-path="url(#p178e249379)" style="fill: #1f77b4"/>
   </g>
   <g id="patch_128">
    <path d="M 830.183782 332.12 
L 836.309431 332.12 
L 836.309431 305.275548 
L 830.183782 305.275548 
z
" clip-path="url(#p178e249379)" style="fill: #1f77b4"/>
   </g>
   <g id="patch_129">
    <path d="M 836.309431 332.12 
L 842.435079 332.12 
L 842.435079 305.275548 
L 836.309431 305.275548 
z
" clip-path="url(#p178e249379)" style="fill: #1f77b4"/>
   </g>
   <g id="patch_130">
    <path d="M 842.435079 332.12 
L 848.560727 332.12 
L 848.560727 305.275548 
L 842.435079 305.275548 
z
" clip-path="url(#p178e249379)" style="fill: #1f77b4"/>
   </g>
   <g id="patch_131">
    <path d="M 848.560727 332.12 
L 854.686375 332.12 
L 854.686375 305.482044 
L 848.560727 305.482044 
z
" clip-path="url(#p178e249379)" style="fill: #1f77b4"/>
   </g>
   <g id="patch_132">
    <path d="M 854.686375 332.12 
L 860.812023 332.12 
L 860.812023 305.275548 
L 854.686375 305.275548 
z
" clip-path="url(#p178e249379)" style="fill: #1f77b4"/>
   </g>
   <g id="patch_133">
    <path d="M 860.812023 332.12 
L 866.937672 332.12 
L 866.937672 305.275548 
L 860.812023 305.275548 
z
" clip-path="url(#p178e249379)" style="fill: #1f77b4"/>
   </g>
   <g id="patch_134">
    <path d="M 866.937672 332.12 
L 873.06332 332.12 
L 873.06332 305.275548 
L 866.937672 305.275548 
z
" clip-path="url(#p178e249379)" style="fill: #1f77b4"/>
   </g>
   <g id="patch_135">
    <path d="M 873.06332 332.12 
L 879.188968 332.12 
L 879.188968 305.275548 
L 873.06332 305.275548 
z
" clip-path="url(#p178e249379)" style="fill: #1f77b4"/>
   </g>
   <g id="patch_136">
    <path d="M 879.188968 332.12 
L 885.314616 332.12 
L 885.314616 305.275548 
L 879.188968 305.275548 
z
" clip-path="url(#p178e249379)" style="fill: #1f77b4"/>
   </g>
   <g id="patch_137">
    <path d="M 885.314616 332.12 
L 891.440265 332.12 
L 891.440265 305.482044 
L 885.314616 305.482044 
z
" clip-path="url(#p178e249379)" style="fill: #1f77b4"/>
   </g>
   <g id="patch_138">
    <path d="M 891.440265 332.12 
L 897.565913 332.12 
L 897.565913 305.275548 
L 891.440265 305.275548 
z
" clip-path="url(#p178e249379)" style="fill: #1f77b4"/>
   </g>
   <g id="patch_139">
    <path d="M 897.565913 332.12 
L 903.691561 332.12 
L 903.691561 305.275548 
L 897.565913 305.275548 
z
" clip-path="url(#p178e249379)" style="fill: #1f77b4"/>
   </g>
   <g id="patch_140">
    <path d="M 903.691561 332.12 
L 909.817209 332.12 
L 909.817209 305.275548 
L 903.691561 305.275548 
z
" clip-path="url(#p178e249379)" style="fill: #1f77b4"/>
   </g>
   <g id="patch_141">
    <path d="M 909.817209 332.12 
L 915.942857 332.12 
L 915.942857 310.314045 
L 909.817209 310.314045 
z
" clip-path="url(#p178e249379)" style="fill: #1f77b4"/>
   </g>
   <g id="patch_142">
    <path d="M 915.942857 332.12 
L 922.068506 332.12 
L 922.068506 310.644439 
L 915.942857 310.644439 
z
" clip-path="url(#p178e249379)" style="fill: #1f77b4"/>
   </g>
   <g id="patch_143">
    <path d="M 922.068506 332.12 
L 928.194154 332.12 
L 928.194154 310.644439 
L 922.068506 310.644439 
z
" clip-path="url(#p178e249379)" style="fill: #1f77b4"/>
   </g>
   <g id="patch_144">
    <path d="M 928.194154 332.12 
L 934.319802 332.12 
L 934.319802 310.809635 
L 928.194154 310.809635 
z
" clip-path="url(#p178e249379)" style="fill: #1f77b4"/>
   </g>
   <g id="patch_145">
    <path d="M 934.319802 332.12 
L 940.44545 332.12 
L 940.44545 310.644439 
L 934.319802 310.644439 
z
" clip-path="url(#p178e249379)" style="fill: #1f77b4"/>
   </g>
   <g id="patch_146">
    <path d="M 940.44545 332.12 
L 946.571098 332.12 
L 946.571098 315.47644 
L 940.44545 315.47644 
z
" clip-path="url(#p178e249379)" style="fill: #1f77b4"/>
   </g>
   <g id="patch_147">
    <path d="M 946.571098 332.12 
L 952.696747 332.12 
L 952.696747 316.013329 
L 946.571098 316.013329 
z
" clip-path="url(#p178e249379)" style="fill: #1f77b4"/>
   </g>
   <g id="patch_148">
    <path d="M 952.696747 332.12 
L 958.822395 332.12 
L 958.822395 317.376201 
L 952.696747 317.376201 
z
" clip-path="url(#p178e249379)" style="fill: #1f77b4"/>
   </g>
   <g id="patch_149">
    <path d="M 958.822395 332.12 
L 964.948043 332.12 
L 964.948043 321.382219 
L 958.822395 321.382219 
z
" clip-path="url(#p178e249379)" style="fill: #1f77b4"/>
   </g>
   <g id="patch_150">
    <path d="M 964.948043 332.12 
L 971.073691 332.12 
L 971.073691 321.464818 
L 964.948043 321.464818 
z
" clip-path="url(#p178e249379)" style="fill: #1f77b4"/>
   </g>
   <g id="patch_151">
    <path d="M 971.073691 332.12 
L 977.19934 332.12 
L 977.19934 321.382219 
L 971.073691 321.382219 
z
" clip-path="url(#p178e249379)" style="fill: #1f77b4"/>
   </g>
   <g id="patch_152">
    <path d="M 977.19934 332.12 
L 983.324988 332.12 
L 983.324988 321.382219 
L 977.19934 321.382219 
z
" clip-path="url(#p178e249379)" style="fill: #1f77b4"/>
   </g>
   <g id="patch_153">
    <path d="M 983.324988 332.12 
L 989.450636 332.12 
L 989.450636 321.382219 
L 983.324988 321.382219 
z
" clip-path="url(#p178e249379)" style="fill: #1f77b4"/>
   </g>
   <g id="patch_154">
    <path d="M 989.450636 332.12 
L 995.576284 332.12 
L 995.576284 321.382219 
L 989.450636 321.382219 
z
" clip-path="url(#p178e249379)" style="fill: #1f77b4"/>
   </g>
   <g id="patch_155">
    <path d="M 995.576284 332.12 
L 1001.701932 332.12 
L 1001.701932 321.382219 
L 995.576284 321.382219 
z
" clip-path="url(#p178e249379)" style="fill: #1f77b4"/>
   </g>
   <g id="patch_156">
    <path d="M 1001.701932 332.12 
L 1007.827581 332.12 
L 1007.827581 321.464818 
L 1001.701932 321.464818 
z
" clip-path="url(#p178e249379)" style="fill: #1f77b4"/>
   </g>
   <g id="patch_157">
    <path d="M 1007.827581 332.12 
L 1013.953229 332.12 
L 1013.953229 321.382219 
L 1007.827581 321.382219 
z
" clip-path="url(#p178e249379)" style="fill: #1f77b4"/>
   </g>
   <g id="patch_158">
    <path d="M 1013.953229 332.12 
L 1020.078877 332.12 
L 1020.078877 321.382219 
L 1013.953229 321.382219 
z
" clip-path="url(#p178e249379)" style="fill: #1f77b4"/>
   </g>
   <g id="patch_159">
    <path d="M 1020.078877 332.12 
L 1026.204525 332.12 
L 1026.204525 321.382219 
L 1020.078877 321.382219 
z
" clip-path="url(#p178e249379)" style="fill: #1f77b4"/>
   </g>
   <g id="patch_160">
    <path d="M 1026.204525 332.12 
L 1032.330173 332.12 
L 1032.330173 321.382219 
L 1026.204525 321.382219 
z
" clip-path="url(#p178e249379)" style="fill: #1f77b4"/>
   </g>
   <g id="patch_161">
    <path d="M 1032.330173 332.12 
L 1038.455822 332.12 
L 1038.455822 326.338118 
L 1032.330173 326.338118 
z
" clip-path="url(#p178e249379)" style="fill: #1f77b4"/>
   </g>
   <g id="patch_162">
    <path d="M 1038.455822 332.12 
L 1044.58147 332.12 
L 1044.58147 326.75111 
L 1038.455822 326.75111 
z
" clip-path="url(#p178e249379)" style="fill: #1f77b4"/>
   </g>
   <g id="matplotlib.axis_5">
    <g id="xtick_16">
     <g id="line2d_16">
      <g>
       <use xlink:href="#m7882fe71fc" x="725.136275" y="332.12" style="stroke: #000000; stroke-width: 0.8"/>
      </g>
     </g>
     <g id="text_18">
      <!-- 0 -->
      <g transform="translate(721.955025 346.718437) scale(0.1 -0.1)">
       <use xlink:href="#DejaVuSans-30"/>
      </g>
     </g>
    </g>
    <g id="xtick_17">
     <g id="line2d_17">
      <g>
       <use xlink:href="#m7882fe71fc" x="772.314712" y="332.12" style="stroke: #000000; stroke-width: 0.8"/>
      </g>
     </g>
     <g id="text_19">
      <!-- 1000 -->
      <g transform="translate(759.589712 346.718437) scale(0.1 -0.1)">
       <use xlink:href="#DejaVuSans-31"/>
       <use xlink:href="#DejaVuSans-30" transform="translate(63.623047 0)"/>
       <use xlink:href="#DejaVuSans-30" transform="translate(127.246094 0)"/>
       <use xlink:href="#DejaVuSans-30" transform="translate(190.869141 0)"/>
      </g>
     </g>
    </g>
    <g id="xtick_18">
     <g id="line2d_18">
      <g>
       <use xlink:href="#m7882fe71fc" x="819.493149" y="332.12" style="stroke: #000000; stroke-width: 0.8"/>
      </g>
     </g>
     <g id="text_20">
      <!-- 2000 -->
      <g transform="translate(806.768149 346.718437) scale(0.1 -0.1)">
       <use xlink:href="#DejaVuSans-32"/>
       <use xlink:href="#DejaVuSans-30" transform="translate(63.623047 0)"/>
       <use xlink:href="#DejaVuSans-30" transform="translate(127.246094 0)"/>
       <use xlink:href="#DejaVuSans-30" transform="translate(190.869141 0)"/>
      </g>
     </g>
    </g>
    <g id="xtick_19">
     <g id="line2d_19">
      <g>
       <use xlink:href="#m7882fe71fc" x="866.671585" y="332.12" style="stroke: #000000; stroke-width: 0.8"/>
      </g>
     </g>
     <g id="text_21">
      <!-- 3000 -->
      <g transform="translate(853.946585 346.718437) scale(0.1 -0.1)">
       <use xlink:href="#DejaVuSans-33"/>
       <use xlink:href="#DejaVuSans-30" transform="translate(63.623047 0)"/>
       <use xlink:href="#DejaVuSans-30" transform="translate(127.246094 0)"/>
       <use xlink:href="#DejaVuSans-30" transform="translate(190.869141 0)"/>
      </g>
     </g>
    </g>
    <g id="xtick_20">
     <g id="line2d_20">
      <g>
       <use xlink:href="#m7882fe71fc" x="913.850022" y="332.12" style="stroke: #000000; stroke-width: 0.8"/>
      </g>
     </g>
     <g id="text_22">
      <!-- 4000 -->
      <g transform="translate(901.125022 346.718437) scale(0.1 -0.1)">
       <use xlink:href="#DejaVuSans-34"/>
       <use xlink:href="#DejaVuSans-30" transform="translate(63.623047 0)"/>
       <use xlink:href="#DejaVuSans-30" transform="translate(127.246094 0)"/>
       <use xlink:href="#DejaVuSans-30" transform="translate(190.869141 0)"/>
      </g>
     </g>
    </g>
    <g id="xtick_21">
     <g id="line2d_21">
      <g>
       <use xlink:href="#m7882fe71fc" x="961.028459" y="332.12" style="stroke: #000000; stroke-width: 0.8"/>
      </g>
     </g>
     <g id="text_23">
      <!-- 5000 -->
      <g transform="translate(948.303459 346.718437) scale(0.1 -0.1)">
       <use xlink:href="#DejaVuSans-35"/>
       <use xlink:href="#DejaVuSans-30" transform="translate(63.623047 0)"/>
       <use xlink:href="#DejaVuSans-30" transform="translate(127.246094 0)"/>
       <use xlink:href="#DejaVuSans-30" transform="translate(190.869141 0)"/>
      </g>
     </g>
    </g>
    <g id="xtick_22">
     <g id="line2d_22">
      <g>
       <use xlink:href="#m7882fe71fc" x="1008.206895" y="332.12" style="stroke: #000000; stroke-width: 0.8"/>
      </g>
     </g>
     <g id="text_24">
      <!-- 6000 -->
      <g transform="translate(995.481895 346.718437) scale(0.1 -0.1)">
       <use xlink:href="#DejaVuSans-36"/>
       <use xlink:href="#DejaVuSans-30" transform="translate(63.623047 0)"/>
       <use xlink:href="#DejaVuSans-30" transform="translate(127.246094 0)"/>
       <use xlink:href="#DejaVuSans-30" transform="translate(190.869141 0)"/>
      </g>
     </g>
    </g>
    <g id="xtick_23">
     <g id="line2d_23">
      <g>
       <use xlink:href="#m7882fe71fc" x="1055.385332" y="332.12" style="stroke: #000000; stroke-width: 0.8"/>
      </g>
     </g>
     <g id="text_25">
      <!-- 7000 -->
      <g transform="translate(1042.660332 346.718437) scale(0.1 -0.1)">
       <use xlink:href="#DejaVuSans-37"/>
       <use xlink:href="#DejaVuSans-30" transform="translate(63.623047 0)"/>
       <use xlink:href="#DejaVuSans-30" transform="translate(127.246094 0)"/>
       <use xlink:href="#DejaVuSans-30" transform="translate(190.869141 0)"/>
      </g>
     </g>
    </g>
   </g>
   <g id="matplotlib.axis_6"/>
   <g id="patch_163">
    <path d="M 722.984939 332.12 
L 722.984939 26.88 
" style="fill: none; stroke: #000000; stroke-width: 0.8; stroke-linejoin: miter; stroke-linecap: square"/>
   </g>
   <g id="patch_164">
    <path d="M 1059.89559 332.12 
L 1059.89559 26.88 
" style="fill: none; stroke: #000000; stroke-width: 0.8; stroke-linejoin: miter; stroke-linecap: square"/>
   </g>
   <g id="patch_165">
    <path d="M 722.984939 332.12 
L 1059.89559 332.12 
" style="fill: none; stroke: #000000; stroke-width: 0.8; stroke-linejoin: miter; stroke-linecap: square"/>
   </g>
   <g id="patch_166">
    <path d="M 722.984939 26.88 
L 1059.89559 26.88 
" style="fill: none; stroke: #000000; stroke-width: 0.8; stroke-linejoin: miter; stroke-linecap: square"/>
   </g>
   <g id="text_26">
    <!-- numeric__TotalCharges -->
    <g transform="translate(822.197452 20.88) scale(0.12 -0.12)">
     <defs>
      <path id="DejaVuSans-54" d="M -19 4666 
L 3928 4666 
L 3928 4134 
L 2272 4134 
L 2272 0 
L 1638 0 
L 1638 4134 
L -19 4134 
L -19 4666 
z
" transform="scale(0.015625)"/>
     </defs>
     <use xlink:href="#DejaVuSans-6e"/>
     <use xlink:href="#DejaVuSans-75" transform="translate(63.378906 0)"/>
     <use xlink:href="#DejaVuSans-6d" transform="translate(126.757812 0)"/>
     <use xlink:href="#DejaVuSans-65" transform="translate(224.169922 0)"/>
     <use xlink:href="#DejaVuSans-72" transform="translate(285.693359 0)"/>
     <use xlink:href="#DejaVuSans-69" transform="translate(326.806641 0)"/>
     <use xlink:href="#DejaVuSans-63" transform="translate(354.589844 0)"/>
     <use xlink:href="#DejaVuSans-5f" transform="translate(409.570312 0)"/>
     <use xlink:href="#DejaVuSans-5f" transform="translate(459.570312 0)"/>
     <use xlink:href="#DejaVuSans-54" transform="translate(509.570312 0)"/>
     <use xlink:href="#DejaVuSans-6f" transform="translate(553.654297 0)"/>
     <use xlink:href="#DejaVuSans-74" transform="translate(614.835938 0)"/>
     <use xlink:href="#DejaVuSans-61" transform="translate(654.044922 0)"/>
     <use xlink:href="#DejaVuSans-6c" transform="translate(715.324219 0)"/>
     <use xlink:href="#DejaVuSans-43" transform="translate(743.107422 0)"/>
     <use xlink:href="#DejaVuSans-68" transform="translate(812.931641 0)"/>
     <use xlink:href="#DejaVuSans-61" transform="translate(876.310547 0)"/>
     <use xlink:href="#DejaVuSans-72" transform="translate(937.589844 0)"/>
     <use xlink:href="#DejaVuSans-67" transform="translate(976.953125 0)"/>
     <use xlink:href="#DejaVuSans-65" transform="translate(1040.429688 0)"/>
     <use xlink:href="#DejaVuSans-73" transform="translate(1101.953125 0)"/>
    </g>
   </g>
  </g>
 </g>
 <defs>
  <clipPath id="p5ceca4a014">
   <rect x="10.8" y="26.88" width="336.910652" height="305.24"/>
  </clipPath>
  <clipPath id="pe27e719353">
   <rect x="366.892469" y="26.88" width="336.910652" height="305.24"/>
  </clipPath>
  <clipPath id="p178e249379">
   <rect x="722.984939" y="26.88" width="336.910652" height="305.24"/>
  </clipPath>
 </defs>
</svg>
